<svg width="59" height="52" fill="none" xmlns="http://www.w3.org/2000/svg"><g clip-path="url(#a)" fill="#000"><path d="M26.79.397c-.132.3-.253.461-.495.668-.38.323-.472.553-.357.881.04.116.093.334.116.49.023.15.126.45.224.662.173.357.184.432.184.99a4.4 4.4 0 0 1-.431 1.93c-.248.541-.248.535.195 1.174.202.283.19.329-.247.864-.306.386-.346.519-.208.755.046.08.081.184.081.23 0 .046-.196.202-.438.345-.242.144-.639.42-.88.617-1.032.823-1.337 1.606-1.498 3.846a17.54 17.54 0 0 1-.519 3.087c-.224.881-.334 1.169-.702 1.952-.576 1.198-.847 2.039-1.054 3.282-.201 1.187-.495 2.246-.622 2.246-.086 0-.27-.8-.27-1.174 0-.225.034-.323.178-.507.225-.282.242-.582.058-.847-.352-.49-1.089-.466-1.498.046-.38.484-.328.904.144 1.175.162.092.323.219.357.277.075.115.473 1.75.473 1.929 0 .063-.093.236-.202.397-.213.294-.374.737-.374 1.02 0 .27.213.817.495 1.284.15.247.247.46.219.489-.075.07-1.025.34-1.36.38-.218.029-.299.017-.391-.063-.063-.058-.15-.087-.207-.064-.116.046-.098.213.126.968.167.593.271.702.357.38.093-.369.455-.501 1.4-.507h.553l.092.328c.052.185.132.53.184.766.052.236.294 1.146.547 2.016.248.87.651 2.372.893 3.34.242.967.541 2.107.662 2.534.121.426.334 1.232.467 1.785.132.552.34 1.37.466 1.808.121.443.374 1.416.565 2.165.46 1.831.754 2.586 1.243 3.202l.19.242-2.24.04-2.246.04v1.14h-1.307l-.07-.241c-.212-.72-.638-1.256-1.318-1.653-.582-.345-.61-.34-.656.11-.075.679.04 1.491.27 1.957.144.277.467.645.749.853.242.172.086.16-.541-.047-.83-.27-1.112-.403-1.072-.512.093-.224.15-.875.116-1.273-.098-1.134-.346-1.612-1.175-2.263-.19-.15-.357-.247-.38-.213-.081.133-.213.674-.26 1.071-.092.847.093 1.503.582 2.062.127.144.208.265.179.265-.07 0-.749-.38-1.267-.709-.311-.195-.363-.247-.329-.35.248-.75.323-1.181.306-1.763-.018-.547-.035-.645-.202-.98-.207-.42-.697-1.053-.83-1.081-.114-.024-.402.604-.54 1.18-.156.64-.11 1.175.155 1.681.115.225.184.41.161.41-.057 0-1.065-.842-1.255-1.049l-.133-.15.173-.27c.196-.306.432-.985.513-1.469.098-.54-.04-1.151-.363-1.698-.334-.553-.328-.553-.593-.167-.686 1.019-.841 1.756-.53 2.568.063.167.104.311.086.322-.034.04-.731-.748-1.169-1.318-.057-.081-.034-.139.162-.375.794-.95 1.042-1.975.713-2.948-.207-.633-.253-.662-.547-.386-.575.559-1.025 1.423-1.03 1.97 0 .132.028.374.063.535.034.162.052.311.034.323-.034.034-.54-.778-.8-1.279l-.184-.351.432-.426c.933-.922 1.215-1.659 1.025-2.73a2.491 2.491 0 0 0-.104-.426c-.12-.19-1.192.766-1.474 1.319-.138.265-.173.415-.202.921-.029.507-.046.582-.098.461-.178-.403-.334-.83-.483-1.296-.139-.437-.156-.53-.081-.576.04-.034.225-.15.403-.259.184-.11.518-.397.749-.639.524-.547.668-.887.708-1.647.035-.72.029-.737-.31-.587-.393.161-1.02.593-1.233.84-.26.294-.45.732-.496 1.13-.023.178-.057.345-.08.356-.087.052-.444-1.797-.38-1.958a.139.139 0 0 1 .12-.086c.173 0 .934-.403 1.285-.674.599-.466.893-1.002.973-1.756.04-.398.023-.41-.593-.196-1.002.34-1.474.789-1.728 1.63-.046.167-.115.305-.144.305-.063 0-.069-2.073-.005-2.165.023-.035.172-.087.328-.11.944-.138 1.848-.685 2.171-1.319.127-.241.334-.817.334-.915 0-.098-.789.006-1.255.167-.668.224-.997.507-1.308 1.117-.092.173-.173.288-.184.248-.023-.07.144-1.129.288-1.832l.075-.345.478-.012c.541-.017 1.238-.19 1.595-.397.132-.075.357-.265.495-.42.282-.311.616-.899.547-.962-.023-.023-.305-.04-.627-.04-.974-.006-1.55.236-1.987.829-.121.155-.236.282-.26.282-.045 0 .317-1.077.582-1.722.098-.23.19-.374.23-.362 1.1.241 2.062.08 2.684-.467.311-.27.582-.662.507-.737-.086-.086-.818-.225-1.204-.225-.19 0-.477.04-.644.087-.283.086-.824.455-.98.674-.04.057-.097.103-.132.103-.07 0 .253-.645.731-1.445.3-.507.398-.628.473-.6.627.266 1.341.404 1.82.364a2.13 2.13 0 0 0 .61-.173c.357-.161.996-.662.95-.737-.063-.098-.703-.357-1.094-.444-.657-.138-1.158-.023-1.768.42-.161.11-.3.19-.317.18-.034-.041.737-1.009 1.21-1.51.334-.357.385-.397.483-.328.26.185.974.484 1.342.565.564.126.933.075 1.52-.225.254-.132.467-.276.467-.322 0-.098-.634-.484-1.048-.64a2.07 2.07 0 0 0-1.44.03c-.219.085-.415.172-.443.2-.115.116-.162.052-.058-.063.138-.16.985-.87 1.451-1.226l.363-.277.213.19c.57.501 1.348.858 1.878.858.403 0 1.186-.247 1.186-.38 0-.12-.691-.708-1.03-.87a1.974 1.974 0 0 0-1.366-.109c-.409.104-.507.116-.46.04.04-.063 1.399-.863 1.768-1.042l.27-.132.484.495c.737.755 1.382 1.008 2.206.853.184-.035.362-.087.391-.116.064-.063-.316-.587-.639-.88-.46-.415-.645-.479-1.434-.479-.386 0-.685-.017-.662-.034.023-.018.282-.133.581-.26.3-.12.513-.23.484-.236-.029-.011-.178.035-.334.098-.328.139-.403.11-.167-.069.691-.524.956-1.169.864-2.073-.058-.507-.092-.553-.334-.437-.3.138-.755.581-.899.87-.19.38-.31 1.03-.293 1.56l.017.449-.8.415c-.444.23-.899.472-1.008.54-.311.197-.311.156-.012-.212.386-.484.495-.818.455-1.405-.029-.45-.23-1.192-.322-1.192-.11 0-.766.765-.876 1.019-.172.386-.213 1.232-.086 1.762.052.219.092.415.092.443 0 .03-.173.173-.386.329-.219.15-.61.449-.88.662-.271.213-.502.391-.525.391-.017 0 .058-.178.161-.391.34-.68.317-1.238-.086-2.073-.144-.288-.236-.415-.294-.403-.132.023-.564.696-.668 1.036-.161.547-.075 1.261.242 1.964l.156.345-.346.3a9.8 9.8 0 0 0-.737.771c-.219.254-.409.455-.426.444-.012-.017.017-.15.069-.3.236-.696-.012-1.543-.68-2.297-.126-.144-.16-.161-.213-.087-.253.38-.455.985-.455 1.377 0 .483.294 1.284.645 1.79l.144.196-.391.594c-.213.322-.473.742-.576.938-.11.19-.213.346-.23.346-.024 0-.012-.11.017-.248.15-.656-.121-1.353-.79-2.033-.345-.357-.448-.432-.489-.368-.132.213-.253.754-.253 1.186-.006.438.011.495.242.968.161.316.374.633.587.858l.34.362-.305.72c-.173.392-.357.864-.415 1.042-.058.185-.12.334-.144.334-.017 0-.052-.213-.063-.478-.04-.765-.369-1.255-1.221-1.814-.455-.299-.467-.287-.53.271-.052.507.058 1.077.276 1.428.283.444.645.847.99 1.083.18.12.323.247.323.282 0 .035-.063.311-.138.61-.075.3-.173.75-.213.991-.04.248-.098.45-.12.45-.024 0-.047-.047-.047-.104 0-.058-.057-.271-.127-.479-.172-.512-.61-.95-1.267-1.255-.748-.351-.737-.351-.737-.023 0 .691.22 1.307.617 1.75.253.277.8.68 1.18.864l.27.133-.034 1.008c-.017.558-.04 1.019-.046 1.03-.011.012-.08-.12-.155-.287a1.926 1.926 0 0 0-.703-.847c-.276-.19-.921-.432-1.359-.512l-.305-.058.034.27c.04.34.225.83.438 1.17.282.443 1.135.984 1.837 1.163.236.063.27.092.288.242.006.092.07.512.133.933.063.426.109.783.092.794-.018.017-.081-.057-.15-.172-.397-.64-1.204-1.014-2.212-1.014-.524 0-.518-.029-.184.668.41.84 1.14 1.301 2.356 1.486l.46.069.07.224c.034.127.155.501.259.835.109.334.201.645.213.691.017.047-.11-.04-.271-.19a2.777 2.777 0 0 0-.628-.431c-.305-.144-.38-.156-1.077-.156-.449.006-.812.035-.91.075l-.155.069.213.351c.576.927 1.37 1.313 2.695 1.319h.582l.213.432c.115.242.317.605.443.812.127.207.23.403.23.432 0 .034-.097-.023-.212-.115-.507-.404-1.118-.536-1.9-.41-.53.081-1.055.266-1.055.37 0 .114.559.656.922.892.443.288.91.38 1.693.334.322-.017.708-.075.858-.121l.276-.08.271.345c.15.195.42.535.605.754.184.219.322.409.31.42-.01.018-.172-.046-.356-.126-.41-.19-.98-.242-1.475-.138-.38.08-1.405.564-1.405.662.006.098.824.65 1.17.783.604.23 1.548.144 2.441-.23l.397-.167.513.478c.282.264.61.552.72.639.115.086.196.167.184.178-.011.012-.173-.017-.363-.069-.65-.167-1.198-.092-1.854.26-.369.195-.99.662-.99.742 0 .08.345.283.76.444.49.195 1.105.242 1.595.109a4.488 4.488 0 0 0 1.393-.633 2.38 2.38 0 0 1 .311-.202c.018 0 .26.15.536.334.276.184.61.397.749.472.132.075.242.15.242.167 0 .017-.254.035-.565.035-.535 0-.576.011-.985.224-.305.156-.564.358-.91.703-.27.265-.477.518-.466.558.011.035.201.133.426.208.317.115.518.144.973.144.513.006.617-.012.945-.161a4.284 4.284 0 0 0 1.278-.83c.179-.166.346-.3.375-.3.023 0 .397.14.823.312.432.173 1.037.386 1.348.472l.558.161V52h21.706l.017-.616.017-.622.57-.184c.317-.104.83-.294 1.146-.427.38-.16.6-.224.645-.19.04.03.248.202.461.38.213.179.634.455.933.605l.547.277h.587c.456 0 .674-.035 1.003-.139.23-.074.431-.16.449-.19.017-.029-.208-.293-.501-.581-.392-.386-.65-.588-.944-.732-.38-.19-.439-.201-.962-.201-.542 0-.691-.04-.455-.115.063-.017.403-.225.76-.461.357-.236.662-.432.674-.432.011 0 .103.064.201.138.27.208.933.524 1.388.662.495.15 1.008.156 1.48.006.403-.127.974-.431.974-.518 0-.086-.617-.553-.991-.749-.657-.35-1.233-.432-1.826-.253-.167.046-.328.08-.357.07-.029-.012.098-.139.282-.289.18-.15.507-.437.732-.639l.397-.368.294.132c.708.31 1.59.466 2.102.369.414-.081.933-.329 1.319-.634.363-.288.356-.294-.265-.599-.853-.426-1.665-.49-2.344-.184-.184.08-.346.15-.363.15-.011 0 .196-.265.455-.588.265-.328.53-.668.6-.76l.12-.167.507.104c.368.069.685.092 1.123.075.812-.035 1.197-.208 1.79-.8.398-.392.415-.416.306-.496-.179-.133-.823-.305-1.273-.346-.599-.052-1.048.064-1.497.369-.202.132-.363.236-.363.219 0-.018.133-.254.288-.53.161-.277.357-.65.443-.835l.156-.334h.61c.697 0 1.365-.138 1.751-.369.133-.074.368-.276.53-.449.282-.3.64-.835.587-.88-.057-.064-.662-.145-1.03-.145-.772 0-1.21.156-1.711.605-.167.15-.3.259-.3.242 0-.012.04-.121.087-.242.052-.115.179-.513.282-.881l.196-.668.49-.075c.984-.138 1.785-.57 2.165-1.158.178-.276.409-.806.409-.932 0-.081-.766-.075-1.17.005-.679.139-1.14.467-1.583 1.123-.063.098-.07.08-.04-.12.023-.127.08-.577.132-.997l.098-.772.403-.126c.858-.27 1.538-.755 1.832-1.29.16-.294.408-1.14.356-1.221-.034-.052-.454.029-.933.179-.696.224-1.278.725-1.468 1.26-.029.099-.075.173-.098.173-.029 0-.052-.305-.058-.68a16.33 16.33 0 0 0-.04-.99l-.034-.316.455-.23a3.32 3.32 0 0 0 .887-.663c.546-.541.696-.875.708-1.612.006-.582.023-.576-.697-.225-.766.369-1.203.875-1.348 1.55-.063.299-.166.339-.166.068 0-.086-.093-.541-.202-1.019-.178-.766-.19-.864-.11-.91.23-.132.709-.57.962-.875.46-.576.53-.766.53-1.497 0-.352-.017-.68-.04-.737-.04-.098-.064-.093-.34.051a4.573 4.573 0 0 0-.657.496c-.46.426-.668.817-.702 1.353-.04.587-.075.604-.225.144a12.717 12.717 0 0 0-.397-1.02c-.282-.639-.305-.748-.179-.817.161-.092.668-.772.852-1.158.173-.35.19-.431.19-.904 0-.541-.155-1.18-.281-1.18-.104 0-.674.57-.893.88-.288.421-.369.715-.346 1.274.012.264.006.472-.017.46a2.898 2.898 0 0 1-.236-.386 26.464 26.464 0 0 0-.559-.904c-.322-.483-.351-.553-.282-.662.541-.846.657-1.175.657-1.9 0-.478-.018-.553-.213-.968-.116-.242-.237-.443-.266-.443-.063 0-.54.662-.684.95-.064.127-.15.363-.19.53-.081.305-.076.345.091 1.14.035.167.03.167-.184-.086-.12-.144-.455-.501-.748-.795l-.53-.541.138-.294a3.619 3.619 0 0 0 .3-1.555 2.067 2.067 0 0 0-.553-1.307l-.22-.248-.178.34a3.865 3.865 0 0 0-.392 1.158c-.046.293.093.87.289 1.209.08.132.143.253.143.27 0 .018-.207-.132-.46-.34a19.058 19.058 0 0 0-.922-.69c-.253-.179-.46-.34-.46-.357 0-.018.04-.19.092-.386.063-.253.086-.53.069-.985-.017-.553-.04-.674-.179-.933-.166-.322-.76-.962-.846-.91-.087.052-.282.738-.323 1.129-.051.518.075.927.438 1.405.288.38.305.45.063.277a18.94 18.94 0 0 0-.996-.536l-.858-.443-.017-.714c-.018-.87-.133-1.221-.553-1.682-.265-.288-.76-.622-.83-.553-.017.018-.057.219-.092.45-.144.904.121 1.566.835 2.113.116.086.196.161.185.172-.012.012-.167-.034-.352-.097-.541-.196-.42-.093.173.15.3.12.559.241.576.264.012.023-.207.03-.49.012-.621-.04-.961.034-1.37.3-.334.218-.985.984-.904 1.059.075.075.622.178.91.178.639 0 1.462-.495 2.004-1.209l.155-.196.357.167c.202.098.622.329.94.518 1.024.617 1.041.64.425.479-.605-.162-1.071-.121-1.549.132-.42.224-1.014.748-.956.846.07.104.662.3 1.02.34.587.058 1.491-.31 2.027-.83l.213-.206.426.322c.547.409 1.543 1.261 1.514 1.29-.011.017-.12-.023-.247-.086-.928-.467-1.774-.38-2.655.27l-.248.185.138.115c.254.196.853.449 1.17.49.518.063 1.491-.231 2.056-.623.097-.069.155-.023.552.398.49.506 1.244 1.457 1.164 1.457-.03 0-.22-.116-.432-.26-.496-.334-.922-.454-1.365-.408-.467.057-1.377.385-1.377.5 0 .081.582.565.83.68.443.219.835.27 1.399.184.282-.04.663-.132.853-.213l.345-.138.098.133c.207.27 1.083 1.82 1.083 1.917 0 .017-.15-.092-.329-.253-.581-.501-.748-.559-1.514-.553-.65.006-1.152.104-1.193.23-.034.104.49.697.778.887.403.265.818.369 1.48.369.317 0 .674-.03.795-.064l.213-.069.138.27c.179.352.68 1.803.64 1.844-.018.017-.075-.03-.127-.11-.237-.334-.57-.633-.858-.771-.357-.168-1.026-.271-1.475-.225-.478.052-.472.04-.299.38.472.939 1.169 1.353 2.378 1.422l.605.035.046.173c.086.288.328 1.716.334 1.917 0 .185-.011.173-.196-.178a3.09 3.09 0 0 0-.386-.582c-.247-.276-.8-.535-1.353-.639-.403-.08-.83-.115-.83-.07 0 .076.242.698.363.94.294.581 1.037 1.07 1.913 1.26.253.058.495.11.535.122.052.017.07.288.07 1.117 0 .599-.024 1.094-.053 1.094-.029 0-.08-.121-.115-.265-.173-.68-.581-1.157-1.284-1.491-.42-.202-.996-.363-1.066-.3-.057.058.076.726.22 1.106.19.506.72 1.019 1.428 1.37.293.15.587.27.65.27.11 0 .116.024.087.358-.04.426-.26 1.532-.323 1.653-.034.051-.075-.058-.115-.317a3.313 3.313 0 0 0-.213-.697c-.19-.397-.708-.858-1.302-1.163-.432-.225-.477-.236-.512-.138-.127.316-.006 1.203.219 1.658.19.374.875 1.054 1.301 1.296.184.103.352.224.369.27.04.11-.605 1.918-.691 1.918-.006 0-.017-.247-.017-.547-.006-.49-.03-.587-.185-.91a2.845 2.845 0 0 0-.518-.69c-.317-.318-.852-.732-.939-.732-.057 0-.16.449-.202.904-.028.328-.01.484.087.812.184.61.755 1.388 1.296 1.773l.167.122-.294.524c-.386.679-.708 1.18-.737 1.145-.011-.01.006-.16.04-.328a2.138 2.138 0 0 0-.207-1.491c-.253-.484-.962-1.279-1.06-1.187-.126.127-.363.882-.391 1.267-.052.663.265 1.51.823 2.189.248.31.26.328.173.46-.15.225-1.077 1.296-1.123 1.296-.023 0 .017-.173.086-.386.254-.737.127-1.434-.408-2.292-.375-.599-.38-.604-.605-.259-.657 1.02-.674 1.912-.075 3.162l.259.535-.334.3c-.484.431-1.002.84-1.065.84-.029 0 .011-.098.086-.213.478-.72.455-1.67-.063-2.758-.08-.173-.173-.311-.202-.311-.126 0-.622.633-.858 1.094-.196.369-.196.386-.19 1.094.006.576.035.8.133 1.123.218.685.253.628-.6 1.134-.408.248-.783.45-.823.45-.046 0 .035-.133.179-.288.512-.57.69-1.227.57-2.09-.07-.496-.15-.818-.236-.962-.08-.121-.265-.006-.72.437-.668.651-.876 1.261-.824 2.425.017.374.046.737.07.806.034.11.005.138-.18.219-.46.19-1.416.495-1.45.466-.018-.023.115-.167.293-.328.582-.518.835-1.29.772-2.367-.017-.316-.046-.587-.058-.604-.057-.058-.858.409-1.146.668a2.437 2.437 0 0 0-.737 1.134l-.127.369h-.909v-1.152h-2.154c-1.313 0-2.171-.023-2.194-.058-.018-.029-.006-.345.028-.702.19-1.987.484-4.607.634-5.69.11-.754.173-1.463.167-1.814 0-.483.029-.702.207-1.382.288-1.105.317-1.618.127-2.332a24.289 24.289 0 0 1-.501-2.447 19.742 19.742 0 0 0-.156-.94c-.08-.431-.08-.494 0-.69.34-.789.306-1.146-.322-3.415a9.808 9.808 0 0 1-.294-1.584 636.88 636.88 0 0 0-.265-2.326c-.029-.3-.086-.708-.126-.904-.058-.3-.052-.409.034-.72.179-.656.144-.933-.19-1.635a7.092 7.092 0 0 1-.403-1.002 4.318 4.318 0 0 0-.225-.617c-.201-.397-.31-1.67-.184-2.217.029-.138.08-.794.115-1.457.075-1.44.156-1.877.49-2.631.432-.98.864-1.55 1.491-1.958.524-.34 1.855-.743 2.828-.852.317-.035.76-.11.979-.173.225-.058.467-.115.547-.127.179-.023.173-.006-.086.847-.11.345-.236.829-.288 1.065a5.085 5.085 0 0 1-.26.806c-.109.248-.155.426-.132.536.104.506 1.267.829 2.85.777.922-.034 1.423-.155 1.792-.432.443-.34.414-.731-.133-1.83-.374-.761-1.151-3.013-1.151-3.347 0-.11.051-.293.109-.414.058-.115.202-.513.317-.876.115-.368.242-.708.276-.76.063-.075 1.538-.794 1.63-.794.011 0 .219-.116.46-.254.237-.144.444-.242.456-.219.011.023-.173.743-.42 1.595-.243.859-.611 2.143-.813 2.868-.368 1.302-.374 1.313-.587 1.451-.386.26-.242.582.38.87.512.236 1.07.328 1.964.322 1.44-.005 2.378-.299 2.528-.794.046-.144-.184-.455-.369-.513-.086-.029-.172-.213-.34-.737a141.63 141.63 0 0 0-.696-2.056c-.559-1.606-1.094-3.265-1.18-3.674-.024-.103-.076-.224-.128-.27-.178-.185-.852-.064-1.762.316-.247.104-.46.173-.478.156-.017-.017.075-.236.202-.484.138-.265.282-.685.357-1.002.126-.541.126-.541.513-.915.558-.536.783-1.025.639-1.394-.173-.455-1.031-.846-1.572-.72-.38.087-.404.11-.64.565-.178.35-.242.57-.357 1.266-.075.467-.196.985-.259 1.152-.213.547-.835 1.687-1.417 2.597-1.319 2.068-1.198 1.93-1.843 2.131-.368.11-.547.12-2.384.132-1.687.006-2.119.03-2.85.133-.473.069-.95.127-1.048.127h-.19v-.334c0-.179.051-.548.115-.807.097-.409.109-.541.057-.858-.069-.409-.144-.581-.432-.99a4.641 4.641 0 0 1-.316-.518c-.127-.254-.127-.26-.023-.594.069-.241.15-.374.287-.478a1.53 1.53 0 0 0 .334-.437c.127-.254.144-.351.116-.6-.023-.178-.012-.345.028-.42.046-.086.04-.201-.017-.454a11.9 11.9 0 0 1-.115-.496c-.029-.115-.104-.19-.288-.27a.71.71 0 0 1-.368-.375c-.07-.144-.185-.374-.254-.518L31.766 0l-.518.006c-.513 0-.518 0-.38.098.23.16.466.368.443.391-.011.018-.167-.04-.35-.12A2.229 2.229 0 0 0 30.58.23c-.029 0 .133.19.363.426.305.317.512.478.789.605.322.15.357.179.247.213-.092.023-.132.08-.132.179 0 .144-.23.42-.351.42-.04 0-.012-.069.069-.155.12-.133.12-.144.023-.098-.236.103-.732.052-1.066-.115-.564-.288-.886-.697-1.042-1.336-.08-.346-.167-.455-.167-.225 0 .26-.144.749-.294.985-.207.34-.656.495-1.894.673-.121.018-.11.03.103.087.288.086.3.15.104.57-.155.328-.357.495-.564.466-.167-.023-.208-.253-.081-.5a.623.623 0 0 0 .086-.277c0-.086-.011-.08-.063.023-.07.138-.236.219-.334.161-.029-.017-.058-.11-.058-.201 0-.179.248-.542.686-1.002.34-.357.103-.248-.317.15-.288.27-.426.34-.426.212 0-.034.3-.368.662-.73.363-.37.65-.68.634-.692-.012-.011-.121.035-.242.11l-.22.138.105-.162.098-.155h-.162c-.155 0-.184.04-.345.397Zm17.37.225c.126.167.051 1.25-.092 1.25-.052 0-.081-.116-.093-.375-.011-.207-.04-.524-.063-.708-.04-.311-.04-.328.063-.294a.58.58 0 0 1 .184.127Zm.53.351c0 .138-.22.87-.26.87-.011 0 .012-.968.029-1.267.011-.11.23.276.23.397Zm-.95-.155c.057.34.057.673.005.68-.075.005-.27-.64-.23-.767.051-.167.19-.11.224.087Zm1.352.334c.121.23-.195 1.036-.409 1.036-.132 0-.138.006.058-.518.063-.173.127-.386.15-.478.034-.184.115-.202.202-.04Zm-15.64.368c.051.121.212.3.414.45.184.138.409.322.507.414l.178.167-.172.075c-.093.04-.242.075-.323.08a.397.397 0 0 0-.253.116c-.144.161-.663.161-.881 0-.104-.075-.329-.139-.663-.179l-.5-.069v-.167c0-.242.097-.392.253-.392.282 0 .875-.23 1.06-.408.103-.098.184-.202.184-.23 0-.127.12-.035.195.143Zm14.022 1.06c.075.178.023.351-.518 1.797-.351.932-.386.99-.904 1.255-.242.127-.513.305-.6.397-.16.167-.333.519-.333.68 0 .08-.576 1.595-.685 1.808-.058.115-.098.132-.962.409-1.043.328-2.08.512-2.903.518-.766 0-1.353.11-1.693.311-.127.075-.426.322-.662.547-.23.225-.438.409-.45.409-.057 0 .058-.726.162-1.071.144-.472.386-.79.685-.91.455-.184 1.348-.276 2.736-.288 1.255-.011 1.347-.017 1.814-.161.27-.087.587-.167.702-.19.167-.029.225-.064.254-.179.046-.172.944-1.624 1.509-2.43.587-.835 1.053-1.658 1.364-2.418.15-.352.306-.645.346-.645.04 0 .104.074.138.16Zm-15.359.317c.029.051-.046.074-.276.086-.369.017-.42-.006-.305-.138.057-.07.132-.08.305-.052.127.017.253.063.276.104Zm2.695.328c.271.057.605.144.75.19l.258.086-.317.012-.316.011.247.087c.133.046.242.109.242.138 0 .063.023.057-.72.063-.558 0-.564 0-.23.052.65.092.893.173.893.282 0 .202-.127.23-.519.121-.927-.265-2.165-.288-3.369-.057-.702.132-.645.132-.68-.018-.045-.173.03-.247.335-.334.144-.04.259-.098.259-.126 0-.03-.046-.04-.098-.023-.415.12-.864.08-.645-.058.104-.063.743-.19.962-.196.115 0 .178-.023.155-.057-.017-.035-.247-.058-.506-.058-.329-.006-.444-.017-.38-.058.178-.103.87-.155 2.038-.167.945 0 1.238.018 1.641.11ZM29.75 4.33c.07.11-.155.22-.454.22-.196 0-.27.022-.26.068.035.098.242.15.634.156.276.006.34-.012.415-.121a.49.49 0 0 0 .092-.236c0-.092.029-.104.161-.075.202.052.472.345.472.524 0 .219-.12.731-.218.921-.144.283-.23.329-.738.392-.264.035-.483.075-.483.098 0 .017.092.08.201.132.162.08.202.127.202.265 0 .219-.064.254-.444.242-.42-.011-.627-.11-.944-.443-.553-.588-.933-1.457-.755-1.734.075-.115.657-.357.991-.414.472-.075 1.083-.075 1.129.005Zm-2.654.605c.069.196.247.564.392.824.259.449.27.5.27.915 0 .242-.029.542-.063.668-.075.282-.27.72-.317.72-.023 0-.017-.167.006-.374.04-.41-.07-1.428-.15-1.377-.029.018-.052.22-.052.455 0 .236-.023.438-.052.455-.063.04-.12-.397-.12-.979 0-.265-.018-.483-.04-.483-.03.005-.122.138-.22.305-.092.167-.195.3-.23.3-.063 0-.046-.352.029-.663.029-.11.098-.386.15-.605.051-.224.103-.437.115-.478.046-.155.155-.028.282.317Zm18.601-.328c.07.115-.132.294-.65.581-1.135.628-2.534 1.175-3.191 1.244-.351.035-.415-.011-.23-.167.305-.276 2.332-1.301 3.046-1.543.507-.173.962-.225 1.025-.115Zm.674 2.09c.242.732.657 1.964.916 2.73.264.771.46 1.41.449 1.428-.017.017-.288 0-.605-.029-.31-.029-.8-.058-1.083-.058h-.512l.04-.31c.017-.173.075-1.06.121-1.97.046-.915.098-1.992.121-2.401.017-.403.052-.732.075-.732.017 0 .236.605.478 1.342Zm-14.783-.87c-.023.168-.121.502-.213.738-.162.414-.277.979-.202.979.023 0 .092-.104.156-.23.126-.254.322-.335.236-.098-.052.132-.08.38-.07.57.006.057.047.103.093.103.15 0 .31-.213.414-.558l.104-.334.029.316c.035.346-.058.87-.173 1.008-.098.115-.207.11-.438-.034-.362-.225-.472-.53-.489-1.348-.012-.443 0-.478.242-.939.138-.259.276-.472.3-.472.028 0 .034.138.01.3Zm14 .433c-.017.155-.075.99-.121 1.86-.093 1.612-.173 2.585-.225 2.631-.023.03-.8.196-.956.213-.046 0-.08-.023-.075-.052.012-.069 1.279-4.75 1.313-4.854.058-.167.098-.046.064.202Zm-3.605.645c0 .097-.173.466-.22.466-.063 0-.19-.403-.149-.472.04-.064.369-.058.369.006Zm-.45.299c.156.409.133.536-.138.766-.132.115-.247.196-.259.184-.046-.046.19-1.244.242-1.226.029.011.104.138.155.276Zm-12.652.282c.524.438.795.438 1.17-.006.074-.092.16-.167.195-.167.07 0 .023.15-.26.795-.126.294-.212.547-.195.564.092.093.334-.155.466-.466.04-.098.15.104.15.276 0 .23-.08.352-.386.588-.31.236-.547.259-.933.086-.265-.12-.581-.155-.581-.057 0 .034.057.08.132.109.139.058.306.23.467.484.126.207.334.288.541.207.087-.035.363-.196.616-.363.3-.201.565-.334.766-.374.467-.098.547-.156.501-.363-.034-.144-.023-.173.046-.144.265.098.582.156 1.002.167.265.012.478.035.478.058 0 .086-.558.455-1.065.702-.61.3-2.275.853-2.563.853-.115.005-.357-.075-.553-.173-.403-.202-1.272-.783-1.6-1.066l-.225-.19.282-.167c.53-.299.749-.604.806-1.105.058-.507.07-.536.242-.536.104 0 .277.104.501.288Zm12.036.616c-.04.225-.115.352-.172.294-.035-.035.138-.507.184-.507.017 0 .011.098-.012.213Zm-14.253.369c0 .391-.058.443-.369.34-.259-.087-.334-.277-.155-.403.069-.047.196-.144.282-.214.087-.063.173-.109.196-.092.029.012.046.179.046.369Zm15.63.956c.5 1.612.697 2.16.933 2.672.15.316.259.581.247.593-.011.017-.23-.029-.483-.092-.38-.098-.645-.121-1.51-.127-.581-.006-1.053-.017-1.053-.035.006-.38.294-2.418.357-2.55.029-.052.224-.185.438-.294.213-.11.489-.3.616-.432.126-.133.247-.236.265-.236.017 0 .103.224.19.5Zm-15.636 1.215c.07.449.156.904.202 1.008.15.368 2.09 1.825 2.424 1.825.08 0 .795-.633.755-.674-.012-.017-.144.046-.294.133-.26.15-.276.15-.45.063-.247-.12-1.324-1.03-1.497-1.267-.178-.236-.305-.639-.385-1.226-.104-.709-.11-.703.46-.363.553.34 1.423.754 1.912.921.242.08.473.11.864.104.294-.006.484-.017.42-.035a6.816 6.816 0 0 1-.57-.178c-.54-.179-.524-.19.455-.328 1.33-.185 1.25-.156 1.757-.68.248-.26.472-.455.49-.432.022.023-.127.27-.329.547-.207.277-.443.628-.53.772-.155.27-.68.806-.973 1.002-.276.178-.127.161.46-.058.847-.322.853-.322 1.302-.904.104-.132.104-.127.064.213-.018.19-.047.968-.052 1.728-.017 1.33-.023 1.405-.19 2.033-.179.68-.22.771-.265.639-.018-.046-.144-.409-.288-.806-.34-.945-.432-1.302-.45-1.757a4.023 4.023 0 0 0-.017-.368s-.403.201-.892.449c-1.031.524-1.52.702-1.918.702-.294 0-.328.081-.052.133.087.017.305.132.484.253.38.254 2.493 2.28 2.413 2.31-.098.034-.369-.145-.927-.605-.91-.755-1.273-1.008-2.045-1.428-.61-.334-.823-.484-1.203-.864-.26-.26-.53-.593-.61-.749l-.156-.31c-.012-.012-.035-.012-.052.01-.063.064.213.778.432 1.118.455.697 2.211 2.488 2.603 2.66l.772.329c.288.12.65.3.806.403.357.236.708.535.633.541-.034 0-.426-.167-.863-.369-.444-.201-.974-.414-1.181-.466-.605-.155-.933-.397-1.67-1.238-.236-.27-.622-.697-.864-.95a49.883 49.883 0 0 1-.68-.749c-.247-.288-.247-.288-.12-.057.069.126.16.27.195.316.04.046.225.346.415.663.501.835.84 1.583 1.06 2.332.172.605.437 1.082.702 1.273.323.236.709.299 1.613.27.432-.011.789 0 .789.023s-.15.087-.329.144c-.253.08-.53.104-1.111.104-.72 0-.8-.012-1.1-.15-.403-.19-.57-.409-.789-1.03-.23-.669-.691-1.82-.835-2.103-.167-.34-1.152-1.814-1.21-1.814-.051 0-.477.905-.535 1.13-.052.195-.12.172-.196-.07-.098-.3-.034-.605.346-1.635.409-1.089.512-1.624.524-2.719.017-1.25.075-1.203.276.23Zm-.61-.65c.155.725-.092 1.508-.691 2.164-.19.208-.45.57-.582.807-.334.61-.789 2.153-.87 2.965-.097.962-.184 1.198-.783 2.12-.495.754-.547.898-.547 1.531 0 1.279-.305 2.332-1.215 4.233a66.86 66.86 0 0 0-.685 1.48c-.185.409-.461.91-.622 1.123a5.989 5.989 0 0 0-.386.593l-.104.201-.103-.23c-.179-.392-.144-.541.253-1.134.201-.294.438-.691.524-.881.086-.19.23-.49.323-.663.282-.558.518-1.318.84-2.735.392-1.728.542-2.211.807-2.65.426-.707.604-1.191 1.324-3.598l.219-.72.04-1.41c.023-.842.07-1.504.11-1.642.132-.426.34-.76.65-1.042.323-.3 1.204-.79 1.36-.76.051.011.109.115.138.247Zm14.495-.035c0 .132-.346 2.493-.369 2.533-.034.052-.714.208-.754.173-.029-.029.46-2.015.559-2.269.08-.219.213-.374.362-.437.156-.064.202-.064.202 0Zm-15.204 5.597c0 .282.22 1.457.41 2.228l.235.94-.236.955c-.172.685-.305 1.077-.478 1.405-.224.432-.23.467-.167.674.064.19.052.282-.132.904-.11.38-.242.806-.3.95-.086.225-.103.605-.138 2.764l-.046 2.505-.207 1.066c-.41 2.038-.46 2.718-.38 4.866.023.731-.052 3.334-.098 3.288-.012-.012-.11-.357-.213-.76-.11-.41-.455-1.665-.778-2.788a99.063 99.063 0 0 1-.789-2.936c-.414-1.809-.495-2.2-.466-2.27.034-.091 1.393-.552 1.63-.552.12 0 .224.058.34.173.091.092.218.172.276.172.104 0 .11-.028.08-.334-.04-.362-.265-1.088-.408-1.307-.052-.08-.145-.144-.208-.144-.092 0-.115.04-.115.202 0 .144-.035.224-.138.288-.167.115-.79.247-1.382.293-.398.035-.455.03-.42-.046.12-.328.16-.69.2-1.888l.047-1.354.426-.72c.582-.979 1.215-2.234 1.405-2.792.098-.277.179-.68.208-1.008.04-.45.098-.662.31-1.198.15-.357.358-.985.473-1.4.247-.932.357-1.203.69-1.785.243-.42.37-.552.37-.391Zm.991 1.083c.092.207.282.639.42.956.139.316.42.915.622 1.33.507 1.019.559 1.054 1.78 1.203 1.301.156 1.503.115 2.424-.507.213-.143.386-.23.386-.19 0 .04-.201.265-.443.507-.49.472-.547.536-1.302 1.411l-.512.593-.162-.086c-.328-.167-1.042-.795-1.733-1.515-.386-.403-.685-.685-.662-.622.057.179 1.583 2.477 1.97 2.972.546.702.564.725.736.645.415-.184 1.406-1.025 2.327-1.964l.99-1.013v.431c0 1.118-.362 2.753-.932 4.198-.392.997-1.33 2.672-2.04 3.634-.316.438-1.376 1.647-2.447 2.793-.823.887-1.232 1.4-1.359 1.687-.046.104-.144.496-.219.864-.247 1.192-.593 2.666-.633 2.707-.08.075.035-1.981.15-2.695l.115-.72.392-.576c2.17-3.208 2.263-3.34 3.34-4.705 1.843-2.32 2.297-3.161 2.942-5.419.311-1.082.3-1.209-.057-.587-.57.996-4.164 5.65-5.753 7.457-.651.738-1.578 1.676-1.613 1.636-.017-.018-.063-.334-.098-.703-.052-.633-.005-1.739.116-2.752.074-.6.35-1.809.414-1.809.08 0 .668.427 1.094.79.162.132.334.247.386.247.046 0 .45-.38.887-.852 1.405-1.48 1.728-1.866 1.261-1.469-.875.732-1.07.881-1.284.99-.132.064-.3.122-.368.122-.162 0-.444-.139-.663-.334-.104-.087-.466-.403-.818-.703-.35-.3-.65-.581-.668-.616-.017-.04.012-.167.058-.288.12-.294.495-.939.547-.939.046 0 .893 1.025 1.221 1.48.265.363.587.651.731.651.115 0 .893-.5 1.06-.685.138-.15.092-.15-.184-.012a3.045 3.045 0 0 1-.432.167l-.22.064-.19-.3a13.918 13.918 0 0 1-.506-.939 10.764 10.764 0 0 0-.806-1.295 9.697 9.697 0 0 1-.524-.755c-.035-.103.259-.857.34-.857.028 0 .144.224.253.506.288.714 1.152 2.344 1.152 2.171 0-.11-.438-1.301-.709-1.929-.564-1.319-.892-2.69-1.048-4.423-.046-.518.023-.506.271.047Zm7.331 8.528a70.172 70.172 0 0 1-.749 3.6c-.357 1.49-1.716 5.205-2.712 7.428-.76 1.699-1.146 2.51-1.572 3.276-.513.939-2.154 3.703-2.252 3.801-.132.132-.086-.034.15-.599.288-.68 1.18-3.161 1.532-4.261.293-.91.345-1.048.374-1.02.035.035-.26 1.342-.42 1.878-.081.259-.133.49-.121.507.051.046.892-1.63 1.267-2.517 1.681-4.025 2.217-5.367 2.493-6.23.179-.548.484-1.44.686-1.976.524-1.428 1.007-3.017 1.25-4.135.16-.754.218-.564.074.248Zm-10.568 3.098c0 .058-.99.369-1.785.564-.53.133-2.5.484-2.666.484-.323-.011 1.365-.455 3.184-.835 1.365-.288 1.267-.27 1.267-.213Zm-1.704 2.378c.11.427.472 1.86.812 3.19.334 1.33.789 3.116 1.008 3.974.218.852.633 2.488.921 3.628.288 1.14.708 2.781.927 3.651.225.864.392 1.583.375 1.6-.081.082-.502-1.041-.755-2.026-.075-.288-.236-.91-.363-1.382-.132-.478-.3-1.112-.374-1.411a1806.84 1806.84 0 0 0-1.682-6.306c-1.301-4.843-1.318-4.918-1.243-5.234.109-.444.126-.507.155-.478.011.011.11.368.219.794Zm6.985 2.05c-.478 1.112-.65 1.63-1.14 3.473-.403 1.532-.875 2.862-1.353 3.812-.156.305-.294.438-.23.213.022-.075.155-.748.299-1.491.144-.743.345-1.757.455-2.246.11-.49.3-1.4.432-2.016.132-.616.242-1.128.247-1.134.058-.092 1.745-1.774 1.763-1.762.011.006-.202.524-.473 1.151Zm6.11 1.181c.225 1.227.26 1.664.225 2.85-.046 1.814-.357 3.306-1.083 5.143-.299.766-.8 1.756-.886 1.756-.023 0-.127-.236-.225-.524-.167-.478-.593-1.347-.668-1.347-.017 0-.035.172-.046.391-.04 1.17-.403 2.862-.968 4.561-.483 1.446-.512 1.405-.253-.311.173-1.128.403-3.42.403-3.939l-.006-.27-.178.345c-.098.19-.3.634-.45.979-.15.352-.333.755-.402.893-.139.27-.461.708-.496.673-.011-.011.185-.524.432-1.14.778-1.917 1.175-3.173 2.171-6.876.167-.61.19-.685.22-.656.016.011.068.518.12 1.117.161 1.895.374 4.02.403 4.048.046.052.064.006.242-.765.65-2.73 1.077-5.23 1.204-7.014.023-.306.057-.559.08-.559s.098.294.162.645Zm-6.403 8.206c-.046.12-.139.34-.208.495-.063.15-.351.864-.627 1.584-.507 1.301-1.14 2.718-1.215 2.718-.04 0-.346-1.33-.346-1.52 0-.058.144-.265.322-.455.34-.38 1.192-1.492 1.388-1.826.07-.11.23-.397.369-.633.346-.622.455-.743.317-.363Zm6.507.49a9.039 9.039 0 0 0-.063.593c-.023.218-.087.829-.156 1.353-.063.524-.132 1.48-.15 2.13l-.04 1.18-.138.018-.138.023.04-.742c.023-.404.075-1.164.121-1.688.04-.524.092-1.25.115-1.612.03-.507.075-.755.19-1.054.156-.409.265-.512.22-.202Z"/><path d="M28.892 5.275c-.086.075-.196.12-.242.103-.051-.023-.086 0-.086.052s.046.104.104.116c.08.023 1.457.017 1.583-.012.075-.011.04-.12-.04-.12-.04 0-.15-.059-.242-.128-.242-.195-.858-.201-1.077-.011ZM29.094 5.799c.034.19.737.15.737-.04 0-.035-.173-.058-.38-.058-.328 0-.374.012-.357.098ZM27.844 10.93c.288.771.392.944.76 1.226.484.375.645.467.755.426.051-.017.282-.201.5-.414.363-.34.387-.374.231-.34-.45.098-.645.104-.812.012-.092-.046-.478-.386-.858-.755-.38-.363-.708-.662-.726-.662-.023 0 .047.23.15.507ZM43.653 12.076c0 .12.558.731.875.956 1.319.944 2.718.725 3.651-.559.139-.19.253-.363.253-.386 0-.028-.16.029-.356.121-.404.184-1.48.403-2.01.403-.559 0-2.085-.351-2.264-.524-.069-.063-.15-.069-.15-.011ZM43.71 13.792c-.254.259-.68.414-1.44.53-.512.074-.714.08-1.313.023-.846-.081-1.514-.242-1.808-.438-.121-.08-.23-.144-.248-.144-.092 0 .305.616.565.875.547.547 1.163.795 1.97.795.886 0 1.496-.3 2.02-1.002.271-.351.513-.777.473-.818-.017-.011-.115.07-.219.179ZM19.09 17.788c-.126.058-.391.248-.587.426l-.351.317.265.104c.178.075.414.11.702.11.363 0 .49-.03.778-.168.317-.155.835-.57.835-.668 0-.069-.778-.23-1.1-.23-.179 0-.409.046-.542.11ZM39.333 17.771c-.172.046-.34.11-.362.132-.03.03.075.156.224.283.61.54 1.348.714 1.998.472l.329-.127-.3-.282c-.593-.553-1.117-.685-1.889-.478Z"/></g><defs><clipPath id="a"><path fill="#fff" d="M0 0h59v52H0z"/></clipPath></defs></svg>