<svg width="59" height="52" viewBox="0 0 59 52" fill="none" xmlns="http://www.w3.org/2000/svg">
<g id="photo_2023-07-02_14-57-35 1 1" clip-path="url(#clip0_79_252)">
<path id="Vector" d="M26.7907 0.397342C26.6582 0.69679 26.5373 0.858029 26.2954 1.06534C25.9153 1.38782 25.8232 1.61816 25.9383 1.9464C25.9787 2.06157 26.0305 2.2804 26.0535 2.43588C26.0765 2.5856 26.1802 2.88505 26.2781 3.09812C26.4509 3.45515 26.4624 3.53001 26.4624 4.08859C26.4624 4.76811 26.33 5.37276 26.0305 6.01771C25.7828 6.55904 25.7828 6.55326 26.2263 7.19246C26.4279 7.47466 26.4163 7.5207 25.9787 8.05625C25.6734 8.4421 25.6331 8.57452 25.7714 8.81063C25.8174 8.89127 25.852 8.99492 25.852 9.04096C25.852 9.08705 25.6562 9.24253 25.4143 9.38648C25.1724 9.53047 24.7751 9.80688 24.5332 10.0027C23.5023 10.8262 23.1971 11.6093 23.0358 13.8494C22.9667 14.8168 22.7767 15.9628 22.5175 16.936C22.2929 17.817 22.1835 18.105 21.815 18.8881C21.2391 20.086 20.9684 20.9267 20.7611 22.1705C20.5595 23.3568 20.2658 24.4164 20.1391 24.4164C20.0528 24.4164 19.8685 23.6159 19.8685 23.2416C19.8685 23.017 19.903 22.9192 20.047 22.7349C20.2716 22.4527 20.2888 22.1533 20.1046 21.8884C19.7533 21.3989 19.0162 21.4219 18.6073 21.9345C18.2272 22.4182 18.279 22.8385 18.7512 23.1092C18.9125 23.2013 19.0737 23.328 19.1083 23.3856C19.1831 23.5008 19.5805 25.1362 19.5805 25.3147C19.5805 25.3781 19.4884 25.5508 19.379 25.7121C19.1659 26.0057 19.0046 26.4492 19.0046 26.7313C19.0046 27.002 19.2177 27.5491 19.4999 28.0155C19.6496 28.2631 19.7475 28.4762 19.7187 28.505C19.6439 28.5741 18.6936 28.8448 18.3596 28.8851C18.1408 28.9139 18.0602 28.9023 17.968 28.8217C17.9047 28.7641 17.8183 28.7353 17.7607 28.7584C17.6455 28.8044 17.6628 28.9714 17.8874 29.7258C18.0544 30.3189 18.1581 30.4283 18.2444 30.1059C18.3366 29.7373 18.6994 29.6049 19.6439 29.5991H20.1967L20.2888 29.9273C20.3407 30.1116 20.4213 30.4571 20.4731 30.6933C20.525 30.9293 20.7669 31.8392 21.0203 32.7087C21.2679 33.5783 21.671 35.0813 21.9129 36.0487C22.1547 37.0162 22.4542 38.1564 22.5752 38.5825C22.6961 39.0086 22.9092 39.8149 23.0416 40.3677C23.1741 40.9205 23.3814 41.7382 23.5081 42.1758C23.629 42.6193 23.8824 43.5923 24.0725 44.3412C24.5332 46.1725 24.8269 46.9266 25.3164 47.5429L25.5064 47.7847L23.2662 47.8249L21.0203 47.8655V48.4356V49.0057H20.3695H19.713L19.6439 48.7638C19.4308 48.0439 19.0046 47.5083 18.3251 47.111C17.7434 46.7655 17.7146 46.7711 17.6686 47.2202C17.5937 47.9 17.7089 48.712 17.9392 49.1784C18.0832 49.4549 18.4057 49.8233 18.6879 50.0306C18.9298 50.2033 18.7743 50.1917 18.1465 49.9844C17.3173 49.714 17.0351 49.5814 17.0754 49.4721C17.1675 49.2475 17.2251 48.5967 17.1906 48.1993C17.0927 47.0648 16.845 46.5871 16.0158 45.9362C15.8257 45.7864 15.6587 45.6887 15.6357 45.7233C15.555 45.8555 15.4226 46.397 15.3765 46.7944C15.2844 47.6409 15.4686 48.2974 15.9582 48.8558C16.0849 48.9996 16.1655 49.1206 16.1367 49.1206C16.0676 49.1206 15.388 48.7405 14.8697 48.4123C14.5588 48.2166 14.5069 48.1648 14.5415 48.0611C14.7891 47.3127 14.864 46.8808 14.8467 46.299C14.8294 45.7518 14.8121 45.6542 14.6451 45.3199C14.4378 44.8997 13.9483 44.2661 13.8159 44.2376C13.7007 44.2143 13.4127 44.8422 13.2745 45.4179C13.119 46.0571 13.1651 46.5927 13.43 47.0993C13.5452 47.3239 13.6143 47.5083 13.5913 47.5083C13.5336 47.5083 12.5259 46.6674 12.3358 46.4601L12.2033 46.3107L12.3761 46.0399C12.5719 45.7345 12.808 45.0552 12.8887 44.5714C12.9866 44.0303 12.8484 43.4196 12.5259 42.8727C12.1919 42.3198 12.1976 42.3198 11.9327 42.7057C11.2474 43.7249 11.0919 44.4622 11.4029 45.2741C11.4662 45.4408 11.5065 45.5851 11.4893 45.5963C11.4547 45.6369 10.7579 44.8478 10.3202 44.2777C10.2626 44.197 10.2856 44.1395 10.4815 43.9033C11.2762 42.9533 11.5238 41.9282 11.1955 40.9551C10.9882 40.3216 10.9421 40.2928 10.6484 40.5692C10.0726 41.1278 9.62337 41.9916 9.61762 42.5386C9.61762 42.6711 9.64639 42.913 9.68094 43.0742C9.71549 43.2356 9.73277 43.385 9.71549 43.3967C9.68094 43.4312 9.17417 42.6193 8.91502 42.1183L8.73072 41.767L9.16264 41.3409C10.0956 40.4195 10.3778 39.6824 10.1878 38.6113C10.1532 38.4213 10.1071 38.2255 10.0841 38.1852C9.96316 37.9951 8.892 38.9511 8.60978 39.5039C8.47157 39.7688 8.43702 39.9185 8.40825 40.4253C8.37944 40.932 8.36217 41.0069 8.31034 40.886C8.13182 40.4828 7.97633 40.0567 7.82659 39.5903C7.68837 39.1526 7.6711 39.0605 7.74595 39.0144C7.78629 38.9798 7.97055 38.8647 8.1491 38.7552C8.33336 38.6459 8.6674 38.3579 8.89774 38.116C9.42179 37.569 9.56579 37.2292 9.60609 36.4691C9.64064 35.7493 9.6349 35.732 9.29511 35.8817C8.90349 36.043 8.27578 36.4748 8.06272 36.7225C7.80357 37.0162 7.61352 37.4538 7.56744 37.8512C7.54442 38.0297 7.50986 38.1967 7.4868 38.2082C7.40041 38.26 7.04339 36.4115 7.10671 36.2503C7.12399 36.2042 7.17582 36.1639 7.22765 36.1639C7.40041 36.1639 8.16059 35.7608 8.51191 35.4901C9.11081 35.0237 9.40451 34.4881 9.48515 33.7338C9.52545 33.3365 9.50817 33.3249 8.892 33.538C7.88995 33.8777 7.41769 34.3269 7.16433 35.1677C7.11824 35.3347 7.04914 35.4729 7.02033 35.4729C6.95701 35.4729 6.95122 33.3998 7.01458 33.3076C7.0376 33.2731 7.18735 33.2213 7.34284 33.1982C8.28731 33.06 9.19145 32.513 9.51396 31.8795C9.64064 31.6376 9.84796 31.0618 9.84796 30.9639C9.84796 30.866 9.05898 30.9697 8.59251 31.1309C7.9245 31.3555 7.59625 31.6376 7.28526 32.2481C7.19309 32.4208 7.1125 32.536 7.10097 32.4957C7.07794 32.4266 7.24492 31.367 7.38893 30.6645L7.46378 30.3189L7.94178 30.3074C8.4831 30.2901 9.17992 30.1174 9.53698 29.9101C9.66945 29.8352 9.89405 29.6452 10.0323 29.4897C10.3144 29.1787 10.6484 28.5914 10.5793 28.528C10.5563 28.505 10.2741 28.4877 9.95162 28.4877C8.97838 28.482 8.40246 28.7238 7.9648 29.3169C7.84386 29.4724 7.72867 29.5991 7.70565 29.5991C7.65956 29.5991 8.02238 28.5223 8.28731 27.8773C8.38519 27.6469 8.47736 27.503 8.51766 27.5145C9.61762 27.7564 10.5793 27.5951 11.2013 27.0481C11.5123 26.7774 11.783 26.3858 11.7081 26.311C11.6217 26.2246 10.8903 26.0864 10.5045 26.0864C10.3144 26.0864 10.0265 26.1267 9.8595 26.1728C9.57728 26.2591 9.03596 26.6277 8.88047 26.8465C8.84017 26.9041 8.78255 26.9502 8.748 26.9502C8.67889 26.9502 9.0014 26.3052 9.47941 25.5048C9.77886 24.998 9.87677 24.8771 9.95162 24.9059C10.5793 25.1708 11.2935 25.309 11.7714 25.2687C11.9327 25.2571 12.2091 25.1765 12.3819 25.0959C12.7389 24.9347 13.3782 24.4337 13.3321 24.3588C13.2688 24.2609 12.6295 24.0018 12.2379 23.9154C11.5814 23.7772 11.0804 23.8924 10.4699 24.3358C10.3087 24.4452 10.1705 24.5258 10.1532 24.5143C10.1186 24.474 10.8903 23.5065 11.3626 23.0056C11.6966 22.6485 11.7484 22.6082 11.8463 22.6773C12.1055 22.8616 12.8196 23.161 13.1881 23.2416C13.7525 23.3683 14.1211 23.3165 14.7085 23.017C14.9619 22.8846 15.1749 22.7406 15.1749 22.6946C15.1749 22.5967 14.5415 22.2109 14.1268 22.0554C13.6891 21.8941 13.1766 21.8999 12.6871 22.0842C12.4683 22.1705 12.2724 22.2569 12.2437 22.2857C12.1285 22.4009 12.0824 22.3375 12.1861 22.2224C12.3243 22.0611 13.1708 21.3528 13.6373 20.9958L14.0001 20.7194L14.2132 20.9094C14.7834 21.4104 15.5608 21.7674 16.0906 21.7674C16.4938 21.7674 17.277 21.5198 17.277 21.3874C17.277 21.2664 16.5859 20.6791 16.2461 20.5178C15.8372 20.322 15.3535 20.2817 14.8812 20.4084C14.4724 20.5121 14.3745 20.5236 14.4206 20.4487C14.4608 20.3854 15.82 19.585 16.1885 19.4064L16.4592 19.274L16.943 19.7692C17.6801 20.5236 18.3251 20.777 19.1486 20.6215C19.3329 20.587 19.5114 20.5351 19.5402 20.5063C19.6036 20.443 19.2235 19.9189 18.901 19.6253C18.4402 19.2106 18.256 19.1473 17.467 19.1473C17.0812 19.1473 16.7817 19.13 16.8047 19.1127C16.8278 19.0954 17.0869 18.9803 17.3864 18.8536C17.6859 18.7327 17.8989 18.6233 17.8701 18.6175C17.8413 18.606 17.6916 18.6521 17.5361 18.7154C17.2078 18.8536 17.133 18.8248 17.3691 18.6463C18.0602 18.1223 18.3251 17.4773 18.2329 16.5732C18.1753 16.0664 18.1408 16.0204 17.8989 16.1356C17.5995 16.2738 17.1445 16.7172 17.0005 17.0051C16.8105 17.3851 16.6895 18.0359 16.7068 18.5657L16.7241 19.0149L15.9236 19.4295C15.4802 19.6598 15.0252 19.9017 14.9158 19.9708C14.6048 20.1665 14.6048 20.1262 14.9043 19.7577C15.2901 19.274 15.3995 18.94 15.3592 18.3526C15.3304 17.9034 15.1289 17.1606 15.0367 17.1606C14.9273 17.1606 14.2708 17.9265 14.1614 18.1798C13.9886 18.5657 13.9483 19.4122 14.075 19.942C14.1268 20.1608 14.1671 20.3566 14.1671 20.3854C14.1671 20.4142 13.9944 20.5581 13.7813 20.7136C13.5625 20.8634 13.1708 21.1628 12.9002 21.3758C12.6295 21.5889 12.3992 21.7674 12.3761 21.7674C12.3588 21.7674 12.4337 21.5889 12.5374 21.3758C12.8771 20.6963 12.8541 20.1378 12.451 19.3028C12.307 19.0149 12.2149 18.8881 12.1573 18.8997C12.0248 18.9227 11.5929 19.5964 11.4893 19.9362C11.328 20.4833 11.4144 21.1973 11.7311 21.8999L11.8866 22.2454L11.5411 22.5449C11.3568 22.7119 11.0228 23.0574 10.8039 23.3165C10.5851 23.5699 10.3951 23.7714 10.3778 23.7599C10.3663 23.7426 10.3951 23.6102 10.4469 23.4605C10.683 22.7637 10.4354 21.9172 9.76732 21.1628C9.64064 21.0188 9.60609 21.0016 9.55426 21.0764C9.30085 21.4565 9.09932 22.0611 9.09932 22.4527C9.09932 22.9365 9.39302 23.7369 9.7443 24.2436L9.88826 24.4394L9.49669 25.0326C9.28358 25.3551 9.02443 25.7754 8.92077 25.9712C8.81136 26.1612 8.7077 26.3167 8.69042 26.3167C8.6674 26.3167 8.67889 26.2073 8.7077 26.0691C8.85745 25.4126 8.58676 24.7159 7.91872 24.0363C7.57318 23.6793 7.46952 23.6044 7.42922 23.6678C7.29675 23.8808 7.17582 24.4222 7.17582 24.8541C7.17007 25.2917 7.18735 25.3493 7.41769 25.8215C7.57897 26.1382 7.79203 26.4549 8.0051 26.6795L8.34489 27.0423L8.03965 27.7621C7.86689 28.1537 7.68263 28.6259 7.62501 28.8044C7.56744 28.9887 7.50407 29.1384 7.48105 29.1384C7.46378 29.1384 7.42922 28.9253 7.41769 28.6605C7.37739 27.8946 7.04913 27.4051 6.19683 26.8465C5.74185 26.5471 5.73036 26.5586 5.667 27.1172C5.61517 27.6239 5.72457 28.194 5.94343 28.5453C6.2256 28.9887 6.58841 29.3918 6.93394 29.6279C7.1125 29.7488 7.25646 29.8755 7.25646 29.9101C7.25646 29.9446 7.19309 30.221 7.11824 30.5205C7.04339 30.8199 6.94547 31.2691 6.90518 31.511C6.86484 31.7586 6.80726 31.9601 6.78424 31.9601C6.76118 31.9601 6.73815 31.9141 6.73815 31.8565C6.73815 31.7989 6.68058 31.5858 6.61147 31.3785C6.43871 30.866 6.001 30.4283 5.34448 30.1232C4.59584 29.7719 4.60737 29.7719 4.60737 30.1001C4.60737 30.7911 4.82618 31.4073 5.22355 31.8507C5.47695 32.1271 6.02406 32.5302 6.40415 32.7145L6.67479 32.8469L6.64024 33.8547C6.62296 34.4133 6.59994 34.874 6.5942 34.8855C6.58266 34.897 6.51356 34.7646 6.43871 34.5976C6.26594 34.2233 6.05283 33.9641 5.7361 33.7511C5.45968 33.561 4.81469 33.3192 4.37699 33.2385L4.07178 33.181L4.10633 33.4516C4.14664 33.7914 4.33095 34.2808 4.54401 34.6206C4.82618 35.064 5.67853 35.6053 6.38109 35.7838C6.61722 35.8472 6.65177 35.876 6.66905 36.0257C6.67479 36.1178 6.73815 36.5382 6.80152 36.9586C6.86484 37.3847 6.91092 37.7418 6.89364 37.7533C6.87637 37.7705 6.81301 37.6957 6.7439 37.5805C6.34653 36.9413 5.54032 36.567 4.53248 36.567C4.00843 36.567 4.01419 36.5382 4.34822 37.235C4.75708 38.0757 5.48849 38.5365 6.7036 38.7207L7.16433 38.7898L7.23343 39.0144C7.26799 39.1411 7.38892 39.5154 7.49258 39.8494C7.60199 40.1834 7.69412 40.4944 7.70565 40.5404C7.72293 40.5865 7.59625 40.5001 7.43497 40.3504C7.27373 40.1949 6.99156 40.0049 6.80726 39.9185C6.50202 39.7745 6.42717 39.763 5.73036 39.763C5.28117 39.7688 4.91835 39.7976 4.82044 39.8379L4.66495 39.907L4.87801 40.2582C5.45393 41.1854 6.24866 41.5712 7.57318 41.577H8.15485L8.36791 42.0089C8.4831 42.2507 8.68468 42.6135 8.81136 42.8208C8.93804 43.0281 9.0417 43.2239 9.0417 43.2529C9.0417 43.2874 8.94383 43.2295 8.82864 43.1375C8.32187 42.7345 7.71139 42.602 6.9282 42.7287C6.39836 42.8093 5.87432 42.9936 5.87432 43.0972C5.87432 43.2123 6.43292 43.7539 6.79573 43.9897C7.23918 44.2777 7.70565 44.3697 8.48885 44.324C8.81136 44.3067 9.19719 44.2488 9.34694 44.203L9.62337 44.1223L9.89405 44.4678C10.0438 44.6634 10.3144 45.0033 10.4987 45.2223C10.683 45.4408 10.8212 45.6309 10.8097 45.6425C10.7982 45.6598 10.6369 45.5963 10.4526 45.516C10.0438 45.326 9.47362 45.2741 8.97838 45.3778C8.5983 45.4581 7.57318 45.9418 7.57318 46.0399C7.57897 46.1379 8.39672 46.6907 8.74225 46.8229C9.34694 47.0535 10.2914 46.9672 11.184 46.5927L11.5814 46.4256L12.0939 46.9037C12.3761 47.1684 12.7044 47.4565 12.8138 47.5429C12.929 47.6292 13.0096 47.71 12.9981 47.7212C12.9866 47.7329 12.8253 47.704 12.6353 47.6521C11.9845 47.4854 11.4374 47.5601 10.7809 47.9113C10.4124 48.1073 9.79039 48.5738 9.79039 48.6541C9.79039 48.7349 10.1359 48.9366 10.5506 49.0977C11.0401 49.2933 11.6563 49.3395 12.1458 49.2069C12.6295 49.086 13.1881 48.8269 13.5394 48.5738C13.6949 48.4641 13.8331 48.3721 13.8504 48.3721C13.8677 48.3721 14.1096 48.522 14.386 48.706C14.6624 48.8904 14.9964 49.1033 15.1346 49.1784C15.2671 49.2532 15.3765 49.3279 15.3765 49.3452C15.3765 49.3624 15.1231 49.3797 14.8121 49.3797C14.2765 49.3797 14.2363 49.3914 13.8274 49.6043C13.5222 49.7598 13.263 49.9615 12.9175 50.307C12.6468 50.5717 12.4395 50.8253 12.451 50.8654C12.4625 50.9 12.6525 50.998 12.8771 51.0727C13.1939 51.188 13.3954 51.217 13.8504 51.217C14.3629 51.2226 14.4666 51.2053 14.7949 51.0555C15.2901 50.8425 15.6818 50.589 16.0733 50.2262C16.2519 50.0595 16.4189 49.9269 16.4477 49.9269C16.4707 49.9269 16.845 50.0651 17.2712 50.2379C17.7031 50.4106 18.3078 50.6236 18.6188 50.7099L19.1774 50.8715V51.4355V52H30.0329H40.8827L40.9 51.3837L40.9173 50.7618L41.4874 50.5778C41.8042 50.4741 42.3167 50.2841 42.6334 50.1515C43.0135 49.9904 43.2322 49.9269 43.2784 49.9615C43.3186 49.9904 43.5259 50.1632 43.7393 50.3415C43.9522 50.5199 44.3725 50.7963 44.6722 50.9462L45.219 51.2226H45.8064C46.2617 51.2226 46.4802 51.188 46.8085 51.0844C47.0391 51.0097 47.2404 50.9233 47.2577 50.8944C47.275 50.8654 47.0504 50.6007 46.7567 50.3126C46.3653 49.9269 46.1062 49.7252 45.8125 49.5814C45.4324 49.3914 45.3745 49.3797 44.8506 49.3797C44.3094 49.3797 44.1595 49.3395 44.3958 49.2648C44.4589 49.2476 44.7988 49.0402 45.156 48.804C45.5127 48.5677 45.8181 48.3721 45.8298 48.3721C45.841 48.3721 45.9334 48.4356 46.031 48.5103C46.3018 48.7176 46.964 49.0342 47.4192 49.1724C47.9142 49.3223 48.4269 49.3279 48.899 49.1784C49.3024 49.0515 49.8725 48.7466 49.8725 48.6602C49.8725 48.5738 49.2562 48.1073 48.8817 47.9113C48.2252 47.5601 47.6494 47.4794 47.0564 47.6582C46.8893 47.704 46.7281 47.7385 46.6992 47.7273C46.6703 47.7156 46.7973 47.5891 46.9813 47.4392C47.1601 47.2893 47.4883 47.0017 47.7129 46.8L48.1103 46.4316L48.404 46.5638C49.1123 46.8747 49.9934 47.0302 50.5057 46.9326C50.9203 46.8518 51.4386 46.6044 51.8248 46.299C52.1876 46.0109 52.1815 46.0053 51.5596 45.7C50.7074 45.2741 49.8954 45.2106 49.216 45.516C49.0316 45.5963 48.8705 45.6654 48.8532 45.6654C48.8415 45.6654 49.0488 45.4007 49.308 45.078C49.5728 44.7498 49.838 44.4103 49.9071 44.3179L50.028 44.1512L50.5346 44.2549C50.9031 44.324 51.2201 44.3469 51.6576 44.3296C52.4696 44.295 52.8553 44.1223 53.4488 43.5293C53.8462 43.1375 53.8634 43.1145 53.7537 43.0339C53.5753 42.9014 52.9305 42.7287 52.4813 42.6884C51.8822 42.6365 51.433 42.7517 50.9838 43.0569C50.7821 43.1894 50.621 43.293 50.621 43.2757C50.621 43.2585 50.7536 43.0224 50.9091 42.7459C51.0702 42.4695 51.2659 42.0953 51.3523 41.911L51.5078 41.577H52.1185C52.8152 41.577 53.4833 41.4388 53.869 41.2084C54.0016 41.1336 54.2375 40.932 54.399 40.7592C54.6811 40.4598 55.0382 39.9243 54.9864 39.8782C54.9285 39.8149 54.3239 39.7342 53.9554 39.7342C53.1836 39.7342 52.7461 39.8897 52.245 40.3389C52.0779 40.4886 51.9457 40.598 51.9457 40.5807C51.9457 40.5692 51.9859 40.4598 52.0321 40.3389C52.0839 40.2237 52.2105 39.8263 52.3141 39.4578L52.5098 38.7898L52.9996 38.715C53.9844 38.5767 54.7847 38.1449 55.1648 37.5575C55.3432 37.2811 55.5738 36.7513 55.5738 36.6246C55.5738 36.544 54.8076 36.5497 54.4046 36.6303C53.7252 36.7685 53.2644 37.0968 52.8208 37.7533C52.7577 37.8512 52.7517 37.8339 52.7806 37.6323C52.8035 37.5056 52.8614 37.0565 52.9132 36.6361L53.0108 35.8645L53.4142 35.7378C54.272 35.4671 54.9519 34.9834 55.2456 34.4478C55.4067 34.1542 55.6542 33.3076 55.6023 33.227C55.5678 33.1752 55.1475 33.2558 54.6694 33.4056C53.9727 33.6301 53.3909 34.1311 53.2009 34.6667C53.1724 34.7645 53.1261 34.8394 53.1033 34.8394C53.0743 34.8394 53.0514 34.5342 53.0454 34.1599C53.0398 33.7914 53.0225 33.3422 53.0052 33.1694L52.9707 32.8527L53.4255 32.6224C53.7425 32.4611 54.0016 32.2711 54.3126 31.9601C54.8594 31.4188 55.0093 31.0848 55.021 30.3477C55.0266 29.7661 55.0439 29.7719 54.3239 30.1232C53.5581 30.4917 53.1205 30.9984 52.9763 31.6722C52.9132 31.9717 52.8096 32.012 52.8096 31.7413C52.8096 31.6549 52.7171 31.2 52.6078 30.722C52.4295 29.9562 52.4178 29.8582 52.4986 29.8122C52.7288 29.6797 53.2069 29.2421 53.46 28.9369C53.9209 28.361 53.99 28.171 53.99 27.4396C53.99 27.0884 53.9727 26.7601 53.9498 26.7026C53.9092 26.6047 53.8863 26.6104 53.6099 26.7544C53.4488 26.8465 53.1551 27.0654 52.9534 27.2496C52.4925 27.6757 52.2852 28.0674 52.2507 28.6029C52.2105 29.1903 52.1759 29.2075 52.0261 28.7468C51.9513 28.5107 51.7729 28.0558 51.6287 27.7276C51.3466 27.0884 51.3238 26.979 51.4503 26.9099C51.6114 26.8177 52.1185 26.1382 52.3025 25.7524C52.4753 25.4011 52.4925 25.3205 52.4925 24.8483C52.4925 24.307 52.337 23.6678 52.2105 23.6678C52.1068 23.6678 51.5367 24.2379 51.3177 24.5488C51.0301 24.9692 50.9493 25.2629 50.9722 25.8215C50.9838 26.0864 50.9782 26.2937 50.9549 26.2822C50.9376 26.2707 50.8283 26.0979 50.7191 25.8963C50.6037 25.7006 50.3563 25.2917 50.1602 24.9923C49.838 24.5085 49.809 24.4394 49.8781 24.33C50.4193 23.4835 50.5346 23.1552 50.5346 22.4297C50.5346 21.9517 50.5174 21.8768 50.3217 21.4622C50.2064 21.2204 50.0854 21.0188 50.0565 21.0188C49.9935 21.0188 49.5153 21.6811 49.3715 21.969C49.308 22.0957 49.2216 22.3318 49.1814 22.4988C49.1007 22.804 49.1063 22.8443 49.2734 23.639C49.308 23.806 49.3024 23.806 49.089 23.5526C48.9681 23.4086 48.6342 23.0516 48.3405 22.7579L47.8105 22.2166L47.9487 21.9229C48.1505 21.4795 48.277 20.8518 48.2485 20.3681C48.2252 19.8844 48.0412 19.4468 47.6956 19.0609L47.4767 18.8133L47.2983 19.1531C47.1022 19.5273 46.964 19.942 46.9065 20.3105C46.8603 20.6042 46.9985 21.1801 47.1946 21.5198C47.275 21.6523 47.3384 21.7732 47.3384 21.7905C47.3384 21.8077 47.1311 21.658 46.8776 21.4507C46.6245 21.2492 46.2098 20.9325 45.9563 20.7597C45.7028 20.5812 45.4955 20.4199 45.4955 20.4027C45.4955 20.3854 45.5361 20.2126 45.5879 20.0168C45.6509 19.7635 45.6743 19.487 45.657 19.0321C45.6397 18.4793 45.6164 18.3584 45.4782 18.0992C45.3115 17.7767 44.718 17.1375 44.6316 17.1894C44.5452 17.2412 44.3496 17.9265 44.3094 18.318C44.2576 18.8363 44.3841 19.2452 44.7469 19.7232C45.035 20.1032 45.0523 20.1723 44.8104 19.9996C44.7353 19.9477 44.2861 19.7059 43.814 19.464L42.9559 19.0206L42.9386 18.3066C42.9214 17.437 42.8062 17.0857 42.3858 16.625C42.1209 16.3371 41.6256 16.0031 41.5565 16.0722C41.5392 16.0895 41.4989 16.291 41.4644 16.5214C41.3204 17.4255 41.5853 18.0877 42.2994 18.6348C42.4146 18.7212 42.4952 18.796 42.4837 18.8075C42.4722 18.819 42.3167 18.773 42.1324 18.7096C41.591 18.5139 41.712 18.6175 42.3052 18.8594C42.6046 18.9803 42.8638 19.1012 42.8811 19.1243C42.8926 19.1473 42.6737 19.1531 42.3916 19.1358C41.7696 19.0954 41.4298 19.1703 41.0209 19.4352C40.6869 19.6541 40.0361 20.4199 40.1168 20.4948C40.1916 20.5697 40.7387 20.6733 41.0267 20.6733C41.6659 20.6733 42.4894 20.1781 43.0308 19.464L43.1863 19.2682L43.5432 19.4352C43.7449 19.5331 44.1651 19.7635 44.4822 19.9535C45.5071 20.5697 45.5244 20.5927 44.908 20.4315C44.3034 20.2702 43.8369 20.3105 43.3592 20.5639C42.9386 20.7885 42.3455 21.3125 42.403 21.4104C42.4722 21.5141 43.0654 21.7099 43.4222 21.7502C44.0097 21.8077 44.9141 21.4392 45.4497 20.9209L45.6626 20.7136L46.0889 21.0361C46.6357 21.4449 47.6322 22.2972 47.6032 22.326C47.592 22.3433 47.4823 22.303 47.3557 22.2396C46.4284 21.7732 45.5818 21.8596 44.7007 22.5103L44.4532 22.6946L44.5914 22.8097C44.845 23.0056 45.4436 23.2589 45.7607 23.2992C46.2789 23.3626 47.2521 23.0689 47.8166 22.6773C47.9142 22.6082 47.9721 22.6543 48.3694 23.0747C48.8588 23.5814 49.6134 24.5316 49.5326 24.5316C49.5037 24.5316 49.3136 24.4164 49.1007 24.2724C48.6053 23.9384 48.1794 23.8175 47.7358 23.8636C47.2693 23.9212 46.3593 24.2494 46.3593 24.3646C46.3593 24.4452 46.9411 24.9289 47.1886 25.0441C47.6322 25.2629 48.0239 25.3147 48.588 25.2283C48.8705 25.188 49.2505 25.0959 49.4406 25.0153L49.7861 24.8771L49.8837 25.0095C50.0911 25.2802 50.9666 26.8292 50.9666 26.9271C50.9666 26.9444 50.8167 26.835 50.6383 26.6738C50.0565 26.1728 49.8898 26.1152 49.1236 26.1209C48.4731 26.1267 47.9721 26.2246 47.9315 26.3513C47.8969 26.4549 48.4213 27.0481 48.7089 27.2381C49.1123 27.503 49.527 27.6066 50.1891 27.6066C50.5057 27.6066 50.8629 27.5778 50.9838 27.5433L51.1968 27.4742L51.335 27.7449C51.5138 28.0961 52.0148 29.5473 51.9742 29.5876C51.9569 29.6049 51.8995 29.5588 51.8477 29.4782C51.6114 29.1442 51.2775 28.8448 50.9895 28.7066C50.6327 28.5395 49.9645 28.4359 49.5153 28.482C49.0372 28.5338 49.0432 28.5223 49.216 28.862C49.6881 29.8007 50.3848 30.2153 51.5941 30.2844L52.1988 30.3189L52.245 30.4917C52.3314 30.7796 52.5733 32.2077 52.5789 32.4093C52.5789 32.5936 52.5677 32.5821 52.3833 32.2308C52.2796 32.0292 52.1068 31.7644 51.9975 31.6492C51.7496 31.3728 51.1968 31.1136 50.6439 31.01C50.2409 30.9293 49.8146 30.8948 49.8146 30.9409C49.8146 31.0157 50.0565 31.6376 50.1774 31.8795C50.4711 32.4611 51.214 32.9506 52.0895 33.1406C52.3431 33.1982 52.585 33.2501 52.6251 33.2616C52.677 33.2788 52.6942 33.5495 52.6942 34.3787C52.6942 34.9776 52.6713 35.4729 52.6424 35.4729C52.6135 35.4729 52.5616 35.3519 52.5271 35.208C52.3543 34.5285 51.9457 34.0505 51.243 33.7165C50.8227 33.515 50.2466 33.3537 50.1774 33.417C50.12 33.4747 50.2526 34.1426 50.3964 34.5227C50.5865 35.0295 51.1164 35.542 51.8248 35.8933C52.1185 36.043 52.4122 36.1639 52.4753 36.1639C52.585 36.1639 52.5906 36.1869 52.5616 36.5209C52.5215 36.9471 52.3025 38.0527 52.2394 38.1737C52.2049 38.2255 52.1643 38.116 52.1241 37.8569C52.0839 37.6381 51.9915 37.3271 51.9112 37.1601C51.7211 36.7628 51.2028 36.3021 50.6094 35.9969C50.1774 35.7723 50.1317 35.7608 50.0971 35.8587C49.9701 36.1754 50.0911 37.0622 50.3157 37.5172C50.5057 37.8915 51.1912 38.571 51.6175 38.8129C51.8015 38.9165 51.9686 39.0374 51.9859 39.0835C52.0261 39.1929 51.3812 41.0011 51.2948 41.0011C51.2892 41.0011 51.2775 40.7535 51.2775 40.4541C51.2719 39.9646 51.2486 39.8667 51.0931 39.5442C50.9838 39.3253 50.7765 39.0489 50.5748 38.8532C50.2582 38.5364 49.7226 38.1218 49.6362 38.1218C49.5788 38.1218 49.4751 38.571 49.4345 39.0259C49.406 39.3542 49.4233 39.5096 49.5209 39.8379C49.7054 40.4483 50.2755 41.2257 50.8167 41.6115L50.9838 41.7325L50.6901 42.2565C50.3044 42.936 49.9818 43.4368 49.9529 43.4023C49.9416 43.3911 49.9589 43.2412 49.9934 43.0742C50.1027 42.5502 50.0392 42.0607 49.7861 41.5827C49.5326 41.099 48.8242 40.3043 48.7262 40.3964C48.5996 40.5232 48.3634 41.2775 48.3349 41.6634C48.2831 42.3256 48.5996 43.1721 49.1581 43.8515C49.406 44.1624 49.4173 44.1797 49.3309 44.3123C49.1814 44.5369 48.2541 45.608 48.2079 45.608C48.185 45.608 48.2252 45.4352 48.2943 45.2223C48.5478 44.4851 48.4213 43.7884 47.8857 42.9302C47.5112 42.3313 47.5056 42.3256 47.281 42.6711C46.6245 43.6904 46.6072 44.5831 47.2059 45.8326L47.465 46.3681L47.1311 46.6674C46.6474 47.0993 46.1291 47.5083 46.0656 47.5083C46.0371 47.5083 46.0772 47.4103 46.152 47.2954C46.6301 46.5754 46.6072 45.6253 46.0889 44.5369C46.0081 44.3641 45.9161 44.2259 45.8872 44.2259C45.7607 44.2259 45.2652 44.8595 45.029 45.3199C44.8333 45.6887 44.8333 45.706 44.8389 46.4143C44.845 46.99 44.8735 47.2146 44.9715 47.5373C45.1905 48.2222 45.2251 48.1648 44.3725 48.6714C43.9639 48.9193 43.5894 49.1206 43.5492 49.1206C43.503 49.1206 43.5838 48.9884 43.7276 48.8329C44.2403 48.2628 44.4187 47.6064 44.2977 46.7426C44.2286 46.2472 44.1479 45.9246 44.0615 45.7807C43.9811 45.6598 43.7967 45.7751 43.3419 46.2182C42.6737 46.8691 42.4664 47.4794 42.5182 48.6429C42.5355 49.0169 42.5643 49.3797 42.5873 49.4488C42.6219 49.5585 42.5931 49.587 42.4088 49.6678C41.9481 49.8578 40.9921 50.1632 40.9576 50.1342C40.9403 50.1113 41.0727 49.9671 41.2513 49.806C41.8329 49.2877 42.0863 48.5159 42.023 47.4392C42.0057 47.1226 41.9769 46.8518 41.9654 46.8346C41.9078 46.7771 41.1073 47.2436 40.8194 47.5027C40.4566 47.8309 40.2377 48.1592 40.0822 48.6368L39.9555 49.0057H39.5006H39.0456V48.4295V47.8538H36.8918C35.5787 47.8538 34.7207 47.8309 34.6976 47.7964C34.6804 47.7674 34.6919 47.4509 34.7264 47.0937C34.9165 45.107 35.2102 42.4868 35.3599 41.4042C35.4693 40.6498 35.5327 39.9415 35.5269 39.5903C35.5269 39.1066 35.5557 38.8877 35.7342 38.2082C36.0222 37.1026 36.051 36.59 35.861 35.876C35.6824 35.2195 35.4463 34.062 35.3599 33.4286C35.3254 33.1752 35.2563 32.7548 35.2044 32.4899C35.1238 32.058 35.1238 31.9947 35.2044 31.7989C35.5442 31.01 35.5096 30.6529 34.8819 28.3841C34.7495 27.9061 34.6458 27.359 34.5882 26.8004C34.5364 26.3282 34.4673 25.7351 34.4385 25.4817C34.4097 25.2283 34.3579 24.7734 34.3233 24.474C34.2945 24.1745 34.2369 23.7657 34.1966 23.5699C34.139 23.2704 34.1448 23.161 34.2312 22.8501C34.4097 22.1936 34.3752 21.9172 34.0411 21.2146C33.8741 20.8749 33.6956 20.4257 33.638 20.2126C33.5804 20.0053 33.4768 19.7232 33.4134 19.5964C33.2118 19.1991 33.1024 17.9265 33.2291 17.3794C33.2579 17.2412 33.3097 16.5847 33.3443 15.9225C33.4192 14.4828 33.4998 14.0452 33.8338 13.2908C34.2657 12.3119 34.6976 11.7418 35.3254 11.3329C35.8494 10.9931 37.1797 10.59 38.153 10.4806C38.4697 10.4461 38.9132 10.3712 39.132 10.3079C39.3566 10.2503 39.5985 10.1927 39.6791 10.1812C39.8576 10.1581 39.8519 10.1754 39.5927 11.0277C39.4833 11.3732 39.3566 11.8569 39.3048 12.093C39.2529 12.3291 39.1377 12.6919 39.0456 12.8992C38.9362 13.1468 38.8901 13.3253 38.9132 13.4348C39.0168 13.9415 40.1801 14.264 41.7638 14.2122C42.6853 14.1776 43.1863 14.0567 43.5548 13.7803C43.9984 13.4405 43.9695 13.0489 43.4222 11.9491C43.0481 11.1889 42.2706 8.93731 42.2706 8.60332C42.2706 8.49393 42.3225 8.30964 42.38 8.18871C42.4376 8.07352 42.5816 7.67618 42.6968 7.31339C42.8119 6.94485 42.9386 6.60508 42.9732 6.55326C43.0365 6.47841 44.5107 5.75857 44.6031 5.75857C44.6143 5.75857 44.8217 5.64343 45.0635 5.50522C45.2998 5.36123 45.5071 5.26336 45.5188 5.28638C45.53 5.3094 45.346 6.02924 45.0981 6.88149C44.8562 7.73954 44.4878 9.02369 44.2861 9.74927C43.9177 11.0507 43.912 11.0622 43.6987 11.2004C43.313 11.4596 43.4568 11.7821 44.0788 12.07C44.5914 12.3061 45.1499 12.3982 46.0427 12.3925C47.4823 12.3867 48.4213 12.093 48.5707 11.5978C48.6169 11.4538 48.3867 11.1429 48.2023 11.0853C48.1159 11.0565 48.0295 10.8722 47.8624 10.3482C47.7358 9.96237 47.4248 9.03522 47.1657 8.29236C46.6072 6.68572 46.0716 5.02725 45.9852 4.61837C45.9619 4.51472 45.9101 4.39379 45.8583 4.34775C45.6799 4.16345 45.0061 4.28438 44.096 4.66445C43.8485 4.76811 43.6356 4.83721 43.6183 4.81994C43.6011 4.80266 43.6931 4.58382 43.8196 4.33622C43.9578 4.07132 44.1021 3.65094 44.1768 3.33422C44.3034 2.79291 44.3034 2.79291 44.6895 2.4186C45.248 1.88305 45.4726 1.39358 45.3287 1.02503C45.156 0.570098 44.2977 0.178516 43.7566 0.305205C43.3765 0.391583 43.3531 0.414618 43.1172 0.869547C42.9386 1.22082 42.8753 1.43965 42.7601 2.13643C42.6853 2.60288 42.5643 3.12115 42.501 3.28815C42.2879 3.83521 41.6659 4.97542 41.0843 5.88529C39.7655 7.95259 39.8864 7.81438 39.2414 8.01595C38.8729 8.12535 38.6943 8.13688 36.8572 8.14841C35.1699 8.15416 34.738 8.17718 34.0066 8.28083C33.5343 8.34993 33.0563 8.40755 32.9585 8.40755H32.7684V8.07352C32.7684 7.89502 32.8203 7.52648 32.8836 7.26735C32.9815 6.85847 32.993 6.72601 32.9412 6.4093C32.8721 6.00043 32.7972 5.82767 32.5093 5.41884C32.4056 5.27485 32.2616 5.03878 32.1925 4.90057C32.0658 4.64718 32.0658 4.64143 32.1695 4.30742C32.2386 4.06556 32.3192 3.93311 32.4574 3.82946C32.5553 3.7546 32.7108 3.55305 32.7914 3.39181C32.9181 3.13843 32.9354 3.04053 32.9066 2.79291C32.8836 2.6144 32.8951 2.4474 32.9354 2.37254C32.9815 2.28616 32.9757 2.17099 32.9181 1.91761C32.8721 1.73333 32.8203 1.51451 32.803 1.42237C32.7742 1.3072 32.6993 1.23234 32.515 1.15172C32.3307 1.05958 32.2386 0.96744 32.1465 0.777407C32.0774 0.633444 31.9622 0.403101 31.8931 0.259136L31.7664 0L31.2481 0.0057586C30.7355 0.0057586 30.7298 0.0057586 30.868 0.103655C31.0983 0.264895 31.3345 0.472205 31.3114 0.495238C31.2999 0.512514 31.1444 0.454929 30.9601 0.374308C30.7816 0.293688 30.6088 0.230343 30.58 0.230343C30.5512 0.230343 30.7125 0.420377 30.9428 0.656477C31.2481 0.973202 31.4554 1.13444 31.7318 1.26113C32.0543 1.41085 32.0888 1.43965 31.9794 1.4742C31.8873 1.49723 31.847 1.55482 31.847 1.65271C31.847 1.79668 31.6166 2.07309 31.4957 2.07309C31.4554 2.07309 31.4842 2.00398 31.5648 1.91761C31.6857 1.78516 31.6857 1.77364 31.5878 1.81971C31.3517 1.92337 30.8565 1.87154 30.5225 1.70454C29.9581 1.41661 29.6356 1.00775 29.4801 0.368549C29.3995 0.0230343 29.3131 -0.0863786 29.3131 0.143965C29.3131 0.403101 29.1691 0.89258 29.0194 1.12868C28.8121 1.46844 28.3629 1.62392 27.1247 1.80244C27.0037 1.81971 27.0153 1.83123 27.2283 1.88882C27.5163 1.97519 27.5278 2.03854 27.332 2.45892C27.1765 2.78716 26.9749 2.95415 26.7676 2.92536C26.6006 2.90232 26.5603 2.67198 26.687 2.42436C26.7389 2.33222 26.7792 2.20554 26.7734 2.14795C26.7734 2.06157 26.7619 2.06733 26.71 2.17099C26.6409 2.30919 26.4739 2.38981 26.376 2.33222C26.3472 2.31495 26.3184 2.22281 26.3184 2.13068C26.3184 1.95216 26.5661 1.58937 27.0037 1.12868C27.3435 0.77165 27.1074 0.881061 26.687 1.2784C26.3991 1.54906 26.2608 1.61816 26.2608 1.49147C26.2608 1.45692 26.5603 1.12292 26.9231 0.760131C27.2859 0.391583 27.5739 0.08062 27.5566 0.0691031C27.5451 0.0575858 27.4357 0.103655 27.3147 0.178516L27.0959 0.316722L27.1995 0.155482L27.2975 0H27.1362C26.9807 0 26.9519 0.0403101 26.7907 0.397342ZM44.1595 0.621925C44.2861 0.788926 44.2114 1.87154 44.0675 1.87154C44.0157 1.87154 43.9868 1.75637 43.9751 1.49723C43.9639 1.28992 43.9349 0.973202 43.912 0.788926C43.8714 0.477962 43.8714 0.460686 43.9751 0.495238C44.033 0.518271 44.1194 0.57586 44.1595 0.621925ZM44.6895 0.973202C44.6895 1.11141 44.4705 1.84275 44.4303 1.84275C44.4187 1.84275 44.4416 0.875304 44.4588 0.57586C44.4705 0.466444 44.6895 0.852271 44.6895 0.973202ZM43.7393 0.81772C43.7967 1.15747 43.7967 1.49147 43.7449 1.49723C43.6702 1.50299 43.4741 0.858029 43.5147 0.731341C43.5665 0.564341 43.7047 0.621925 43.7393 0.81772ZM45.0925 1.15172C45.2134 1.38206 44.8968 2.18826 44.6834 2.18826C44.5513 2.18826 44.5452 2.19402 44.7413 1.66999C44.8044 1.49723 44.8679 1.28417 44.8908 1.19202C44.9253 1.00775 45.0061 0.990477 45.0925 1.15172ZM29.4513 1.52026C29.5031 1.64119 29.6644 1.81971 29.8659 1.96943C30.0502 2.10764 30.2748 2.29192 30.3727 2.38405L30.5512 2.55105L30.3785 2.62591C30.2863 2.66622 30.1366 2.70078 30.056 2.70653C29.9753 2.70653 29.8602 2.75836 29.8026 2.82171C29.6586 2.98295 29.1403 2.98295 28.9215 2.82171C28.8178 2.74684 28.5932 2.6835 28.2592 2.64319L27.7582 2.57408V2.40709C27.7582 2.16523 27.8561 2.0155 28.0115 2.0155C28.2938 2.0155 28.8869 1.78516 29.0712 1.60664C29.1749 1.50875 29.2555 1.4051 29.2555 1.3763C29.2555 1.24961 29.3764 1.34175 29.4513 1.52026ZM43.4741 2.57985C43.5492 2.75836 43.4974 2.93112 42.9559 4.37651C42.6046 5.3094 42.5701 5.36702 42.0518 5.6319C41.8099 5.75857 41.5392 5.93712 41.4528 6.02924C41.2916 6.19625 41.1188 6.54751 41.1188 6.70874C41.1188 6.78937 40.543 8.30389 40.4335 8.51695C40.3759 8.63213 40.3356 8.64941 39.4718 8.92582C38.4294 9.25406 37.3928 9.4383 36.5693 9.44409C35.8033 9.44409 35.2159 9.55349 34.8762 9.75506C34.7495 9.8299 34.45 10.0775 34.2139 10.3021C33.9835 10.5267 33.7762 10.711 33.7647 10.711C33.7071 10.711 33.8223 9.98538 33.926 9.63987C34.0699 9.16768 34.3118 8.85093 34.6112 8.73C35.0662 8.54575 35.9588 8.45359 37.3468 8.4421C38.6022 8.43057 38.6943 8.42482 39.1608 8.28083C39.4315 8.19445 39.7482 8.11386 39.8634 8.0908C40.0304 8.06203 40.088 8.02748 40.1168 7.91229C40.1629 7.73954 41.0613 6.28837 41.6256 5.48216C42.213 4.64718 42.6795 3.8237 42.9905 3.06357C43.1402 2.71229 43.2957 2.4186 43.3359 2.4186C43.3765 2.4186 43.4395 2.49347 43.4741 2.57985ZM28.1152 2.89657C28.144 2.94839 28.0692 2.97143 27.8388 2.98295C27.4702 3.00022 27.4184 2.97719 27.5336 2.84474C27.5912 2.77564 27.666 2.76412 27.8388 2.79291C27.9655 2.81019 28.0922 2.85626 28.1152 2.89657ZM30.8104 3.22481C31.0811 3.28239 31.4151 3.36877 31.5591 3.41484L31.8182 3.50122L31.5014 3.51274L31.1847 3.52425L31.4323 3.61063C31.5648 3.6567 31.6742 3.72005 31.6742 3.74884C31.6742 3.81218 31.6973 3.80642 30.9544 3.81218C30.3957 3.81218 30.39 3.81218 30.724 3.86401C31.3748 3.95614 31.6166 4.03677 31.6166 4.14618C31.6166 4.34775 31.49 4.37651 31.0983 4.26711C30.1711 4.00221 28.933 3.97918 27.7294 4.20952C27.0268 4.34196 27.0844 4.34196 27.0498 4.19225C27.0037 4.01949 27.0786 3.94463 27.3838 3.85825C27.5278 3.81794 27.643 3.76035 27.643 3.73156C27.643 3.70277 27.5969 3.69125 27.5451 3.70853C27.1304 3.82946 26.6812 3.78915 26.9001 3.65094C27.0037 3.5876 27.643 3.46091 27.8618 3.45515C27.977 3.45515 28.0403 3.43212 28.0173 3.39756C28.0001 3.36301 27.7697 3.33998 27.5105 3.33998C27.1823 3.33422 27.0671 3.3227 27.1304 3.28239C27.309 3.17874 28.0001 3.12691 29.1691 3.11539C30.1136 3.11539 30.4073 3.13267 30.8104 3.22481ZM29.7507 4.33047C29.8199 4.43987 29.5953 4.54927 29.2958 4.54927C29.1 4.54927 29.0251 4.57233 29.0367 4.61837C29.0712 4.71628 29.2785 4.76811 29.6701 4.77385C29.9465 4.77964 30.0099 4.76236 30.0847 4.65292C30.1366 4.58382 30.1769 4.47442 30.1769 4.41685C30.1769 4.32468 30.2057 4.31318 30.3382 4.34196C30.5397 4.39379 30.8104 4.68747 30.8104 4.86602C30.8104 5.08482 30.6894 5.59734 30.5916 5.78738C30.4476 6.06953 30.3612 6.11562 29.8544 6.17898C29.5895 6.21353 29.3707 6.25382 29.3707 6.27684C29.3707 6.29412 29.4628 6.35748 29.5722 6.4093C29.7335 6.48994 29.7738 6.53598 29.7738 6.67419C29.7738 6.89303 29.7104 6.92758 29.3304 6.91605C28.9099 6.90456 28.7026 6.80665 28.3859 6.47266C27.833 5.88529 27.4529 5.01571 27.6315 4.7393C27.7063 4.62416 28.288 4.3823 28.622 4.32468C29.0942 4.24983 29.7047 4.24983 29.7507 4.33047ZM27.0959 4.93512C27.165 5.1309 27.3435 5.49943 27.4875 5.75857C27.7466 6.20774 27.7582 6.25957 27.7582 6.67419C27.7582 6.91605 27.7294 7.21552 27.6948 7.3422C27.62 7.62435 27.4241 8.06203 27.3781 8.06203C27.355 8.06203 27.3608 7.89502 27.3838 7.68771C27.4241 7.27884 27.3147 6.25957 27.2341 6.31139C27.2053 6.32867 27.1823 6.53024 27.1823 6.76635C27.1823 7.00242 27.1592 7.20399 27.1304 7.22126C27.0671 7.26156 27.0095 6.82392 27.0095 6.24229C27.0095 5.97741 26.9922 5.75857 26.9692 5.75857C26.9404 5.76436 26.8483 5.89678 26.7503 6.06379C26.6582 6.2308 26.5546 6.36322 26.52 6.36322C26.4566 6.36322 26.4739 6.01196 26.5488 5.701C26.5776 5.5916 26.6467 5.31519 26.6985 5.09635C26.7503 4.87176 26.8022 4.65871 26.8137 4.61837C26.8598 4.46289 26.9692 4.58961 27.0959 4.93512ZM45.6972 4.60688C45.7663 4.72203 45.5646 4.90057 45.0463 5.18847C43.912 5.81619 42.5125 6.36322 41.856 6.43232C41.5047 6.46688 41.4413 6.42084 41.6256 6.26536C41.9308 5.98894 43.9578 4.96389 44.6722 4.72203C45.1789 4.54927 45.6337 4.49744 45.6972 4.60688ZM46.3709 6.69725C46.6128 7.42857 47.0275 8.6609 47.2866 9.42682C47.5514 10.1984 47.7475 10.8376 47.7358 10.8549C47.7185 10.8722 47.4477 10.8549 47.1311 10.8262C46.8201 10.7973 46.3308 10.7685 46.0483 10.7685H45.5361L45.5762 10.4576C45.5935 10.2848 45.6509 9.39801 45.6972 8.48814C45.7434 7.57252 45.7952 6.49568 45.8181 6.08681C45.8354 5.68372 45.8699 5.35548 45.8928 5.35548C45.9101 5.35548 46.1291 5.96014 46.3709 6.69725ZM31.5878 5.82767C31.5648 5.99469 31.4669 6.32867 31.3748 6.56479C31.2135 6.9794 31.0983 7.54376 31.1732 7.54376C31.1962 7.54376 31.2654 7.44011 31.3287 7.31339C31.4554 7.06004 31.6512 6.9794 31.5648 7.21552C31.513 7.34794 31.4842 7.59559 31.4957 7.78562C31.5014 7.84319 31.5418 7.88928 31.5878 7.88928C31.7376 7.88928 31.8988 7.67618 32.0025 7.33066L32.1061 6.99668L32.1349 7.31339C32.1695 7.6589 32.0774 8.18296 31.9622 8.32117C31.8643 8.43631 31.7548 8.43057 31.5245 8.28662C31.1617 8.06203 31.0522 7.75681 31.035 6.93911C31.0235 6.49568 31.035 6.46113 31.2768 6.00043C31.4151 5.74129 31.5533 5.52824 31.5763 5.52824C31.6051 5.52824 31.6109 5.66645 31.5878 5.82767ZM45.5879 6.25957C45.5706 6.41505 45.5127 7.25007 45.4669 8.1196C45.3745 9.73199 45.2942 10.7052 45.2423 10.7513C45.219 10.7801 44.4416 10.9471 44.2861 10.9644C44.2403 10.9644 44.2057 10.9413 44.2114 10.9125C44.223 10.8434 45.4898 6.1617 45.5244 6.05805C45.5818 5.89103 45.6224 6.01196 45.5879 6.25957ZM41.9827 6.90456C41.9827 7.00242 41.8099 7.371 41.7638 7.371C41.7005 7.371 41.5738 6.96787 41.6141 6.89877C41.6544 6.83545 41.9827 6.8412 41.9827 6.90456ZM41.5335 7.20399C41.689 7.61286 41.6659 7.73954 41.3953 7.96987C41.2628 8.08505 41.1476 8.16569 41.1361 8.15416C41.09 8.10807 41.3261 6.9103 41.378 6.92758C41.4068 6.93911 41.4816 7.06578 41.5335 7.20399ZM28.8812 7.48615C29.4052 7.92383 29.6759 7.92383 30.0502 7.4804C30.1251 7.38828 30.2115 7.31339 30.246 7.31339C30.3151 7.31339 30.269 7.46313 29.9869 8.10807C29.8602 8.40176 29.7738 8.65515 29.791 8.67243C29.8832 8.76455 30.1251 8.51695 30.2575 8.20598C30.2979 8.10807 30.4073 8.30964 30.4073 8.48239C30.4073 8.71272 30.3266 8.83365 30.0214 9.06977C29.7104 9.30589 29.4743 9.32891 29.0885 9.15615C28.8235 9.03522 28.5068 9.00067 28.5068 9.09858C28.5068 9.13313 28.5644 9.17917 28.6393 9.20798C28.7775 9.26555 28.9445 9.4383 29.1058 9.6917C29.2324 9.89901 29.4398 9.97964 29.6471 9.89901C29.7335 9.86445 30.0099 9.70323 30.2633 9.53622C30.5628 9.33465 30.8276 9.20223 31.0292 9.16189C31.4957 9.06403 31.5763 9.00641 31.5302 8.7991C31.4957 8.65515 31.5072 8.62634 31.5763 8.65515C31.8412 8.75306 32.158 8.81063 32.5784 8.82217C32.8433 8.83365 33.0563 8.85672 33.0563 8.87974C33.0563 8.96612 32.4977 9.33465 31.991 9.5823C31.3805 9.88173 29.7162 10.4346 29.4282 10.4346C29.3131 10.4403 29.0712 10.3597 28.8754 10.2618C28.4723 10.0602 27.6027 9.47864 27.2744 9.19644L27.0498 9.00641L27.332 8.83944C27.8618 8.53997 28.0806 8.23479 28.1383 7.73379C28.1958 7.22701 28.2074 7.19825 28.3801 7.19825C28.4838 7.19825 28.6566 7.3019 28.8812 7.48615ZM40.9173 8.10233C40.877 8.32691 40.8021 8.45359 40.7445 8.39602C40.7099 8.36146 40.8827 7.88928 40.9288 7.88928C40.9461 7.88928 40.9403 7.98714 40.9173 8.10233ZM26.664 8.47086C26.664 8.86246 26.6064 8.91429 26.2954 8.81063C26.0363 8.72426 25.9614 8.53422 26.1399 8.40755C26.209 8.36146 26.3357 8.26355 26.4221 8.19445C26.5085 8.13114 26.5949 8.08505 26.6179 8.10233C26.6467 8.11386 26.664 8.28083 26.664 8.47086ZM42.2936 9.42682C42.7947 11.0392 42.9905 11.5863 43.2266 12.0988C43.3765 12.4155 43.4857 12.6804 43.4741 12.6919C43.4628 12.7092 43.2439 12.6631 42.9905 12.5998C42.6104 12.5019 42.3455 12.4788 41.4816 12.4731C40.9 12.4673 40.4278 12.4558 40.4278 12.4385C40.4335 12.0585 40.7215 10.0199 40.7848 9.88747C40.8136 9.83565 41.0094 9.70323 41.2225 9.59379C41.4356 9.48439 41.712 9.29435 41.8387 9.16189C41.9654 9.02947 42.0863 8.92582 42.1036 8.92582C42.1209 8.92582 42.2073 9.1504 42.2936 9.42682ZM26.6582 10.6419C26.7273 11.091 26.8137 11.5459 26.8598 11.6496C27.0095 12.0182 28.9503 13.4751 29.2843 13.4751C29.3649 13.4751 30.079 12.8416 30.0387 12.8013C30.0272 12.7841 29.8947 12.8474 29.745 12.9338C29.4859 13.0835 29.4686 13.0835 29.2958 12.9971C29.0481 12.8762 27.9712 11.9664 27.7985 11.7302C27.62 11.4941 27.4932 11.091 27.4126 10.5037C27.309 9.79535 27.3032 9.8011 27.8733 10.1409C28.4262 10.4806 29.2958 10.8953 29.7853 11.0622C30.0272 11.1429 30.2575 11.1717 30.6491 11.1659C30.9428 11.1601 31.1329 11.1486 31.0695 11.1313C31.0062 11.1198 30.7471 11.0392 30.4994 10.9528C29.9581 10.7743 29.9753 10.7628 30.9544 10.6246C32.2847 10.4403 32.204 10.4691 32.7108 9.94509C32.9585 9.68595 33.1831 9.49013 33.2003 9.5132C33.2234 9.53621 33.0736 9.78382 32.8721 10.0602C32.6648 10.3366 32.4286 10.6879 32.3423 10.8319C32.1868 11.1026 31.6627 11.6381 31.369 11.8339C31.0926 12.0124 31.2423 11.9951 31.8297 11.7763C32.6763 11.4538 32.682 11.4538 33.1312 10.8722C33.2349 10.7398 33.2349 10.7455 33.1946 11.0853C33.1773 11.2753 33.1485 12.0527 33.1427 12.8129C33.1255 14.1431 33.1197 14.2179 32.9527 14.8456C32.7742 15.5252 32.7339 15.6173 32.6878 15.4848C32.6705 15.4388 32.5438 15.076 32.3998 14.6786C32.0601 13.7342 31.9679 13.3772 31.9506 12.9223C31.9449 12.7207 31.9391 12.5537 31.9334 12.5537C31.9334 12.5537 31.5302 12.7552 31.0408 13.0029C30.0099 13.5269 29.5204 13.7054 29.123 13.7054C28.8293 13.7054 28.7948 13.786 29.0712 13.8379C29.1576 13.8552 29.3764 13.9703 29.555 14.0913C29.935 14.3446 32.0485 16.3717 31.9679 16.4004C31.87 16.435 31.5994 16.2565 31.0408 15.7958C30.1308 15.0414 29.768 14.788 28.9963 14.3677C28.3859 14.0337 28.1728 13.884 27.7927 13.5039C27.5336 13.2448 27.2629 12.9107 27.1823 12.7552C27.1017 12.594 27.0326 12.4558 27.0268 12.4443C27.0153 12.4328 26.9922 12.4328 26.9749 12.4558C26.9116 12.5192 27.188 13.2332 27.4069 13.573C27.8618 14.2698 29.6183 16.0607 30.0099 16.2335C30.1481 16.291 30.4994 16.4408 30.7816 16.5617C31.0695 16.6826 31.4323 16.8611 31.5878 16.9648C31.9449 17.2009 32.2962 17.5003 32.2213 17.5061C32.1868 17.5061 31.7951 17.3391 31.3575 17.1375C30.914 16.936 30.3842 16.7229 30.1769 16.6711C29.5722 16.5156 29.244 16.2738 28.5068 15.433C28.2707 15.1624 27.8849 14.7362 27.643 14.4828C27.4069 14.2295 27.1017 13.8897 26.9635 13.7342C26.7158 13.4463 26.7158 13.4463 26.8425 13.6767C26.9116 13.8033 27.0037 13.9473 27.0383 13.9934C27.0786 14.0394 27.2629 14.3389 27.4529 14.6556C27.954 15.4906 28.2938 16.2392 28.5126 16.9878C28.6853 17.5925 28.9503 18.0704 29.2152 18.2605C29.5377 18.4966 29.9235 18.5599 30.8276 18.5311C31.2596 18.5196 31.6166 18.5311 31.6166 18.5542C31.6166 18.5772 31.4669 18.6405 31.2884 18.6981C31.035 18.7787 30.7585 18.8018 30.1769 18.8018C29.457 18.8018 29.3764 18.7903 29.077 18.6521C28.6738 18.462 28.5068 18.2432 28.288 17.6213C28.0576 16.9533 27.5969 15.8016 27.4529 15.5194C27.2859 15.1796 26.3011 13.7054 26.2436 13.7054C26.1917 13.7054 25.7656 14.6095 25.708 14.8341C25.6562 15.0299 25.5871 15.0069 25.5122 14.765C25.4143 14.4655 25.4777 14.1604 25.8577 13.1296C26.2666 12.0412 26.3703 11.5057 26.3818 10.4115C26.3991 9.16189 26.4566 9.20798 26.6582 10.6419ZM26.0478 9.99113C26.2033 10.7167 25.9556 11.4999 25.3567 12.1564C25.1667 12.3637 24.9075 12.7265 24.775 12.9626C24.441 13.573 23.9861 15.1163 23.9055 15.9282C23.8076 16.8899 23.7212 17.126 23.1222 18.0474C22.627 18.8018 22.5752 18.9458 22.5752 19.5792C22.5752 20.8576 22.2699 21.9114 21.36 23.8117C21.1642 24.2206 20.8532 24.8886 20.6747 25.2917C20.4904 25.7006 20.214 26.2016 20.0528 26.4146C19.8973 26.6335 19.7187 26.8983 19.6669 27.0077L19.5632 27.2093L19.4596 26.979C19.2811 26.5874 19.3156 26.4376 19.713 25.8445C19.9145 25.5508 20.1506 25.1535 20.237 24.9635C20.3234 24.7734 20.4674 24.474 20.5595 24.3012C20.8417 23.7426 21.0778 22.9825 21.4003 21.5659C21.7919 19.8383 21.9417 19.3546 22.2066 18.9169C22.6327 18.2086 22.8112 17.7249 23.5311 15.3178L23.75 14.598L23.7903 13.1871C23.8133 12.3464 23.8594 11.6842 23.8997 11.5459C24.0322 11.1198 24.2395 10.7858 24.5505 10.5037C24.873 10.2042 25.7541 9.71472 25.9096 9.74352C25.9614 9.75506 26.019 9.85871 26.0478 9.99113ZM40.543 9.95658C40.543 10.089 40.1974 12.4501 40.1744 12.4904C40.1398 12.5422 39.4603 12.6977 39.42 12.6631C39.3912 12.6343 39.8806 10.6476 39.9786 10.3943C40.0592 10.1754 40.1916 10.0199 40.3414 9.95658C40.4969 9.89326 40.543 9.89326 40.543 9.95658ZM25.3394 15.5539C25.3394 15.8361 25.5582 17.0109 25.7483 17.7825L25.9844 18.7212L25.7483 19.6771C25.5755 20.3624 25.4431 20.7539 25.2703 21.0822C25.0457 21.5141 25.0399 21.5486 25.1033 21.7559C25.1667 21.9459 25.1551 22.0381 24.9708 22.66C24.8614 23.0401 24.729 23.4662 24.6714 23.6102C24.585 23.8348 24.5677 24.2149 24.5332 26.3743L24.4871 28.8793L24.2798 29.9446C23.8709 31.9832 23.8191 32.6627 23.8997 34.8106C23.9227 35.542 23.8479 38.1449 23.8018 38.0988C23.7903 38.0873 23.6924 37.7418 23.5887 37.3386C23.4793 36.9298 23.1338 35.6744 22.8112 34.5515C22.4945 33.4286 22.1375 32.1041 22.0223 31.6146C21.6077 29.8064 21.527 29.4149 21.5558 29.3458C21.5904 29.2536 22.9495 28.7929 23.1856 28.7929C23.3065 28.7929 23.4102 28.8505 23.5254 28.9657C23.6175 29.0578 23.7442 29.1384 23.8018 29.1384C23.9055 29.1384 23.9112 29.1096 23.8824 28.8044C23.8421 28.4416 23.6175 27.716 23.4736 27.4972C23.4217 27.4166 23.3295 27.3533 23.2662 27.3533C23.1741 27.3533 23.151 27.3936 23.151 27.5548C23.151 27.6988 23.1165 27.7794 23.0128 27.8428C22.8458 27.9579 22.2238 28.0904 21.6307 28.1364C21.2333 28.171 21.1757 28.1652 21.2103 28.0904C21.3312 27.7621 21.3715 27.3993 21.4118 26.2016L21.4579 24.8483L21.8841 24.1285C22.4657 23.1495 23.0992 21.8941 23.2893 21.3356C23.3872 21.0591 23.4678 20.6561 23.4966 20.3278C23.5369 19.8786 23.5945 19.6655 23.8076 19.13C23.9573 18.773 24.1646 18.1453 24.2798 17.7307C24.5274 16.7978 24.6368 16.5271 24.9708 15.9455C25.2127 15.5252 25.3394 15.3927 25.3394 15.5539ZM26.33 16.6365C26.4221 16.8439 26.6121 17.2758 26.7503 17.5925C26.8886 17.9092 27.1708 18.5081 27.3723 18.9227C27.8791 19.942 27.9309 19.9765 29.1518 20.1262C30.4533 20.2817 30.6549 20.2414 31.5763 19.6195C31.7894 19.4755 31.9622 19.3891 31.9622 19.4295C31.9622 19.4698 31.7606 19.6944 31.5187 19.9362C31.0292 20.4084 30.9716 20.4718 30.2172 21.3471L29.7047 21.9402L29.5434 21.8538C29.2152 21.6868 28.5011 21.0591 27.81 20.3393C27.4241 19.9362 27.1247 19.6541 27.1477 19.7174C27.2053 19.8959 28.7314 22.1936 29.1173 22.6888C29.6644 23.3914 29.6816 23.4144 29.8544 23.3338C30.269 23.1495 31.2596 22.3087 32.181 21.3701L33.1715 20.3566V20.7885C33.1715 21.9057 32.8087 23.5411 32.2386 24.9865C31.847 25.9827 30.9083 27.6585 30.1999 28.6202C29.8832 29.0578 28.8235 30.2671 27.7524 31.4131C26.9289 32.2999 26.52 32.8124 26.3933 33.1003C26.3472 33.204 26.2493 33.5956 26.1745 33.9641C25.9268 35.1562 25.5813 36.6303 25.541 36.6707C25.4604 36.7455 25.5755 34.6897 25.6907 33.9757L25.8059 33.2558L26.1975 32.68C28.3686 29.4724 28.4607 29.34 29.5377 27.9752C31.3805 25.6545 31.8355 24.8137 32.4805 22.5564C32.7914 21.4738 32.7799 21.3471 32.4229 21.969C31.8528 22.9652 28.2592 27.6182 26.6697 29.4263C26.019 30.1635 25.0918 31.1021 25.0572 31.0618C25.0399 31.0445 24.9939 30.7278 24.9594 30.3592C24.9075 29.7258 24.9536 28.6202 25.0745 27.6066C25.1494 27.0077 25.4258 25.7984 25.4891 25.7984C25.5698 25.7984 26.1572 26.2246 26.5834 26.5874C26.7446 26.7198 26.9174 26.835 26.9692 26.835C27.0153 26.835 27.4184 26.4549 27.8561 25.9827C29.2613 24.5028 29.5837 24.1169 29.1173 24.5143C28.2419 25.2456 28.0461 25.3954 27.833 25.5048C27.7006 25.5681 27.5336 25.6257 27.4645 25.6257C27.3032 25.6257 27.021 25.4875 26.8022 25.2917C26.6985 25.2053 26.3357 24.8886 25.9844 24.5891C25.6331 24.2897 25.3337 24.0075 25.3164 23.973C25.2991 23.9327 25.3279 23.806 25.374 23.6851C25.4949 23.3914 25.8692 22.7464 25.9211 22.7464C25.9671 22.7464 26.8137 23.7714 27.142 24.2263C27.4069 24.5891 27.7294 24.8771 27.8733 24.8771C27.9885 24.8771 28.766 24.3761 28.933 24.1918C29.0712 24.0421 29.0251 24.0421 28.7487 24.1803C28.6335 24.2379 28.4377 24.3127 28.3168 24.3473L28.0979 24.4106L27.9079 24.1112C27.8042 23.9442 27.5739 23.5238 27.4011 23.1725C27.2226 22.8213 26.8655 22.2396 26.5948 21.8768C26.3242 21.5141 26.0938 21.1743 26.0708 21.1225C26.0362 21.0188 26.33 20.2645 26.4106 20.2645C26.4394 20.2645 26.5546 20.489 26.664 20.7712C26.9519 21.4853 27.8158 23.115 27.8158 22.9422C27.8158 22.8328 27.3781 21.6408 27.1074 21.0131C26.543 19.6944 26.2148 18.3238 26.0593 16.5905C26.0132 16.0722 26.0823 16.0837 26.33 16.6365ZM33.661 25.165C33.4595 26.2879 33.1543 27.7621 32.9124 28.7641C32.5553 30.2556 31.1962 33.9699 30.1999 36.1927C29.4398 37.8915 29.0539 38.7034 28.6278 39.4693C28.1152 40.408 26.4739 43.1721 26.376 43.2701C26.2436 43.4023 26.2897 43.2356 26.5257 42.6711C26.8137 41.9916 27.7063 39.5096 28.0576 38.4097C28.3513 37.4999 28.4032 37.3617 28.432 37.3905C28.4665 37.425 28.1728 38.7322 28.0115 39.2678C27.9309 39.5269 27.8791 39.7572 27.8906 39.7745C27.9424 39.8206 28.7833 38.1449 29.1576 37.258C30.8392 33.2328 31.3748 31.891 31.6512 31.0272C31.8297 30.4802 32.1349 29.5876 32.3365 29.0521C32.8606 27.6239 33.3443 26.0346 33.5862 24.9174C33.7474 24.163 33.805 24.3531 33.661 25.165ZM23.0935 28.2631C23.0935 28.3207 22.1029 28.6317 21.3082 28.8275C20.7784 28.9599 18.8088 29.3112 18.6418 29.3112C18.3193 29.2997 20.0067 28.8562 21.8265 28.4762C23.1913 28.1883 23.0935 28.2056 23.0935 28.2631ZM21.3888 30.6414C21.4982 31.0675 21.861 32.5014 22.2008 33.8317C22.5348 35.1619 22.9898 36.9471 23.2086 37.8051C23.4275 38.6574 23.8421 40.2928 24.1301 41.433C24.418 42.5732 24.8384 44.2143 25.0572 45.0841C25.2818 45.9479 25.4488 46.6674 25.4316 46.6847C25.3509 46.7655 24.9305 45.6425 24.6771 44.6578C24.6023 44.3697 24.441 43.7478 24.3143 43.2757C24.1819 42.7978 24.0149 42.1644 23.94 41.8649C23.773 41.2315 22.627 36.9183 22.2584 35.5592C20.9569 30.7163 20.9396 30.6414 21.0145 30.3247C21.1239 29.8813 21.1412 29.8179 21.17 29.8468C21.1815 29.8582 21.2794 30.2153 21.3888 30.6414ZM28.3744 32.6915C27.8964 33.8029 27.7236 34.3212 27.2341 36.1639C26.831 37.6957 26.3588 39.0259 25.8808 39.9761C25.7253 40.2813 25.5871 40.4137 25.6504 40.1891C25.6734 40.1143 25.8059 39.4405 25.9499 38.6977C26.0938 37.9548 26.2954 36.9413 26.4048 36.4518C26.5143 35.9624 26.7043 35.0525 26.8367 34.4363C26.9692 33.8202 27.0786 33.3076 27.0844 33.3019C27.142 33.2097 28.8293 31.5282 28.8466 31.5398C28.8581 31.5455 28.645 32.0638 28.3744 32.6915ZM34.4846 33.872C34.7092 35.0986 34.7437 35.5362 34.7092 36.7225C34.6631 38.5365 34.3521 40.0279 33.6265 41.8649C33.327 42.6308 32.826 43.6213 32.7396 43.6213C32.7166 43.6213 32.6129 43.385 32.515 43.0972C32.348 42.6193 31.9219 41.7497 31.847 41.7497C31.8297 41.7497 31.8124 41.9225 31.8009 42.1413C31.7606 43.3103 31.3978 45.0033 30.8334 46.702C30.3497 48.1475 30.3209 48.1073 30.58 46.391C30.7528 45.2625 30.9831 42.9705 30.9831 42.4523L30.9774 42.1816L30.7989 42.5271C30.701 42.7172 30.4994 43.1606 30.3497 43.506C30.1999 43.8575 30.0156 44.2605 29.9465 44.3987C29.8083 44.6695 29.4859 45.107 29.4513 45.0724C29.4398 45.0608 29.6356 44.5485 29.8832 43.9322C30.6607 42.0146 31.058 40.7592 32.0543 37.0565C32.2213 36.4461 32.2443 36.3712 32.2731 36.4C32.2904 36.4115 32.3423 36.9183 32.3941 37.5172C32.5553 39.4117 32.7684 41.5366 32.7972 41.5655C32.8433 41.6173 32.8606 41.5712 33.0391 40.7996C33.6898 38.07 34.116 35.5708 34.2427 33.7856C34.2657 33.4804 34.3003 33.227 34.3233 33.227C34.3464 33.227 34.4212 33.5207 34.4846 33.872ZM28.0806 42.078C28.0346 42.1989 27.9424 42.4177 27.8733 42.5732C27.81 42.7229 27.522 43.4368 27.2456 44.1568C26.7389 45.4581 26.1054 46.8747 26.0305 46.8747C25.9902 46.8747 25.685 45.5445 25.685 45.3545C25.685 45.297 25.8289 45.0897 26.0074 44.8997C26.3472 44.5196 27.1995 43.4083 27.3954 43.0742C27.4645 42.9648 27.6257 42.6768 27.7639 42.4408C28.1095 41.8188 28.2189 41.6979 28.0806 42.078ZM34.5882 42.5674C34.571 42.6711 34.5421 42.936 34.5249 43.1606C34.5018 43.3794 34.4385 43.9897 34.3694 44.514C34.3061 45.0379 34.2369 45.9937 34.2197 46.6445L34.1793 47.8249L34.0411 47.8422L33.9029 47.8655L33.9432 47.1226C33.9663 46.7192 34.0181 45.9591 34.0642 45.4352C34.1045 44.9113 34.1563 44.1857 34.1793 43.823C34.2081 43.3159 34.2542 43.0684 34.3694 42.769C34.5249 42.3601 34.6343 42.2565 34.5882 42.5674Z" fill="black"/>
<path id="Vector_2" d="M28.8922 5.27485C28.8058 5.34974 28.6964 5.39578 28.6503 5.3785C28.5985 5.35548 28.564 5.3785 28.564 5.43033C28.564 5.48216 28.61 5.53399 28.6676 5.54552C28.7483 5.56854 30.1247 5.56279 30.2513 5.53399C30.3262 5.5225 30.2916 5.41306 30.211 5.41306C30.1707 5.41306 30.0613 5.35548 29.9692 5.28638C29.7273 5.0906 29.1111 5.08482 28.8922 5.27485Z" fill="black"/>
<path id="Vector_3" d="M29.0939 5.7989C29.1285 5.98893 29.8311 5.94859 29.8311 5.75856C29.8311 5.72401 29.6583 5.70099 29.451 5.70099C29.1227 5.70099 29.0767 5.71252 29.0939 5.7989Z" fill="black"/>
<path id="Vector_4" d="M27.8441 10.9298C28.132 11.7014 28.2357 11.8742 28.6043 12.1564C29.088 12.5307 29.2493 12.6228 29.3587 12.5825C29.4105 12.5652 29.6409 12.381 29.8597 12.1679C30.2225 11.8281 30.2456 11.7936 30.0901 11.8281C29.6409 11.926 29.4451 11.9318 29.2781 11.8396C29.1859 11.7936 28.8001 11.4538 28.42 11.0853C28.0399 10.7225 27.7117 10.423 27.6944 10.423C27.6714 10.423 27.7405 10.6534 27.8441 10.9298Z" fill="black"/>
<path id="Vector_5" d="M43.6528 12.0757C43.6528 12.1967 44.2113 12.8071 44.5279 13.0317C45.847 13.9761 47.2464 13.7572 48.1793 12.4731C48.3175 12.2831 48.4324 12.1103 48.4324 12.0873C48.4324 12.0585 48.2713 12.116 48.0757 12.2082C47.6723 12.3925 46.5955 12.6113 46.0655 12.6113C45.5071 12.6113 43.9811 12.26 43.8023 12.0873C43.7332 12.0239 43.6528 12.0182 43.6528 12.0757Z" fill="black"/>
<path id="Vector_6" d="M43.71 13.7918C43.4564 14.0509 43.0304 14.2064 42.2702 14.3216C41.7577 14.3964 41.5561 14.4022 40.9572 14.3446C40.1107 14.264 39.4426 14.1028 39.1489 13.907C39.028 13.8263 38.9186 13.763 38.9013 13.763C38.8091 13.763 39.2065 14.3792 39.4656 14.6383C40.0127 15.1854 40.629 15.433 41.4352 15.433C42.3221 15.433 42.9325 15.1336 43.4564 14.431C43.7272 14.0797 43.9691 13.6536 43.9289 13.6133C43.9117 13.6018 43.8136 13.6824 43.71 13.7918Z" fill="black"/>
<path id="Vector_7" d="M19.0905 17.7883C18.9639 17.8458 18.6989 18.0359 18.5031 18.2144L18.1519 18.5311L18.4168 18.6348C18.5953 18.7096 18.8314 18.7442 19.1194 18.7442C19.4822 18.7442 19.6088 18.7154 19.8968 18.5772C20.2135 18.4217 20.7318 18.0071 20.7318 17.9092C20.7318 17.8401 19.9544 17.6788 19.6319 17.6788C19.4534 17.6788 19.223 17.7249 19.0905 17.7883Z" fill="black"/>
<path id="Vector_8" d="M39.3334 17.771C39.1607 17.817 38.9937 17.8804 38.9706 17.9034C38.9418 17.9322 39.0455 18.0589 39.1952 18.1856C39.8057 18.7269 40.5428 18.8997 41.1935 18.6578L41.5218 18.5311L41.2224 18.2489C40.6292 17.6961 40.1051 17.5637 39.3334 17.771Z" fill="black"/>
</g>
<defs>
<clipPath id="clip0_79_252">
<rect width="59" height="52" fill="white"/>
</clipPath>
</defs>
</svg>
