<svg width="18" height="17" viewBox="0 0 18 17" fill="none" xmlns="http://www.w3.org/2000/svg">
<path d="M17.2555 11.6482L13.158 9.812C12.9724 9.73245 12.7698 9.70047 12.5687 9.71894C12.3675 9.73742 12.1742 9.80578 12.0061 9.91782C11.9891 9.92877 11.9728 9.94094 11.9576 9.95425L9.81601 11.7757C9.79379 11.7879 9.76905 11.7946 9.74376 11.7955C9.71847 11.7964 9.69332 11.7914 9.67029 11.7809C8.29376 11.1165 6.8678 9.69924 6.20079 8.34179C6.18968 8.31911 6.1839 8.29419 6.1839 8.26894C6.1839 8.24368 6.18968 8.21876 6.20079 8.19608L8.02835 6.02764C8.04146 6.01159 8.05362 5.99479 8.06478 5.97733C8.17527 5.80863 8.24201 5.61507 8.25897 5.41411C8.27593 5.21316 8.24258 5.01115 8.16192 4.82632L6.3387 0.735774C6.23516 0.494305 6.0561 0.292929 5.82839 0.161871C5.60068 0.0308123 5.3366 -0.0228585 5.0758 0.00891315C3.94233 0.157925 2.90191 0.714557 2.14894 1.57479C1.39598 2.43502 0.982009 3.53999 0.984385 4.6832C0.984385 11.4748 6.50957 16.9999 13.3011 16.9999C14.4443 17.0021 15.5492 16.5881 16.4094 15.8352C17.2695 15.0822 17.8262 14.0419 17.9754 12.9085C18.0071 12.6489 17.9542 12.3861 17.8245 12.159C17.6948 11.9319 17.4952 11.7528 17.2555 11.6482ZM13.3011 15.9591C7.08377 15.9591 2.02524 10.9006 2.02524 4.6832C2.02234 3.79321 2.34357 2.93261 2.92891 2.26219C3.51425 1.59177 4.32366 1.1574 5.2059 1.04022H5.22585C5.26081 1.04088 5.29475 1.05207 5.32323 1.07235C5.35171 1.09263 5.3734 1.12103 5.38545 1.15385L7.21561 5.24006C7.22605 5.26278 7.23146 5.28748 7.23146 5.31248C7.23146 5.33749 7.22605 5.36219 7.21561 5.38491L5.38458 7.55855C5.37092 7.57407 5.35846 7.5906 5.34729 7.608C5.23271 7.78291 5.16524 7.98444 5.15141 8.19308C5.13759 8.40172 5.17787 8.6104 5.26836 8.7989C6.03772 10.3741 7.62502 11.9492 9.21752 12.7186C9.40712 12.8086 9.61682 12.8479 9.82614 12.8327C10.0355 12.8175 10.2373 12.7483 10.4119 12.6318C10.4284 12.6206 10.4449 12.6084 10.4605 12.5954L12.6012 10.7739C12.6223 10.7626 12.6456 10.7559 12.6696 10.7544C12.6935 10.7529 12.7175 10.7566 12.7399 10.7652L16.8383 12.6015C16.8718 12.6157 16.8999 12.6402 16.9187 12.6713C16.9376 12.7024 16.9461 12.7387 16.9432 12.775C16.8267 13.6576 16.3927 14.4676 15.7224 15.0536C15.0522 15.6396 14.1914 15.9615 13.3011 15.9591Z" fill="#012016"/>
</svg>
