<svg width="30" height="30" viewBox="0 0 30 30" fill="none" xmlns="http://www.w3.org/2000/svg">
<path d="M25.7812 15C25.7812 15.1243 25.7319 15.2435 25.644 15.3315C25.556 15.4194 25.4368 15.4688 25.3125 15.4688H15.4688V25.3125C15.4688 25.4368 15.4194 25.556 15.3315 25.644C15.2435 25.7319 15.1243 25.7812 15 25.7812C14.8757 25.7812 14.7565 25.7319 14.6685 25.644C14.5806 25.556 14.5312 25.4368 14.5312 25.3125V15.4688H4.6875C4.56318 15.4688 4.44395 15.4194 4.35604 15.3315C4.26814 15.2435 4.21875 15.1243 4.21875 15C4.21875 14.8757 4.26814 14.7565 4.35604 14.6685C4.44395 14.5806 4.56318 14.5312 4.6875 14.5312H14.5312V4.6875C14.5312 4.56318 14.5806 4.44395 14.6685 4.35604C14.7565 4.26814 14.8757 4.21875 15 4.21875C15.1243 4.21875 15.2435 4.26814 15.3315 4.35604C15.4194 4.44395 15.4688 4.56318 15.4688 4.6875V14.5312H25.3125C25.4368 14.5312 25.556 14.5806 25.644 14.6685C25.7319 14.7565 25.7812 14.8757 25.7812 15Z" fill="#012016"/>
</svg>
