<svg width="17" height="17" viewBox="0 0 17 17" fill="none" xmlns="http://www.w3.org/2000/svg">
<path d="M15.7255 3.93445C13.1865 -0.00160981 7.98702 -1.16785 3.96592 1.27396C0.0420104 3.71578 -1.22142 9.03675 1.31758 12.9607L1.52411 13.2765L0.673723 16.4594L3.85658 15.609L4.17244 15.8155C5.5452 16.5566 7.03945 16.9818 8.52154 16.9818C10.113 16.9818 11.7044 16.5566 13.0772 15.7062C17.0011 13.155 18.1673 7.9434 15.7255 3.91015V3.93445ZM13.5024 12.1224C13.0772 12.7541 12.5426 13.1793 11.8016 13.2887C11.3764 13.2887 10.8419 13.4952 8.72806 12.6569C6.93011 11.8066 5.43587 10.4217 4.37896 8.83022C3.74725 8.08918 3.41925 7.12946 3.32206 6.16974C3.32206 5.31936 3.63792 4.57831 4.17244 4.04378C4.37896 3.83726 4.59763 3.72793 4.80415 3.72793H5.33868C5.5452 3.72793 5.76387 3.72793 5.87321 4.15312C6.07973 4.68764 6.61425 5.96322 6.61425 6.07255C6.72359 6.18189 6.675 6.99583 6.18906 7.45746C5.9218 7.76117 5.87321 7.77332 5.98254 7.99199C6.40773 8.6237 6.94226 9.26756 7.46464 9.80209C8.09635 10.3366 8.74021 10.7618 9.48126 11.0777C9.68778 11.187 9.90645 11.187 10.0158 10.9683C10.1251 10.7618 10.6475 10.2273 10.8662 10.0086C11.0727 9.80209 11.182 9.80209 11.4007 9.89928L13.1015 10.7497C13.308 10.859 13.5267 10.9562 13.636 11.0655C13.7453 11.3814 13.7453 11.8066 13.5267 12.1224H13.5024Z" fill="#012016"/>
</svg>
