<svg width="150" height="150" viewBox="0 0 150 150" fill="none" xmlns="http://www.w3.org/2000/svg">
<g clip-path="url(#clip0_263_156)">
<circle cx="75" cy="75" r="75" fill="#E7E3D8"/>
<path d="M68.1354 16.8943C67.8372 17.5683 67.565 17.9312 67.0206 18.3978C66.1651 19.1237 65.9578 19.6421 66.2169 20.3809C66.3077 20.6402 66.4244 21.1327 66.4762 21.4826C66.528 21.8196 66.7613 22.4936 66.9817 22.9732C67.3706 23.7768 67.3965 23.9453 67.3965 25.2025C67.3965 26.732 67.0984 28.0929 66.4244 29.5446C65.867 30.763 65.867 30.75 66.8651 32.1887C67.3188 32.8239 67.2928 32.9275 66.3077 34.1329C65.6207 35.0014 65.53 35.2994 65.8411 35.8308C65.9447 36.0123 66.0225 36.2456 66.0225 36.3493C66.0225 36.453 65.5818 36.8029 65.0374 37.1269C64.493 37.451 63.5986 38.0732 63.0542 38.5138C60.734 40.3673 60.0471 42.1301 59.6841 47.172C59.5285 49.3495 59.1008 51.9288 58.5175 54.1193C58.0119 56.1023 57.7657 56.7504 56.9362 58.5131C55.6399 61.2092 55.0307 63.1015 54.5641 65.9011C54.1104 68.5712 53.4493 70.956 53.1642 70.956C52.9698 70.956 52.5549 69.1544 52.5549 68.3119C52.5549 67.8064 52.6327 67.5862 52.9567 67.1714C53.4623 66.5363 53.5011 65.8622 53.0864 65.266C52.2957 64.1644 50.6366 64.2162 49.7163 65.3698C48.8608 66.4585 48.9774 67.4047 50.0403 68.0139C50.4033 68.2212 50.7662 68.5063 50.844 68.636C51.0124 68.8952 51.9068 72.5762 51.9068 72.978C51.9068 73.1206 51.6995 73.5094 51.4532 73.8723C50.9735 74.5334 50.6106 75.5314 50.6106 76.1665C50.6106 76.7757 51.0902 78.0071 51.7254 79.0569C52.0624 79.6142 52.2827 80.0938 52.2179 80.1586C52.0494 80.3141 49.9107 80.9234 49.1589 81.0141C48.6663 81.0789 48.4848 81.0529 48.2775 80.8715C48.1349 80.7419 47.9404 80.677 47.8108 80.7289C47.5516 80.8326 47.5904 81.2085 48.096 82.9064C48.4719 84.2414 48.7052 84.4877 48.8996 83.7619C49.107 82.9323 49.9236 82.6343 52.0494 82.6212H53.2938L53.5011 83.36C53.6178 83.7748 53.7993 84.5525 53.916 85.0839C54.0326 85.6153 54.577 87.6632 55.1474 89.6204C55.7047 91.5776 56.612 94.9605 57.1564 97.138C57.7009 99.3155 58.3749 101.882 58.6472 102.841C58.9194 103.8 59.3989 105.615 59.6971 106.859C59.9951 108.103 60.4618 109.944 60.747 110.929C61.0192 111.927 61.5895 114.117 62.0172 115.803C63.0542 119.924 63.7153 121.622 64.817 123.009L65.2448 123.553L60.2026 123.644L55.1474 123.735V125.018V126.301H53.6826H52.205L52.0494 125.757C51.5699 124.136 50.6106 122.931 49.0811 122.037C47.7719 121.259 47.7071 121.272 47.6035 122.283C47.4349 123.813 47.6942 125.64 48.2126 126.69C48.5367 127.312 49.2626 128.141 49.8978 128.608C50.4422 128.997 50.0922 128.971 48.6793 128.504C46.8127 127.896 46.1776 127.597 46.2683 127.351C46.4758 126.846 46.6054 125.381 46.5276 124.486C46.3072 121.933 45.7499 120.858 43.8833 119.393C43.4556 119.055 43.0796 118.836 43.0278 118.913C42.8463 119.211 42.5483 120.43 42.4445 121.324C42.2372 123.229 42.6519 124.707 43.7537 125.964C44.0389 126.288 44.2204 126.56 44.1555 126.56C44 126.56 42.4705 125.704 41.3039 124.966C40.604 124.525 40.4873 124.409 40.5651 124.175C41.1224 122.491 41.2909 121.519 41.252 120.209C41.2131 118.977 41.1742 118.758 40.7984 118.005C40.3318 117.06 39.2299 115.633 38.9319 115.569C38.6726 115.517 38.0244 116.93 37.7134 118.226C37.3634 119.665 37.4671 120.87 38.0633 122.01C38.3226 122.516 38.4781 122.931 38.4263 122.931C38.2966 122.931 36.0283 121.038 35.6006 120.572L35.3024 120.235L35.6913 119.626C36.132 118.939 36.6634 117.409 36.8449 116.321C37.0653 115.103 36.7542 113.728 36.0283 112.497C35.2765 111.253 35.2895 111.253 34.6933 112.121C33.1507 114.415 32.8008 116.075 33.5007 117.902C33.6433 118.278 33.734 118.602 33.6951 118.628C33.6174 118.719 32.049 116.943 31.0638 115.66C30.9342 115.478 30.986 115.349 31.4268 114.817C33.2156 112.679 33.7729 110.371 33.0341 108.181C32.5674 106.755 32.4637 106.69 31.8027 107.313C30.5065 108.57 29.4954 110.514 29.4825 111.745C29.4825 112.043 29.5473 112.588 29.625 112.951C29.7028 113.314 29.7417 113.65 29.7028 113.677C29.625 113.754 28.4844 111.927 27.9011 110.799L27.4863 110.009L28.4584 109.049C30.5583 106.976 31.1935 105.317 30.7658 102.906C30.688 102.478 30.5842 102.037 30.5324 101.947C30.2602 101.519 27.8493 103.671 27.2141 104.915C26.903 105.511 26.8252 105.848 26.7605 106.989C26.6956 108.129 26.6567 108.298 26.5401 108.026C26.1383 107.118 25.7883 106.159 25.4513 105.109C25.1402 104.124 25.1013 103.917 25.2698 103.813C25.3606 103.735 25.7753 103.476 26.1772 103.23C26.5919 102.984 27.3438 102.335 27.8622 101.791C29.0417 100.56 29.3658 99.795 29.4565 98.0841C29.5343 96.4639 29.5214 96.425 28.7566 96.7621C27.8751 97.125 26.4623 98.0971 25.9827 98.6545C25.3995 99.3155 24.9717 100.301 24.868 101.195C24.8162 101.597 24.7384 101.973 24.6865 101.998C24.492 102.115 23.6885 97.9546 23.831 97.5916C23.8699 97.4879 23.9865 97.3972 24.1032 97.3972C24.492 97.3972 26.203 96.4899 26.9938 95.8807C28.3418 94.8308 29.0028 93.6254 29.1843 91.9275C29.275 91.0332 29.2362 91.0072 27.8493 91.4868C25.5939 92.2515 24.5309 93.2625 23.9607 95.1549C23.8569 95.5307 23.7014 95.8418 23.6366 95.8418C23.494 95.8418 23.481 91.1757 23.6236 90.9684C23.6754 90.8906 24.0125 90.7739 24.3625 90.7221C26.4883 90.4111 28.5233 89.1797 29.2492 87.7539C29.5343 87.2095 30.001 85.9134 30.001 85.6931C30.001 85.4728 28.2251 85.7061 27.1752 86.069C25.6717 86.5745 24.9328 87.2095 24.2329 88.5835C24.0254 88.9723 23.844 89.2315 23.8181 89.1408C23.7662 88.9853 24.1421 86.6004 24.4662 85.0191L24.6347 84.2414L25.7105 84.2155C26.9289 84.1766 28.4973 83.7878 29.301 83.3211C29.5992 83.1527 30.1047 82.725 30.4158 82.375C31.0509 81.6751 31.8027 80.353 31.6471 80.2104C31.5953 80.1586 30.9602 80.1197 30.2343 80.1197C28.0437 80.1068 26.7474 80.6512 25.7624 81.9862C25.4902 82.3361 25.2309 82.6212 25.1791 82.6212C25.0753 82.6212 25.892 80.1975 26.4883 78.7459C26.7086 78.2273 26.916 77.9033 27.0067 77.9293C29.4825 78.4737 31.6471 78.1107 33.047 76.8794C33.747 76.2702 34.3562 75.3888 34.1877 75.2203C33.9933 75.0259 32.3471 74.7148 31.4786 74.7148C31.0509 74.7148 30.4027 74.8055 30.0269 74.9093C29.3917 75.1037 28.1733 75.9332 27.8233 76.4257C27.7326 76.5553 27.6029 76.659 27.5252 76.659C27.3696 76.659 28.0955 75.2074 29.1714 73.4057C29.8454 72.2652 30.0658 71.993 30.2343 72.0578C31.6471 72.654 33.2545 72.9651 34.3303 72.8744C34.6933 72.8484 35.3154 72.6669 35.7043 72.4855C36.5079 72.1226 37.9467 70.9949 37.843 70.8264C37.7004 70.6061 36.2616 70.0228 35.3802 69.8284C33.9025 69.5173 32.7748 69.7766 31.4009 70.7746C31.038 71.0209 30.7269 71.2024 30.688 71.1764C30.6102 71.0857 32.3471 68.9082 33.41 67.7806C34.1618 66.9769 34.2784 66.8862 34.4988 67.0418C35.0821 67.4565 36.6894 68.1305 37.5189 68.3119C38.7892 68.5971 39.6188 68.4805 40.9409 67.8064C41.5113 67.5084 41.9908 67.1843 41.9908 67.0807C41.9908 66.8603 40.5651 65.9919 39.6318 65.6419C38.6466 65.279 37.4931 65.292 36.3912 65.7067C35.8987 65.9011 35.458 66.0955 35.3932 66.1604C35.1339 66.4196 35.0302 66.277 35.2635 66.0178C35.5746 65.6549 37.48 64.0606 38.53 63.257L39.3466 62.6349L39.8262 63.0626C41.1095 64.1902 42.8594 64.9938 44.0518 64.9938C44.9592 64.9938 46.722 64.4365 46.722 64.1384C46.722 63.8662 45.1666 62.5442 44.4018 62.1813C43.4815 61.7405 42.3927 61.6498 41.3298 61.9349C40.4095 62.1682 40.1891 62.1942 40.2929 62.0257C40.3836 61.8831 43.4426 60.0815 44.2722 59.6797L44.8814 59.3816L45.9703 60.4962C47.6293 62.1942 49.0811 62.7645 50.9347 62.4146C51.3495 62.3368 51.7513 62.2202 51.8161 62.1553C51.9587 62.0127 51.1032 60.8333 50.3773 60.1722C49.3403 59.239 48.9256 59.0964 47.1498 59.0964C46.2813 59.0964 45.6072 59.0575 45.6592 59.0186C45.711 58.9798 46.2943 58.7206 46.9683 58.4354C47.6424 58.1632 48.1219 57.917 48.0571 57.904C47.9923 57.8781 47.6553 57.9818 47.3053 58.1243C46.5665 58.4354 46.398 58.3706 46.9294 57.9688C48.4848 56.7893 49.0811 55.3377 48.8737 53.3027C48.7441 52.1621 48.6663 52.0584 48.1219 52.3177C47.4479 52.6287 46.4239 53.6268 46.0998 54.2748C45.6721 55.1302 45.3999 56.5949 45.4388 57.7874L45.4777 58.7984L43.676 59.7316C42.6779 60.25 41.6539 60.7944 41.4075 60.9499C40.7076 61.3906 40.7076 61.2999 41.3817 60.4704C42.2501 59.3816 42.4964 58.6298 42.4057 57.3077C42.3408 56.2968 41.8872 54.6247 41.6797 54.6247C41.4335 54.6247 39.9558 56.3487 39.7096 56.9189C39.3207 57.7874 39.2299 59.6927 39.5151 60.8851C39.6318 61.3776 39.7225 61.8183 39.7225 61.8831C39.7225 61.948 39.3336 62.272 38.8541 62.6219C38.3615 62.959 37.48 63.6329 36.8709 64.1124C36.2616 64.5921 35.7432 64.9938 35.6913 64.9938C35.6524 64.9938 35.821 64.5921 36.0543 64.1124C36.819 62.583 36.7672 61.3258 35.8598 59.4464C35.5357 58.7984 35.3284 58.5131 35.1988 58.5391C34.9006 58.5909 33.9285 60.1074 33.6951 60.8721C33.3322 62.1035 33.5267 63.7107 34.2396 65.292L34.5895 66.0697L33.8118 66.7436C33.397 67.1195 32.6452 67.8972 32.1526 68.4805C31.6601 69.0507 31.2324 69.5044 31.1935 69.4784C31.1675 69.4396 31.2324 69.1415 31.349 68.8045C31.8804 67.2362 31.3231 65.3309 29.8195 63.6329C29.5343 63.3089 29.4565 63.27 29.3399 63.4385C28.7695 64.2939 28.3159 65.6549 28.3159 66.5363C28.3159 67.625 28.977 69.4266 29.7676 70.5672L30.0917 71.0079L29.2103 72.3429C28.7306 73.0688 28.1473 74.0149 27.914 74.4556C27.6678 74.8833 27.4345 75.2333 27.3956 75.2333C27.3438 75.2333 27.3696 74.987 27.4345 74.676C27.7715 73.1984 27.1623 71.6301 25.6586 70.1006C24.8809 69.297 24.6476 69.1285 24.5569 69.2711C24.2587 69.7506 23.9865 70.9691 23.9865 71.9412C23.9736 72.9262 24.0125 73.0558 24.5309 74.1187C24.8939 74.8315 25.3735 75.5443 25.8531 76.0498L26.6179 76.8664L25.9308 78.4866C25.542 79.368 25.1273 80.4308 24.9976 80.8326C24.868 81.2474 24.7254 81.5844 24.6735 81.5844C24.6347 81.5844 24.5569 81.1048 24.5309 80.5086C24.4402 78.7847 23.7014 77.683 21.783 76.4257C20.759 75.7518 20.7331 75.7776 20.5905 77.035C20.4738 78.1755 20.7201 79.4587 21.2127 80.2493C21.8478 81.2474 22.6644 82.1546 23.4421 82.6861C23.844 82.9583 24.168 83.2434 24.168 83.3211C24.168 83.3989 24.0254 84.0211 23.8569 84.6951C23.6885 85.3691 23.4681 86.38 23.3774 86.9244C23.2866 87.4817 23.157 87.9354 23.1052 87.9354C23.0533 87.9354 23.0014 87.8317 23.0014 87.7021C23.0014 87.5725 22.8719 87.0929 22.7163 86.6263C22.3274 85.4728 21.3423 84.4877 19.8646 83.8008C18.1796 83.0101 18.2055 83.0101 18.2055 83.7489C18.2055 85.3042 18.698 86.6911 19.5924 87.6892C20.1627 88.3113 21.3942 89.2186 22.2497 89.6334L22.8588 89.9314L22.7811 92.1997C22.7422 93.4569 22.6904 94.4939 22.6774 94.5197C22.6515 94.5457 22.4959 94.2475 22.3274 93.8717C21.9386 93.0292 21.4589 92.446 20.746 91.9664C20.1239 91.5387 18.6721 90.9943 17.687 90.8128L17 90.6832L17.0778 91.2924C17.1685 92.0571 17.5833 93.1588 18.0629 93.9235C18.698 94.9216 20.6165 96.1399 22.1978 96.5417C22.7292 96.6843 22.807 96.7491 22.8459 97.0861C22.8588 97.2935 23.0014 98.2397 23.1441 99.1858C23.2866 100.145 23.3903 100.949 23.3514 100.974C23.3125 101.013 23.1699 100.845 23.0144 100.586C22.12 99.1469 20.3054 98.3045 18.0369 98.3045C16.8574 98.3045 16.8704 98.2397 17.6222 99.808C18.5425 101.7 20.1887 102.737 22.9237 103.152L23.9607 103.308L24.1162 103.813C24.194 104.098 24.4662 104.941 24.6995 105.692C24.9458 106.444 25.1531 107.144 25.1791 107.248C25.218 107.351 24.9328 107.157 24.5698 106.82C24.2069 106.47 23.5718 106.042 23.157 105.848C22.47 105.524 22.3015 105.498 20.7331 105.498C19.7221 105.511 18.9055 105.576 18.6851 105.667L18.3351 105.822L18.8147 106.613C20.1109 108.699 21.8997 109.568 24.8809 109.581H26.1901L26.6697 110.553C26.9289 111.097 27.3827 111.914 27.6678 112.381C27.9529 112.847 28.1862 113.288 28.1862 113.353C28.1862 113.431 27.9659 113.3 27.7067 113.093C26.566 112.186 25.192 111.888 23.4292 112.173C22.2366 112.355 21.0571 112.769 21.0571 113.003C21.0571 113.262 22.3144 114.481 23.131 115.011C24.1291 115.66 25.1791 115.867 26.9419 115.764C27.6678 115.725 28.5362 115.595 28.8733 115.492L29.4954 115.31L30.1047 116.087C30.4416 116.528 31.0509 117.293 31.4657 117.786C31.8804 118.278 32.1915 118.705 32.1657 118.732C32.1397 118.77 31.7768 118.628 31.362 118.447C30.4416 118.019 29.1584 117.902 28.0437 118.136C27.1882 118.316 24.8809 119.405 24.8809 119.626C24.8939 119.847 26.7345 121.091 27.5122 121.388C28.8733 121.907 30.9991 121.713 33.0081 120.87L33.9025 120.494L35.0562 121.57C35.6913 122.166 36.4301 122.814 36.6765 123.009C36.9356 123.203 37.1171 123.385 37.0912 123.41C37.0653 123.437 36.7023 123.371 36.2746 123.255C34.8099 122.879 33.5785 123.048 32.1008 123.838C31.2713 124.279 29.8714 125.329 29.8714 125.51C29.8714 125.692 30.6491 126.146 31.5824 126.508C32.6841 126.949 34.0711 127.053 35.1728 126.754C36.2616 126.482 37.5189 125.899 38.3097 125.329C38.6596 125.082 38.9707 124.875 39.0096 124.875C39.0485 124.875 39.5929 125.213 40.2151 125.627C40.8373 126.042 41.589 126.521 41.9001 126.69C42.1983 126.858 42.4445 127.026 42.4445 127.065C42.4445 127.104 41.8742 127.143 41.1742 127.143C39.9688 127.143 39.878 127.169 38.9577 127.649C38.2708 127.999 37.6875 128.453 36.9098 129.23C36.3005 129.826 35.8339 130.397 35.8598 130.487C35.8857 130.565 36.3134 130.786 36.819 130.954C37.5319 131.213 37.9856 131.278 39.0096 131.278C40.1632 131.291 40.3965 131.252 41.1353 130.915C42.2501 130.436 43.1316 129.865 44.0129 129.048C44.4148 128.673 44.7906 128.375 44.8555 128.375C44.9073 128.375 45.7499 128.686 46.7091 129.075C47.6812 129.464 49.0423 129.943 49.7422 130.137L50.9995 130.501V131.77V133.041H75.433H99.8535L99.8924 131.654L99.9313 130.254L101.215 129.84C101.927 129.606 103.081 129.179 103.794 128.88C104.65 128.518 105.142 128.375 105.246 128.453C105.336 128.518 105.803 128.907 106.283 129.308C106.762 129.709 107.708 130.332 108.383 130.669L109.614 131.291H110.936C111.96 131.291 112.452 131.213 113.191 130.98C113.71 130.812 114.163 130.617 114.202 130.552C114.241 130.487 113.736 129.891 113.075 129.243C112.194 128.375 111.61 127.921 110.949 127.597C110.094 127.169 109.964 127.143 108.784 127.143C107.566 127.143 107.229 127.053 107.761 126.885C107.903 126.846 108.668 126.379 109.472 125.847C110.275 125.316 110.962 124.875 110.988 124.875C111.014 124.875 111.222 125.018 111.441 125.186C112.051 125.653 113.541 126.365 114.566 126.677C115.68 127.014 116.834 127.026 117.896 126.69C118.804 126.404 120.088 125.718 120.088 125.524C120.088 125.329 118.7 124.279 117.858 123.838C116.38 123.048 115.084 122.866 113.749 123.268C113.373 123.371 113.01 123.449 112.945 123.424C112.88 123.398 113.166 123.113 113.58 122.775C113.982 122.438 114.721 121.791 115.227 121.337L116.121 120.508L116.782 120.805C118.377 121.505 120.36 121.855 121.513 121.635C122.446 121.453 123.613 120.896 124.482 120.209C125.298 119.561 125.285 119.548 123.885 118.861C121.967 117.902 120.139 117.759 118.61 118.447C118.195 118.628 117.832 118.783 117.793 118.783C117.767 118.783 118.234 118.187 118.817 117.461C119.413 116.722 120.01 115.958 120.165 115.75L120.438 115.375L121.578 115.608C122.407 115.764 123.121 115.815 124.106 115.776C125.933 115.699 126.801 115.31 128.137 113.975C129.031 113.093 129.07 113.042 128.823 112.86C128.422 112.562 126.97 112.173 125.959 112.082C124.611 111.966 123.6 112.225 122.589 112.912C122.135 113.21 121.772 113.443 121.772 113.404C121.772 113.366 122.071 112.834 122.421 112.212C122.783 111.59 123.224 110.747 123.418 110.333L123.768 109.581H125.143C126.711 109.581 128.215 109.27 129.083 108.751C129.381 108.583 129.912 108.129 130.276 107.74C130.911 107.066 131.715 105.861 131.598 105.757C131.468 105.615 130.107 105.433 129.277 105.433C127.54 105.433 126.555 105.783 125.428 106.794C125.051 107.131 124.754 107.377 124.754 107.339C124.754 107.313 124.844 107.066 124.948 106.794C125.065 106.535 125.35 105.641 125.583 104.811L126.024 103.308L127.126 103.139C129.343 102.828 131.144 101.856 131.999 100.534C132.401 99.9117 132.92 98.7192 132.92 98.4341C132.92 98.2526 131.195 98.2656 130.288 98.447C128.759 98.7581 127.722 99.4969 126.724 100.974C126.582 101.195 126.568 101.156 126.633 100.702C126.685 100.417 126.815 99.4062 126.932 98.46L127.151 96.7232L128.059 96.4381C129.99 95.8289 131.52 94.7401 132.181 93.5347C132.544 92.8737 133.101 90.9684 132.984 90.7869C132.906 90.6702 131.961 90.8517 130.884 91.1887C129.316 91.6942 128.007 92.8219 127.579 94.0273C127.515 94.2475 127.411 94.4161 127.359 94.4161C127.294 94.4161 127.243 93.7291 127.229 92.8866C127.216 92.0571 127.178 91.0461 127.139 90.6573L127.061 89.9444L128.085 89.4259C128.798 89.063 129.381 88.6353 130.081 87.9354C131.312 86.7171 131.649 85.9653 131.676 84.3063C131.688 82.9971 131.727 83.0101 130.107 83.8008C128.383 84.6303 127.398 85.7708 127.074 87.2873C126.932 87.9614 126.698 88.0521 126.698 87.4428C126.698 87.2484 126.49 86.2245 126.244 85.1487C125.843 83.4249 125.817 83.2045 125.998 83.1009C126.516 82.8027 127.593 81.8177 128.162 81.1307C129.2 79.8346 129.355 79.4069 129.355 77.7607C129.355 76.9701 129.316 76.2313 129.265 76.1017C129.173 75.8814 129.122 75.8943 128.5 76.2184C128.137 76.4257 127.476 76.9183 127.022 77.333C125.985 78.2922 125.518 79.1736 125.44 80.379C125.35 81.701 125.272 81.7399 124.935 80.703C124.767 80.1715 124.365 79.1476 124.04 78.4088C123.406 76.9701 123.354 76.7239 123.639 76.5684C124.002 76.3609 125.143 74.8315 125.557 73.9631C125.946 73.1724 125.985 72.991 125.985 71.9281C125.985 70.7098 125.635 69.2711 125.35 69.2711C125.117 69.2711 123.833 70.5543 123.34 71.2542C122.693 72.2003 122.511 72.8613 122.563 74.1187C122.589 74.7148 122.576 75.1815 122.524 75.1555C122.485 75.1296 122.239 74.7408 121.993 74.2871C121.733 73.8465 121.176 72.9262 120.735 72.2522C120.01 71.1635 119.945 71.0079 120.1 70.7616C121.318 68.8563 121.578 68.1175 121.578 66.4844C121.578 65.4086 121.539 65.2401 121.099 64.3069C120.839 63.7625 120.567 63.3089 120.502 63.3089C120.36 63.3089 119.284 64.7994 118.96 65.4475C118.817 65.7326 118.623 66.2641 118.532 66.6399C118.35 67.3269 118.363 67.4176 118.739 69.2063C118.817 69.5822 118.804 69.5822 118.324 69.0118C118.052 68.6878 117.3 67.8842 116.639 67.2232L115.447 66.0048L115.758 65.3438C116.212 64.3457 116.496 62.933 116.432 61.8442C116.38 60.7555 115.966 59.7705 115.188 58.902L114.695 58.3447L114.294 59.1094C113.852 59.9519 113.541 60.8851 113.412 61.7147C113.308 62.3757 113.619 63.6718 114.06 64.4365C114.241 64.7346 114.384 65.0068 114.384 65.0457C114.384 65.0845 113.917 64.7476 113.347 64.281C112.777 63.8273 111.844 63.1145 111.273 62.7256C110.702 62.3238 110.236 61.9609 110.236 61.922C110.236 61.8831 110.327 61.4943 110.444 61.0536C110.586 60.4833 110.638 59.8612 110.599 58.8372C110.561 57.593 110.508 57.3208 110.197 56.7375C109.822 56.0116 108.486 54.5729 108.291 54.6896C108.097 54.8062 107.657 56.3487 107.566 57.23C107.45 58.3965 107.734 59.3168 108.551 60.3926C109.199 61.2481 109.238 61.4036 108.694 61.0147C108.525 60.8981 107.514 60.3537 106.451 59.8093L104.52 58.8113L104.481 57.2041C104.442 55.2469 104.183 54.4563 103.237 53.4193C102.64 52.7713 101.526 52.0195 101.37 52.1751C101.331 52.2139 101.24 52.6676 101.163 53.186C100.839 55.221 101.435 56.7116 103.042 57.9429C103.301 58.1373 103.483 58.3058 103.457 58.3318C103.431 58.3576 103.081 58.254 102.666 58.1114C101.448 57.6707 101.72 57.904 103.055 58.4484C103.729 58.7206 104.312 58.9928 104.351 59.0446C104.377 59.0964 103.885 59.1094 103.25 59.0705C101.85 58.9798 101.085 59.1483 100.165 59.7445C99.4128 60.2371 97.9481 61.9609 98.1296 62.1294C98.298 62.2979 99.5295 62.5312 100.178 62.5312C101.616 62.5312 103.47 61.4165 104.688 59.8093L105.038 59.3686L105.842 59.7445C106.296 59.9649 107.242 60.4833 107.955 60.911C110.262 62.2979 110.301 62.3497 108.914 61.9868C107.553 61.6239 106.503 61.7147 105.428 62.2849C104.481 62.7904 103.146 63.9699 103.275 64.1902C103.431 64.4235 104.766 64.8643 105.569 64.955C106.892 65.0845 108.927 64.2551 110.133 63.0885L110.612 62.6219L111.572 63.3478C112.802 64.268 115.045 66.1863 114.98 66.2511C114.955 66.2899 114.708 66.1993 114.423 66.0566C112.336 65.0068 110.43 65.2012 108.447 66.6659L107.89 67.0807L108.201 67.3398C108.772 67.7806 110.119 68.3508 110.833 68.4416C111.999 68.5841 114.19 67.9231 115.46 67.0418C115.68 66.8862 115.81 66.9899 116.705 67.9361C117.806 69.0767 119.504 71.2153 119.323 71.2153C119.257 71.2153 118.83 70.956 118.35 70.632C117.235 69.8803 116.277 69.6081 115.278 69.7117C114.228 69.8414 112.18 70.5802 112.18 70.8394C112.18 71.0209 113.49 72.1096 114.047 72.3689C115.045 72.8613 115.927 72.978 117.196 72.7836C117.832 72.6929 118.688 72.4855 119.115 72.304L119.893 71.993L120.113 72.2911C120.58 72.9002 122.55 76.3869 122.55 76.6072C122.55 76.6461 122.213 76.3998 121.811 76.0369C120.502 74.9093 120.127 74.7797 118.402 74.7926C116.938 74.8055 115.81 75.0259 115.719 75.311C115.641 75.5443 116.821 76.8794 117.469 77.3071C118.377 77.9033 119.31 78.1366 120.8 78.1366C121.513 78.1366 122.317 78.0718 122.589 77.994L123.068 77.8385L123.379 78.4477C123.782 79.2383 124.91 82.5046 124.818 82.5954C124.779 82.6343 124.65 82.5305 124.533 82.349C124.002 81.5973 123.25 80.9234 122.602 80.6123C121.799 80.2364 120.295 80.0031 119.284 80.1068C118.207 80.2234 118.221 80.1975 118.61 80.9622C119.673 83.0749 121.241 84.0081 123.963 84.1637L125.324 84.2414L125.428 84.6303C125.622 85.2784 126.167 88.4927 126.179 88.9464C126.179 89.3612 126.154 89.3352 125.739 88.5446C125.505 88.0909 125.117 87.4948 124.871 87.2355C124.313 86.6134 123.068 86.0301 121.824 85.7968C120.917 85.6153 119.957 85.5375 119.957 85.6413C119.957 85.8097 120.502 87.2095 120.774 87.7539C121.435 89.063 123.107 90.1647 125.078 90.5925C125.648 90.7221 126.193 90.8388 126.283 90.8646C126.4 90.9035 126.439 91.5127 126.439 93.3792C126.439 94.7272 126.387 95.8418 126.322 95.8418C126.257 95.8418 126.14 95.5696 126.062 95.2456C125.674 93.7162 124.754 92.6404 123.172 91.8886C122.226 91.435 120.93 91.0721 120.774 91.2146C120.645 91.3443 120.943 92.8477 121.267 93.7032C121.695 94.8438 122.887 95.9973 124.482 96.788C125.143 97.125 125.804 97.3972 125.946 97.3972C126.193 97.3972 126.205 97.4491 126.14 98.2008C126.05 99.16 125.557 101.649 125.415 101.921C125.337 102.037 125.246 101.791 125.155 101.208C125.065 100.715 124.857 100.015 124.676 99.6395C124.248 98.7452 123.082 97.7082 121.746 97.0213C120.774 96.5158 120.671 96.4899 120.593 96.7103C120.307 97.4231 120.58 99.4191 121.085 100.443C121.513 101.286 123.056 102.815 124.015 103.359C124.429 103.593 124.805 103.865 124.844 103.969C124.935 104.215 123.483 108.285 123.289 108.285C123.276 108.285 123.25 107.727 123.25 107.053C123.237 105.952 123.185 105.731 122.835 105.005C122.589 104.513 122.122 103.891 121.668 103.45C120.956 102.737 119.75 101.804 119.556 101.804C119.427 101.804 119.193 102.815 119.102 103.839C119.038 104.578 119.077 104.928 119.296 105.667C119.711 107.04 120.995 108.79 122.213 109.659L122.589 109.931L121.928 111.11C121.06 112.64 120.334 113.767 120.268 113.689C120.243 113.664 120.282 113.327 120.36 112.951C120.606 111.771 120.463 110.67 119.893 109.594C119.323 108.505 117.728 106.716 117.508 106.924C117.223 107.209 116.691 108.907 116.627 109.775C116.51 111.266 117.223 113.171 118.48 114.7C119.038 115.4 119.063 115.439 118.869 115.737C118.532 116.243 116.445 118.654 116.341 118.654C116.289 118.654 116.38 118.265 116.535 117.786C117.106 116.126 116.821 114.558 115.616 112.627C114.773 111.279 114.76 111.266 114.255 112.043C112.777 114.338 112.738 116.347 114.086 119.159L114.669 120.365L113.917 121.038C112.829 122.01 111.662 122.931 111.519 122.931C111.455 122.931 111.545 122.71 111.713 122.452C112.79 120.831 112.738 118.693 111.572 116.243C111.39 115.854 111.183 115.543 111.118 115.543C110.833 115.543 109.718 116.969 109.186 118.005C108.745 118.836 108.745 118.874 108.758 120.469C108.772 121.765 108.836 122.27 109.057 122.996C109.549 124.538 109.627 124.409 107.708 125.549C106.789 126.107 105.946 126.56 105.855 126.56C105.751 126.56 105.933 126.262 106.257 125.912C107.411 124.629 107.812 123.152 107.54 121.207C107.384 120.092 107.203 119.366 107.008 119.043C106.827 118.77 106.412 119.03 105.389 120.027C103.885 121.492 103.418 122.866 103.535 125.485C103.574 126.327 103.638 127.143 103.69 127.299C103.768 127.546 103.703 127.61 103.289 127.792C102.252 128.219 100.1 128.907 100.022 128.841C99.9832 128.79 100.281 128.465 100.683 128.103C101.992 126.936 102.563 125.199 102.42 122.775C102.381 122.063 102.316 121.453 102.29 121.415C102.161 121.285 100.359 122.335 99.711 122.918C98.8944 123.657 98.4018 124.396 98.0518 125.471L97.7667 126.301H96.7426H95.7186V125.005V123.709H90.8708C87.9154 123.709 85.9841 123.657 85.9322 123.579C85.8933 123.514 85.9193 122.802 85.9971 121.998C86.4248 117.526 87.0859 111.629 87.4229 109.192C87.6692 107.494 87.8118 105.9 87.7988 105.109C87.7988 104.02 87.8636 103.528 88.2654 101.998C88.9135 99.5099 88.9784 98.3563 88.5506 96.7491C88.1487 95.2716 87.6174 92.6663 87.4229 91.2405C87.3452 90.6702 87.1896 89.7241 87.073 89.1279C86.8915 88.1558 86.8915 88.0132 87.073 87.5725C87.8377 85.7968 87.7599 84.9932 86.347 79.8864C86.0489 78.8106 85.8156 77.5793 85.686 76.322C85.5693 75.2592 85.4138 73.9242 85.3489 73.3539C85.2842 72.7836 85.1675 71.7597 85.0898 71.0857C85.0249 70.4117 84.8953 69.4915 84.8045 69.0507C84.6749 68.3768 84.6879 68.1305 84.8823 67.4306C85.2842 65.953 85.2064 65.3309 84.4546 63.7496C84.0787 62.9848 83.6768 61.9738 83.5472 61.4943C83.4177 61.0277 83.1843 60.3926 83.0417 60.1074C82.588 59.2131 82.3418 56.3487 82.6269 55.1173C82.6917 54.8062 82.8084 53.3286 82.8862 51.8381C83.0547 48.5977 83.2362 47.6127 83.9879 45.9147C84.9601 43.7114 85.9322 42.4282 87.3452 41.5079C88.5247 40.7432 91.5189 39.8359 93.7095 39.5897C94.4224 39.5119 95.4205 39.3433 95.9131 39.2008C96.4186 39.0711 96.963 38.9416 97.1445 38.9156C97.5463 38.8638 97.5333 38.9027 96.95 40.8209C96.7037 41.5986 96.4186 42.6874 96.3019 43.2188C96.1853 43.7503 95.926 44.5668 95.7186 45.0334C95.4724 45.5907 95.3686 45.9925 95.4205 46.2388C95.6538 47.3794 98.2722 48.1053 101.837 47.9886C103.911 47.9108 105.038 47.6387 105.868 47.0165C106.866 46.2518 106.801 45.3704 105.569 42.8948C104.727 41.1839 102.977 36.116 102.977 35.3642C102.977 35.118 103.094 34.7032 103.224 34.431C103.353 34.1718 103.677 33.2774 103.937 32.4609C104.196 31.6314 104.481 30.8666 104.559 30.75C104.701 30.5815 108.019 28.9613 108.227 28.9613C108.253 28.9613 108.719 28.7021 109.264 28.3911C109.795 28.067 110.262 27.8467 110.288 27.8985C110.314 27.9503 109.899 29.5705 109.341 31.4888C108.797 33.42 107.968 36.3104 107.514 37.9435C106.685 40.8728 106.672 40.8987 106.192 41.2098C105.324 41.793 105.647 42.5189 107.047 43.167C108.201 43.6983 109.458 43.9058 111.468 43.8928C114.708 43.8798 116.821 43.2188 117.158 42.1041C117.262 41.7801 116.743 41.0802 116.328 40.9506C116.134 40.8858 115.939 40.471 115.563 39.2915C115.278 38.4231 114.578 36.3363 113.995 34.6643C112.738 31.0481 111.533 27.3153 111.338 26.395C111.286 26.1617 111.169 25.8895 111.052 25.7858C110.651 25.371 109.134 25.6432 107.086 26.4987C106.529 26.732 106.05 26.8875 106.011 26.8486C105.972 26.8098 106.179 26.3172 106.464 25.7599C106.775 25.1637 107.1 24.2175 107.268 23.5046C107.553 22.2862 107.553 22.2862 108.422 21.4438C109.679 20.2384 110.184 19.1366 109.861 18.3071C109.472 17.2832 107.54 16.4018 106.322 16.687C105.466 16.8814 105.414 16.9332 104.883 17.9572C104.481 18.7478 104.338 19.2403 104.079 20.8087C103.911 21.8585 103.638 23.025 103.496 23.4009C103.016 24.6322 101.616 27.1986 100.307 29.2465C97.3389 33.8996 97.6111 33.5885 96.1593 34.0422C95.3298 34.2884 94.928 34.3144 90.793 34.3403C86.9952 34.3533 86.023 34.4051 84.3768 34.6384C83.3139 34.7939 82.238 34.9236 82.0178 34.9236H81.59V34.1718C81.59 33.77 81.7067 32.9405 81.8492 32.3572C82.0696 31.437 82.0955 31.1388 81.9789 30.426C81.8233 29.5057 81.6547 29.1168 81.0067 28.1967C80.7734 27.8726 80.4493 27.3412 80.2937 27.0301C80.0086 26.4598 80.0086 26.4469 80.2419 25.6951C80.3975 25.1507 80.579 24.8526 80.8901 24.6193C81.1103 24.4508 81.4603 23.9971 81.6418 23.6342C81.927 23.0639 81.9658 22.8436 81.9011 22.2862C81.8492 21.8844 81.8751 21.5086 81.9658 21.3401C82.0696 21.1457 82.0566 20.8864 81.927 20.3161C81.8233 19.9014 81.7067 19.4088 81.6678 19.2015C81.6029 18.9422 81.4345 18.7737 81.0196 18.5923C80.6048 18.3849 80.3975 18.1775 80.1901 17.7498C80.0346 17.4257 79.7753 16.9073 79.6197 16.5833L79.3346 16L78.168 16.013C77.0144 16.013 77.0014 16.013 77.3125 16.2333C77.831 16.5962 78.3624 17.0628 78.3105 17.1147C78.2847 17.1536 77.9347 17.0239 77.5199 16.8425C77.1181 16.661 76.7292 16.5185 76.6644 16.5185C76.5995 16.5185 76.9625 16.9462 77.481 17.4776C78.168 18.1905 78.6347 18.5534 79.2568 18.8385C79.9826 19.1755 80.0604 19.2403 79.8142 19.3181C79.6068 19.3699 79.516 19.4996 79.516 19.7199C79.516 20.0439 78.9976 20.6661 78.7254 20.6661C78.6347 20.6661 78.6994 20.5105 78.8809 20.3161C79.1531 20.018 79.1531 19.9921 78.9327 20.0958C78.4013 20.3291 77.2866 20.2124 76.5348 19.8366C75.2645 19.1885 74.5386 18.2682 74.1886 16.8295C74.0072 16.0518 73.8128 15.8056 73.8128 16.324C73.8128 16.9073 73.4886 18.009 73.1517 18.5404C72.6851 19.3051 71.674 19.6551 68.8871 20.0569C68.6149 20.0958 68.6409 20.1217 69.1205 20.2513C69.7686 20.4457 69.7945 20.5883 69.3538 21.5345C69.0038 22.2733 68.5501 22.6492 68.0835 22.5844C67.7076 22.5325 67.6168 22.0141 67.9021 21.4567C68.0187 21.2493 68.1094 20.9642 68.0965 20.8346C68.0965 20.6402 68.0705 20.6531 67.9539 20.8864C67.7983 21.1975 67.4224 21.379 67.2021 21.2493C67.1373 21.2105 67.0724 21.0031 67.0724 20.7957C67.0724 20.3939 67.6299 19.5773 68.6149 18.5404C69.3797 17.7368 68.8483 17.9831 67.9021 18.8774C67.2539 19.4866 66.9428 19.6421 66.9428 19.357C66.9428 19.2792 67.6168 18.5275 68.4334 17.7109C69.2501 16.8814 69.8982 16.1815 69.8593 16.1555C69.8333 16.1296 69.5871 16.2333 69.3149 16.4018L68.8223 16.7129L69.0556 16.35L69.276 16H68.9131C68.5631 16 68.4983 16.0907 68.1354 16.8943ZM107.229 17.3998C107.514 17.7757 107.346 20.2124 107.022 20.2124C106.905 20.2124 106.84 19.9532 106.814 19.3699C106.789 18.9033 106.723 18.1905 106.672 17.7757C106.581 17.0758 106.581 17.0369 106.814 17.1147C106.944 17.1665 107.139 17.2961 107.229 17.3998ZM108.422 18.1905C108.422 18.5015 107.929 20.1476 107.838 20.1476C107.812 20.1476 107.864 17.9701 107.903 17.2961C107.929 17.0499 108.422 17.9183 108.422 18.1905ZM106.283 17.8405C106.412 18.6052 106.412 19.357 106.296 19.3699C106.127 19.3829 105.686 17.9312 105.778 17.6461C105.894 17.2702 106.205 17.3998 106.283 17.8405ZM109.329 18.5923C109.601 19.1107 108.888 20.9253 108.408 20.9253C108.111 20.9253 108.097 20.9383 108.538 19.7588C108.68 19.3699 108.823 18.8904 108.875 18.683C108.953 18.2682 109.134 18.2294 109.329 18.5923ZM74.1239 19.4218C74.2405 19.694 74.6034 20.0958 75.0571 20.4328C75.4718 20.7438 75.9774 21.1586 76.1978 21.366L76.5995 21.7419L76.2107 21.9104C76.0033 22.0011 75.6663 22.0789 75.4849 22.0918C75.3034 22.0918 75.0441 22.2085 74.9145 22.3511C74.5905 22.714 73.4239 22.714 72.9313 22.3511C72.698 22.1826 72.1925 22.04 71.4407 21.9492L70.313 21.7937V21.4178C70.313 20.8735 70.5333 20.5365 70.8833 20.5365C71.5185 20.5365 72.8535 20.018 73.2684 19.6162C73.5017 19.3959 73.6831 19.1626 73.6831 19.0978C73.6831 18.8126 73.9553 19.02 74.1239 19.4218ZM105.686 21.8067C105.855 22.2085 105.739 22.5973 104.52 25.8506C103.729 27.9503 103.651 28.08 102.485 28.6762C101.94 28.9613 101.331 29.3632 101.137 29.5705C100.774 29.9464 100.385 30.737 100.385 31.0999C100.385 31.2814 99.0888 34.6903 98.8424 35.1698C98.7129 35.4291 98.6222 35.468 96.6778 36.0901C94.3316 36.8289 91.9985 37.2436 90.145 37.2566C88.4209 37.2566 87.0988 37.5029 86.3341 37.9565C86.0489 38.125 85.3749 38.6823 84.8434 39.1878C84.325 39.6933 83.8583 40.1081 83.8324 40.1081C83.7028 40.1081 83.9621 38.475 84.1954 37.6973C84.5194 36.6345 85.0638 35.9215 85.7378 35.6494C86.7619 35.2347 88.7709 35.0272 91.8948 35.0014C94.7205 34.9754 94.928 34.9625 95.9779 34.6384C96.587 34.444 97.3 34.2626 97.5592 34.2106C97.9351 34.1459 98.0647 34.0681 98.1296 33.8089C98.2333 33.42 100.255 30.1538 101.526 28.3392C102.848 26.4598 103.898 24.6063 104.598 22.8954C104.935 22.1048 105.285 21.4438 105.375 21.4438C105.466 21.4438 105.608 21.6123 105.686 21.8067ZM71.1166 22.5196C71.1814 22.6362 71.013 22.688 70.4944 22.714C69.6649 22.7529 69.5482 22.701 69.8075 22.4029C69.9371 22.2474 70.1056 22.2214 70.4944 22.2862C70.7796 22.3251 71.0648 22.4288 71.1166 22.5196ZM77.1828 23.2583C77.7921 23.388 78.5439 23.5824 78.868 23.6861L79.4513 23.8805L78.7383 23.9064L78.0254 23.9323L78.5827 24.1268C78.8809 24.2304 79.1271 24.373 79.1271 24.4378C79.1271 24.5804 79.1791 24.5674 77.507 24.5804C76.2496 24.5804 76.2366 24.5804 76.9884 24.6971C78.4532 24.9044 78.9976 25.0859 78.9976 25.3322C78.9976 25.7858 78.7124 25.8506 77.831 25.6043C75.744 25.0081 72.9573 24.9563 70.2482 25.4747C68.6668 25.7728 68.7964 25.7728 68.7187 25.4359C68.6149 25.047 68.7834 24.8785 69.4704 24.6841C69.7945 24.5934 70.0537 24.4638 70.0537 24.3989C70.0537 24.3341 69.95 24.3082 69.8333 24.3471C68.9001 24.6193 67.889 24.5286 68.3816 24.2175C68.6149 24.0749 70.0537 23.7898 70.5463 23.7768C70.8055 23.7768 70.9481 23.725 70.8963 23.6472C70.8574 23.5694 70.3389 23.5176 69.7556 23.5176C69.0167 23.5046 68.7576 23.4787 68.9001 23.388C69.302 23.1547 70.8574 23.038 73.4887 23.0121C75.6145 23.0121 76.2755 23.051 77.1828 23.2583ZM74.7978 25.747C74.9534 25.9932 74.4479 26.2394 73.7739 26.2394C73.3331 26.2394 73.1646 26.2913 73.1906 26.395C73.2684 26.6153 73.735 26.732 74.6163 26.7449C75.2385 26.7579 75.3811 26.7191 75.5496 26.4727C75.6663 26.3172 75.7571 26.071 75.7571 25.9414C75.7571 25.7339 75.8218 25.708 76.12 25.7728C76.5737 25.8895 77.1828 26.5505 77.1828 26.9524C77.1828 27.4448 76.9106 28.5984 76.6903 29.0261C76.3662 29.6612 76.1718 29.7649 75.0312 29.9075C74.4349 29.9853 73.9424 30.076 73.9424 30.1278C73.9424 30.1667 74.1497 30.3093 74.3961 30.426C74.759 30.6075 74.8497 30.7111 74.8497 31.0222C74.8497 31.5147 74.7071 31.5925 73.8517 31.5665C72.9054 31.5407 72.4387 31.3203 71.7258 30.5686C70.4815 29.2465 69.626 27.2893 70.0278 26.6672C70.1963 26.408 71.5055 25.8636 72.2573 25.7339C73.3202 25.5655 74.6941 25.5655 74.7978 25.747ZM68.8223 27.1079C68.9779 27.5486 69.3797 28.378 69.7038 28.9613C70.2871 29.9723 70.313 30.0889 70.313 31.0222C70.313 31.5665 70.2482 32.2406 70.1704 32.5257C70.0019 33.1608 69.5611 34.1459 69.4575 34.1459C69.4056 34.1459 69.4186 33.77 69.4704 33.3034C69.5611 32.3831 69.3149 30.0889 69.1334 30.2056C69.0687 30.2445 69.0167 30.6982 69.0167 31.2296C69.0167 31.761 68.9649 32.2146 68.9001 32.2535C68.7576 32.3442 68.6279 31.3592 68.6279 30.0501C68.6279 29.4539 68.589 28.9613 68.5372 28.9613C68.4723 28.9743 68.265 29.2724 68.0446 29.6483C67.8372 30.0242 67.6039 30.3222 67.5261 30.3222C67.3835 30.3222 67.4224 29.5316 67.591 28.8317C67.6557 28.5855 67.8113 27.9633 67.9279 27.4708C68.0446 26.9653 68.1612 26.4858 68.1872 26.395C68.2909 26.045 68.5372 26.3302 68.8223 27.1079ZM110.69 26.3691C110.845 26.6283 110.391 27.0301 109.225 27.6781C106.672 29.091 103.522 30.3222 102.044 30.4778C101.253 30.5556 101.111 30.4519 101.526 30.102C102.213 29.4798 106.775 27.1726 108.383 26.6283C109.523 26.2394 110.547 26.1228 110.69 26.3691ZM112.206 31.0741C112.751 32.7201 113.684 35.4938 114.267 37.2177C114.863 38.9545 115.305 40.3932 115.278 40.4321C115.239 40.471 114.63 40.4321 113.917 40.3673C113.217 40.3025 112.116 40.2377 111.48 40.2377H110.327L110.418 39.5378C110.456 39.1489 110.586 37.1529 110.69 35.105C110.794 33.0441 110.91 30.6204 110.962 29.7001C111.001 28.7928 111.079 28.054 111.13 28.054C111.169 28.054 111.662 29.415 112.206 31.0741ZM78.9327 29.1168C78.8809 29.4928 78.6605 30.2445 78.4532 30.7759C78.0902 31.7091 77.831 32.9794 77.9994 32.9794C78.0514 32.9794 78.2069 32.7461 78.3494 32.4609C78.6347 31.8906 79.0753 31.7091 78.8809 32.2406C78.7642 32.5386 78.6994 33.096 78.7254 33.5238C78.7383 33.6533 78.8291 33.7571 78.9327 33.7571C79.2698 33.7571 79.6327 33.2774 79.866 32.4998L80.0993 31.748L80.1641 32.4609C80.2419 33.2385 80.0346 34.4181 79.7753 34.7292C79.5549 34.9883 79.3086 34.9754 78.7902 34.6514C77.9736 34.1459 77.7272 33.4589 77.6884 31.6184C77.6625 30.6204 77.6884 30.5426 78.2328 29.5057C78.5439 28.9224 78.8549 28.4429 78.9069 28.4429C78.9716 28.4429 78.9846 28.754 78.9327 29.1168ZM110.444 30.0889C110.405 30.4389 110.275 32.3184 110.172 34.2755C109.964 37.9046 109.783 40.0952 109.666 40.1988C109.614 40.2636 107.864 40.6395 107.514 40.6784C107.411 40.6784 107.333 40.6265 107.346 40.5618C107.372 40.4062 110.223 29.8687 110.301 29.6354C110.43 29.2595 110.522 29.5316 110.444 30.0889ZM102.329 31.5407C102.329 31.761 101.94 32.5905 101.837 32.5905C101.694 32.5905 101.409 31.6832 101.5 31.5277C101.59 31.3851 102.329 31.3981 102.329 31.5407ZM101.318 32.2146C101.668 33.1349 101.616 33.42 101.007 33.9385C100.709 34.1977 100.45 34.3792 100.424 34.3533C100.32 34.2495 100.852 31.5536 100.968 31.5925C101.033 31.6184 101.202 31.9036 101.318 32.2146ZM72.8406 32.8497C74.0201 33.8348 74.6294 33.8348 75.4718 32.8368C75.6404 32.6294 75.8349 32.4609 75.9126 32.4609C76.0682 32.4609 75.9644 32.7979 75.3293 34.2495C75.0441 34.9106 74.8497 35.4809 74.8885 35.5198C75.096 35.7271 75.6404 35.1698 75.9385 34.4699C76.0293 34.2495 76.2755 34.7032 76.2755 35.0921C76.2755 35.6105 76.094 35.8827 75.4071 36.4141C74.7071 36.9456 74.1757 36.9974 73.3072 36.6085C72.7109 36.3363 71.998 36.2586 71.998 36.4789C71.998 36.5567 72.1276 36.6603 72.2962 36.7252C72.6073 36.8548 72.9831 37.2436 73.3461 37.8139C73.6313 38.2805 74.0979 38.462 74.5645 38.2805C74.759 38.2028 75.3811 37.8399 75.9515 37.464C76.6255 37.0103 77.2217 36.7122 77.6754 36.6215C78.7254 36.4012 78.9069 36.2715 78.8031 35.8049C78.7254 35.4809 78.7513 35.4161 78.9069 35.4809C79.5031 35.7013 80.216 35.8308 81.1623 35.8568C81.7585 35.8827 82.238 35.9346 82.238 35.9864C82.238 36.1808 80.9808 37.0103 79.8401 37.5677C78.4661 38.2417 74.7201 39.4859 74.0719 39.4859C73.8128 39.4989 73.2684 39.3175 72.8276 39.0971C71.9203 38.6434 69.963 37.3344 69.2242 36.6992L68.7187 36.2715L69.3538 35.8957C70.5463 35.2216 71.0388 34.5347 71.1685 33.4071C71.2981 32.2664 71.3241 32.2017 71.7129 32.2017C71.9462 32.2017 72.3351 32.435 72.8406 32.8497ZM99.9313 34.2366C99.8406 34.7421 99.6721 35.0272 99.5424 34.8976C99.4646 34.8199 99.8535 33.7571 99.9572 33.7571C99.9961 33.7571 99.9832 33.9773 99.9313 34.2366ZM67.8502 35.0661C67.8502 35.9475 67.7206 36.0642 67.0206 35.8308C66.4373 35.6364 66.2688 35.2087 66.6706 34.9236C66.8262 34.8199 67.1113 34.5995 67.3057 34.444C67.5002 34.3014 67.6946 34.1977 67.7465 34.2366C67.8113 34.2626 67.8502 34.6384 67.8502 35.0661ZM103.029 37.2177C104.157 40.8469 104.598 42.0782 105.129 43.2317C105.466 43.9447 105.712 44.5409 105.686 44.5668C105.661 44.6057 105.168 44.502 104.598 44.3594C103.742 44.1391 103.146 44.0872 101.202 44.0743C99.8924 44.0613 98.8295 44.0354 98.8295 43.9965C98.8424 43.141 99.4906 38.5527 99.6332 38.2546C99.6979 38.1379 100.139 37.8399 100.618 37.5936C101.098 37.3473 101.72 36.9196 102.005 36.6215C102.29 36.3234 102.563 36.0901 102.601 36.0901C102.64 36.0901 102.835 36.5956 103.029 37.2177ZM67.8372 39.9526C67.9928 40.9635 68.1872 41.9874 68.2909 42.2208C68.6279 43.0503 72.9962 46.3295 73.7479 46.3295C73.9294 46.3295 75.5367 44.9037 75.446 44.8131C75.42 44.7742 75.1219 44.9168 74.7849 45.1112C74.2016 45.4481 74.1627 45.4481 73.7739 45.2537C73.2164 44.9815 70.7926 42.9337 70.4037 42.4022C70.0019 41.8708 69.7167 40.9635 69.5353 39.6415C69.302 38.0472 69.2889 38.0602 70.5722 38.8249C71.8165 39.5897 73.7739 40.5229 74.8756 40.8987C75.42 41.0802 75.9385 41.145 76.8199 41.132C77.481 41.1191 77.9087 41.0931 77.7661 41.0542C77.6236 41.0284 77.0403 40.8469 76.4829 40.6525C75.2645 40.2507 75.3034 40.2247 77.507 39.9137C80.5012 39.4989 80.3197 39.5637 81.4603 38.3843C82.0178 37.801 82.5233 37.3603 82.5622 37.4122C82.614 37.464 82.2769 38.0213 81.8233 38.6434C81.3567 39.2656 80.8252 40.0563 80.6308 40.3803C80.2808 40.9895 79.1013 42.1949 78.4402 42.6355C77.818 43.0373 78.155 42.9984 79.4771 42.506C81.3825 41.7801 81.3956 41.7801 82.4066 40.471C82.6399 40.1729 82.6399 40.1859 82.5491 40.9506C82.5102 41.3783 82.4455 43.1281 82.4325 44.839C82.3936 47.8331 82.3807 48.0015 82.0047 49.4143C81.6029 50.9438 81.5122 51.1511 81.4085 50.853C81.3696 50.7494 81.0845 49.9328 80.7604 49.0385C79.9957 46.9128 79.7882 46.1092 79.7493 45.0852C79.7364 44.6316 79.7235 44.2557 79.7104 44.2557C79.7104 44.2557 78.8031 44.7093 77.7014 45.2667C75.3811 46.4462 74.2794 46.8479 73.385 46.8479C72.724 46.8479 72.6462 47.0294 73.2684 47.1461C73.4628 47.185 73.9553 47.4442 74.3572 47.7164C75.2127 48.2867 79.9697 52.8491 79.7882 52.9139C79.5679 52.9916 78.9587 52.5899 77.7014 51.5529C75.6533 49.855 74.8367 49.2847 73.0998 48.3386C71.7258 47.5867 71.2463 47.2498 70.3908 46.3944C69.8075 45.8111 69.1982 45.0593 69.0167 44.7093C68.8353 44.3464 68.6798 44.0354 68.6668 44.0094C68.6409 43.9836 68.589 43.9836 68.5501 44.0354C68.4076 44.178 69.0298 45.7852 69.5223 46.5499C70.5463 48.1182 74.4997 52.1492 75.3811 52.538C75.6922 52.6676 76.4829 53.0046 77.1181 53.2768C77.7661 53.549 78.5827 53.9508 78.9327 54.1841C79.7364 54.7155 80.5271 55.3895 80.3586 55.4024C80.2808 55.4024 79.3994 55.0266 78.4143 54.5729C77.4162 54.1193 76.2237 53.6397 75.7571 53.5231C74.3961 53.1731 73.6572 52.6287 71.998 50.7363C71.4666 50.1272 70.5981 49.1681 70.0537 48.5977C69.5223 48.0275 68.8353 47.2627 68.5242 46.9128C67.9668 46.2647 67.9668 46.2647 68.252 46.7832C68.4076 47.0683 68.6149 47.3923 68.6927 47.496C68.7834 47.5998 69.1982 48.2737 69.626 48.9866C70.7537 50.866 71.5185 52.551 72.011 54.2359C72.3998 55.5968 72.9962 56.6727 73.5924 57.1004C74.3183 57.6318 75.1867 57.7744 77.2217 57.7096C78.1939 57.6837 78.9976 57.7096 78.9976 57.7614C78.9976 57.8132 78.6605 57.9558 78.2587 58.0854C77.6884 58.2669 77.0662 58.3187 75.7571 58.3187C74.1368 58.3187 73.9553 58.2929 73.2813 57.9818C72.374 57.5541 71.998 57.0615 71.5055 55.6617C70.987 54.1581 69.95 51.5659 69.626 50.9308C69.2501 50.1661 67.0335 46.8479 66.904 46.8479C66.7873 46.8479 65.8281 48.8829 65.6985 49.3884C65.5818 49.8291 65.4263 49.7773 65.2578 49.2329C65.0374 48.5588 65.18 47.872 66.0355 45.5518C66.9558 43.1022 67.1891 41.8968 67.215 39.4341C67.2539 36.6215 67.3835 36.7252 67.8372 39.9526ZM66.4633 38.4879C66.8133 40.121 66.2558 41.8838 64.9078 43.3614C64.4801 43.828 63.8968 44.6446 63.5986 45.1759C62.8469 46.5499 61.8228 50.0235 61.6414 51.8511C61.421 54.0156 61.2266 54.547 59.8785 56.6209C58.7638 58.3187 58.6472 58.6428 58.6472 60.0685C58.6472 62.9459 57.9601 65.3179 55.9121 69.5951C55.4714 70.5154 54.7715 72.0189 54.3697 72.9262C53.9549 73.8465 53.3327 74.9741 52.9698 75.4536C52.6198 75.9462 52.2179 76.5424 52.1012 76.7886L51.8679 77.2423L51.6346 76.7239C51.2328 75.8425 51.3106 75.5055 52.205 74.1705C52.6587 73.5094 53.1901 72.6151 53.3845 72.1874C53.5789 71.7597 53.903 71.0857 54.1104 70.6969C54.7455 69.4396 55.277 67.7287 56.0029 64.5402C56.8842 60.6518 57.2213 59.563 57.8175 58.578C58.7767 56.9837 59.1785 55.895 60.7988 50.4772L61.2914 48.857L61.3821 45.6814C61.4339 43.7891 61.5377 42.2985 61.6284 41.9874C61.9265 41.0284 62.3932 40.2766 63.0931 39.6415C63.819 38.9675 65.8022 37.8657 66.1522 37.9306C66.2688 37.9565 66.3984 38.1898 66.4633 38.4879ZM99.0888 38.4101C99.0888 38.7083 98.3111 44.0224 98.2592 44.1131C98.1814 44.2298 96.6519 44.5797 96.5612 44.502C96.4963 44.4371 97.5981 39.9655 97.8185 39.3952C98 38.9027 98.298 38.5527 98.6351 38.4101C98.9851 38.2676 99.0888 38.2676 99.0888 38.4101ZM64.8689 51.0085C64.8689 51.6437 65.3614 54.2878 65.7892 56.0246L66.3207 58.1373L65.7892 60.2889C65.4003 61.8313 65.1023 62.7126 64.7134 63.4514C64.2079 64.4235 64.1949 64.5013 64.3375 64.9679C64.4801 65.3956 64.4541 65.6031 64.0393 67.0029C63.7931 67.8583 63.4949 68.8174 63.3653 69.1415C63.1709 69.647 63.132 70.5024 63.0542 75.3629L62.9505 81.0011L62.4839 83.3989C61.5636 87.9872 61.447 89.5167 61.6284 94.3513C61.6803 95.9973 61.5117 101.856 61.4081 101.752C61.3821 101.726 61.1617 100.949 60.9284 100.041C60.6822 99.1211 59.9044 96.2955 59.1785 93.768C58.4656 91.2405 57.662 88.2594 57.4028 87.1577C56.4695 83.0878 56.288 82.2065 56.3529 82.051C56.4306 81.8435 59.4896 80.8067 60.0211 80.8067C60.2933 80.8067 60.5266 80.9363 60.7859 81.1955C60.9933 81.4029 61.2784 81.5844 61.4081 81.5844C61.6414 81.5844 61.6543 81.5195 61.5895 80.8326C61.4988 80.016 60.9933 78.3829 60.6692 77.8904C60.5526 77.7089 60.3451 77.5663 60.2026 77.5663C59.9951 77.5663 59.9433 77.6571 59.9433 78.02C59.9433 78.344 59.8656 78.5255 59.6322 78.6681C59.2563 78.9272 57.8564 79.2254 56.5213 79.3291C55.627 79.4069 55.4974 79.3939 55.5751 79.2254C55.8473 78.4866 55.938 77.67 56.0287 74.9741L56.1325 71.9281L57.0917 70.308C58.4008 68.1046 59.8267 65.279 60.2544 64.0217C60.4748 63.3996 60.6562 62.4923 60.721 61.7535C60.8118 60.7426 60.9414 60.2629 61.421 59.0575C61.758 58.254 62.2247 56.8411 62.4839 55.9079C63.0413 53.8082 63.2875 53.1991 64.0393 51.8899C64.5837 50.9438 64.8689 50.6457 64.8689 51.0085ZM67.0984 53.4453C67.3057 53.9119 67.7335 54.884 68.0446 55.5968C68.3557 56.3098 68.9909 57.6577 69.4445 58.5909C70.5852 60.8851 70.7019 60.9628 73.4498 61.2999C76.3793 61.6498 76.8329 61.5591 78.9069 60.1593C79.3864 59.8352 79.7753 59.6408 79.7753 59.7316C79.7753 59.8223 79.3216 60.3278 78.7772 60.8721C77.6754 61.9349 77.5458 62.0775 75.8478 64.0477L74.6941 65.3827L74.3312 65.1883C73.5924 64.8124 71.9851 63.3996 70.4297 61.7794C69.5611 60.8721 68.8872 60.2371 68.939 60.3796C69.0687 60.7814 72.5036 65.953 73.372 67.0676C74.6034 68.6489 74.6423 68.7008 75.0312 68.5194C75.9644 68.1046 78.1939 66.2122 80.2679 64.0995L82.4973 61.8183V62.7904C82.4973 65.3049 81.6807 68.986 80.3975 72.2392C79.516 74.4815 77.4032 78.2533 75.8089 80.4179C75.096 81.4029 72.7109 84.1248 70.3 86.7041C68.4465 88.7002 67.5261 89.8537 67.241 90.5018C67.1373 90.7351 66.9169 91.6165 66.7484 92.446C66.1911 95.129 65.4133 98.447 65.3225 98.5378C65.1411 98.7063 65.4003 94.0791 65.6596 92.4719L65.9189 90.8517L66.8002 89.5556C71.687 82.3361 71.8943 82.038 74.3183 78.9661C78.4661 73.7427 79.4902 71.8504 80.9419 66.7696C81.6418 64.3328 81.6159 64.0477 80.8123 65.4475C79.529 67.6898 71.4407 78.1626 67.8632 82.2324C66.3984 83.8915 64.3115 86.0041 64.2337 85.9134C64.1948 85.8746 64.0912 85.1617 64.0134 84.3321C63.8968 82.9064 64.0004 80.4179 64.2726 78.1366C64.4412 76.7886 65.0634 74.0668 65.2059 74.0668C65.3874 74.0668 66.7095 75.0259 67.6687 75.8425C68.0317 76.1406 68.4205 76.3998 68.5372 76.3998C68.6409 76.3998 69.5482 75.5443 70.5333 74.4815C73.6961 71.1504 74.4219 70.2821 73.372 71.1764C71.4018 72.8225 70.961 73.1595 70.4815 73.4057C70.1833 73.5483 69.8075 73.6779 69.6519 73.6779C69.2889 73.6779 68.6538 73.3668 68.1612 72.9262C67.9279 72.7318 67.1113 72.0189 66.3207 71.3449C65.53 70.6709 64.8559 70.0358 64.817 69.9581C64.7781 69.8673 64.843 69.5822 64.9467 69.31C65.2189 68.6489 66.0614 67.1973 66.178 67.1973C66.2818 67.1973 68.1872 69.5044 68.926 70.5283C69.5223 71.3449 70.2482 71.993 70.5722 71.993C70.8315 71.993 72.5813 70.8653 72.9573 70.4505C73.2684 70.1136 73.1646 70.1136 72.5424 70.4247C72.2832 70.5543 71.8425 70.7227 71.5703 70.8005L71.0777 70.9431L70.65 70.2691C70.4166 69.8932 69.8982 68.9471 69.5093 68.1564C69.1075 67.3658 68.3039 66.0566 67.6946 65.2401C67.0855 64.4235 66.5669 63.6589 66.5151 63.5422C66.4373 63.3089 67.0984 61.6109 67.2799 61.6109C67.3446 61.6109 67.6039 62.1164 67.8502 62.7515C68.4983 64.3588 70.4426 68.0268 70.4426 67.638C70.4426 67.3917 69.4575 64.7087 68.8483 63.2959C67.5779 60.3278 66.8391 57.243 66.4891 53.3416C66.3855 52.1751 66.541 52.201 67.0984 53.4453ZM83.5991 72.6411C83.1455 75.1685 82.4584 78.4866 81.914 80.7419C81.1103 84.0988 78.0514 92.4589 75.8089 97.462C74.0979 101.286 73.2295 103.113 72.2702 104.837C71.1166 106.95 67.4224 113.171 67.2021 113.392C66.904 113.689 67.0077 113.314 67.5391 112.043C68.1872 110.514 70.1963 104.928 70.987 102.452C71.6481 100.404 71.7647 100.093 71.8296 100.158C71.9073 100.236 71.2463 103.178 70.8833 104.383C70.7019 104.967 70.5852 105.485 70.6111 105.524C70.7277 105.628 72.6202 101.856 73.4628 99.8599C77.2477 90.7999 78.4532 87.7799 79.0753 85.8357C79.4771 84.6043 80.1641 82.5954 80.6178 81.39C81.7974 78.1755 82.8862 74.5982 83.4306 72.0837C83.7935 70.3858 83.9232 70.8135 83.5991 72.6411ZM59.8137 79.6142C59.8137 79.7438 57.5842 80.4437 55.7954 80.8845C54.603 81.1825 50.17 81.9732 49.794 81.9732C49.0681 81.9473 52.866 80.9492 56.962 80.0938C60.034 79.4458 59.8137 79.4847 59.8137 79.6142ZM55.9769 84.9673C56.2232 85.9264 57.0398 89.1537 57.8046 92.1478C58.5564 95.1419 59.5804 99.16 60.0729 101.091C60.5655 103.009 61.4988 106.69 62.1469 109.257C62.7949 111.823 63.7412 115.517 64.2337 117.475C64.7393 119.419 65.1152 121.038 65.0763 121.077C64.8948 121.259 63.9486 118.732 63.3782 116.515C63.2098 115.867 62.8469 114.467 62.5616 113.404C62.2636 112.329 61.8876 110.903 61.7192 110.229C61.3432 108.803 58.7638 99.0951 57.9342 96.0362C55.0048 85.1358 54.9659 84.9673 55.1344 84.2544C55.3807 83.2564 55.4196 83.1138 55.4843 83.1786C55.5103 83.2045 55.7307 84.0081 55.9769 84.9673ZM71.6999 89.5815C70.6241 92.0831 70.2352 93.2496 69.1334 97.3972C68.2261 100.845 67.1632 103.839 66.0873 105.978C65.7374 106.665 65.4263 106.963 65.5689 106.457C65.6207 106.289 65.9189 104.772 66.2429 103.1C66.5669 101.428 67.0206 99.1469 67.2669 98.0453C67.5132 96.9436 67.941 94.8956 68.239 93.5088C68.5372 92.122 68.7834 90.9684 68.7964 90.9554C68.926 90.748 72.724 86.9633 72.7628 86.9893C72.7887 87.0022 72.3091 88.1687 71.6999 89.5815ZM85.4527 92.2386C85.9582 94.9994 86.036 95.9844 85.9582 98.6545C85.8545 102.737 85.1545 106.094 83.5213 110.229C82.8473 111.953 81.7196 114.182 81.5252 114.182C81.4733 114.182 81.24 113.65 81.0196 113.003C80.6437 111.927 79.6846 109.97 79.516 109.97C79.4771 109.97 79.4382 110.359 79.4124 110.851C79.3216 113.482 78.505 117.293 77.2348 121.116C76.1459 124.37 76.0811 124.279 76.6644 120.416C77.0532 117.876 77.5717 112.717 77.5717 111.551L77.5588 110.942L77.157 111.719C76.9366 112.147 76.4829 113.145 76.1459 113.923C75.8089 114.714 75.3941 115.621 75.2385 115.932C74.9274 116.541 74.2016 117.526 74.1239 117.448C74.0979 117.422 74.5386 116.269 75.096 114.882C76.8459 110.566 77.7403 107.74 79.9826 99.4062C80.3586 98.0323 80.4104 97.8638 80.4752 97.9286C80.5141 97.9546 80.6308 99.0951 80.7474 100.443C81.1103 104.707 81.59 109.49 81.6548 109.555C81.7585 109.672 81.7974 109.568 82.1992 107.831C83.6639 101.687 84.6231 96.0622 84.9083 92.0442C84.9601 91.3572 85.0378 90.7869 85.0898 90.7869C85.1416 90.7869 85.3101 91.4479 85.4527 92.2386ZM71.0388 110.709C70.9352 110.981 70.7277 111.473 70.5722 111.823C70.4297 112.16 69.7815 113.767 69.1594 115.388C68.0187 118.316 66.5929 121.505 66.4244 121.505C66.3336 121.505 65.6467 118.511 65.6467 118.083C65.6467 117.954 65.9707 117.487 66.3725 117.06C67.1373 116.204 69.0556 113.703 69.4964 112.951C69.6519 112.705 70.0148 112.056 70.3259 111.525C71.1037 110.125 71.3499 109.853 71.0388 110.709ZM85.686 111.81C85.6471 112.043 85.5823 112.64 85.5434 113.145C85.4916 113.638 85.3489 115.011 85.1934 116.191C85.0509 117.371 84.8953 119.522 84.8564 120.987L84.7656 123.644L84.4546 123.682L84.1435 123.735L84.2343 122.063C84.2861 121.155 84.4027 119.444 84.5065 118.265C84.5972 117.086 84.7138 115.453 84.7656 114.636C84.8305 113.495 84.9342 112.938 85.1934 112.264C85.5434 111.344 85.7897 111.11 85.686 111.81Z" fill="#012016"/>
<path d="M72.8658 27.8726C72.6714 28.0411 72.4251 28.1448 72.3214 28.1059C72.2047 28.0541 72.127 28.1059 72.127 28.2225C72.127 28.3392 72.2307 28.4558 72.3603 28.4818C72.5418 28.5336 75.6397 28.5207 75.9249 28.4558C76.0933 28.43 76.0156 28.1837 75.8342 28.1837C75.7434 28.1837 75.4971 28.0541 75.2898 27.8985C74.7454 27.4579 73.3584 27.4449 72.8658 27.8726Z" fill="#012016"/>
<path d="M73.319 29.0521C73.3968 29.4798 74.9782 29.389 74.9782 28.9613C74.9782 28.8835 74.5893 28.8317 74.1227 28.8317C73.3839 28.8317 73.2801 28.8577 73.319 29.0521Z" fill="#012016"/>
<path d="M70.5062 40.6007C71.1542 42.3374 71.3876 42.7263 72.2172 43.3615C73.306 44.2039 73.6689 44.4113 73.9152 44.3205C74.0318 44.2816 74.5504 43.8669 75.0429 43.3873C75.8595 42.6227 75.9114 42.5449 75.5614 42.6227C74.5504 42.8429 74.1096 42.856 73.7338 42.6485C73.5263 42.5449 72.6579 41.7801 71.8024 40.9506C70.9469 40.1341 70.208 39.46 70.1692 39.46C70.1173 39.46 70.2729 39.9785 70.5062 40.6007Z" fill="#012016"/>
<path d="M106.088 43.1799C106.088 43.4521 107.345 44.8259 108.058 45.3314C111.027 47.4571 114.177 46.9646 116.277 44.0742C116.588 43.6465 116.846 43.2577 116.846 43.2058C116.846 43.141 116.484 43.2706 116.043 43.478C115.135 43.8927 112.712 44.3853 111.519 44.3853C110.262 44.3853 106.827 43.5947 106.425 43.2058C106.269 43.0632 106.088 43.0503 106.088 43.1799Z" fill="#012016"/>
<path d="M106.217 47.0424C105.647 47.6256 104.688 47.9756 102.977 48.2348C101.823 48.4033 101.369 48.4163 100.021 48.2866C98.1159 48.1053 96.6123 47.7423 95.9512 47.3016C95.679 47.1201 95.4328 46.9776 95.3939 46.9776C95.1864 46.9776 96.0808 48.3644 96.6641 48.9477C97.8955 50.179 99.2825 50.7363 101.097 50.7363C103.093 50.7363 104.467 50.0624 105.647 48.4811C106.256 47.6905 106.8 46.7313 106.71 46.6406C106.671 46.6146 106.45 46.7961 106.217 47.0424Z" fill="#012016"/>
<path d="M50.8042 56.0375C50.5191 56.1671 49.9227 56.5948 49.4821 56.9966L48.6914 57.7095L49.2876 57.9428C49.6894 58.1113 50.2209 58.1891 50.869 58.1891C51.6856 58.1891 51.9708 58.1242 52.6189 57.8132C53.3318 57.4632 54.4984 56.53 54.4984 56.3097C54.4984 56.1542 52.7485 55.7912 52.0226 55.7912C51.6208 55.7912 51.1024 55.8949 50.8042 56.0375Z" fill="#012016"/>
<path d="M96.3665 55.9987C95.9776 56.1023 95.6017 56.2449 95.5499 56.2967C95.4851 56.3616 95.7184 56.6467 96.0554 56.9319C97.4294 58.1502 99.0885 58.5391 100.553 57.9947L101.292 57.7096L100.618 57.0744C99.283 55.8301 98.1034 55.5321 96.3665 55.9987Z" fill="#012016"/>
</g>
<defs>
<clipPath id="clip0_263_156">
<rect width="150" height="150" fill="white"/>
</clipPath>
</defs>
</svg>
